<?xml version="1.0" encoding="utf-8"?>
<svg width="166" height="140" viewBox="0 0 166 140" fill="none" xmlns="http://www.w3.org/2000/svg">
<g clip-path="url(#clip0)">
<path d="M30.809 41.9941C30.4809 42.024 30.2423 42.0538 30.0037 42.1134C27.916 42.6205 27.2897 42.4117 26.067 40.7117C24.3968 38.4151 23.5916 38.2361 21.0864 39.6379C18.1338 41.2783 15.2409 43.0679 12.1988 44.4696C10.1708 45.4241 7.87437 45.8714 5.69722 46.4978C4.47444 46.8557 3.90778 46.11 4.08673 45.096C4.23585 44.1117 4.59373 43.0082 5.24986 42.3222C7.15859 40.2941 9.36556 38.6537 12.169 37.9379C19.7145 36.0291 26.5143 32.6588 31.9721 26.9622C33.0458 25.8288 34.0896 24.5463 34.8054 23.1744C36.2668 20.341 36.9825 16.9707 40.7403 15.9268C40.7105 15.7479 40.6807 15.5689 40.6509 15.39C39.9053 15.0619 39.1895 14.4356 38.4141 14.4057C26.574 13.7197 15.0321 15.1812 3.81831 19.148C2.38676 19.6252 0.686798 19.0287 0.149967 17.8356C-0.297392 16.8216 0.328911 15.3303 1.87976 14.7935C4.20602 14.018 6.65158 13.3917 9.06732 13.0039C17.2689 11.632 25.2021 9.24595 33.1054 6.74062C33.6124 6.5915 34.1791 6.3529 34.6861 6.41255C37.7579 6.74062 40.3526 5.60726 42.6491 3.75809C43.8122 2.83351 44.7367 1.55102 45.8999 0.626436C46.4367 0.208881 47.3314 0.0597547 48.077 0.0299294C50.4629 -0.0297213 52.8489 0.0299294 55.2348 0.0299294C63.1381 0.0299294 71.0415 0.0597547 78.9448 0.0597547C85.9832 0.0597547 93.0515 0.000104046 100.09 0.0299294C103.52 0.0299294 106.949 0.119405 110.379 0.298357C114.704 0.507134 117 2.80368 117.239 7.15818C117.328 8.53014 117.298 9.93193 117.209 11.3337C117.09 12.9741 116.612 14.4654 114.823 15.3303C117 16.7619 117.388 18.8199 117.298 21.1462C117.209 24.0691 117.209 27.0218 117.269 29.9447C117.298 30.9588 116.97 31.6448 116.165 32.2114C115.002 33.0465 113.869 33.9413 112.467 35.015C113.183 35.0747 113.6 35.1343 113.988 35.1343C124.218 35.1343 134.477 35.1641 144.707 35.1641C146.884 35.1641 149.091 34.9255 151.238 35.194C155.92 35.8203 157.769 38.1169 157.829 42.8293C157.829 43.1872 157.829 43.5152 157.829 43.8731C157.859 44.8574 157.859 45.6925 156.726 46.3188C155.712 46.9153 154.996 48.0785 154.041 49.0926C158.455 51.6575 158.694 55.8927 158.515 60.3069C160.782 59.1735 163.018 59.77 165.196 59.7402C165.464 59.7402 165.911 60.4858 165.971 60.9332C166.09 62.1262 166.001 63.3192 166.001 64.5122C166.001 66.9579 166.001 66.9579 163.555 67.1369C162.69 69.3141 163.018 71.551 163.317 73.8177C163.675 76.3827 164.152 78.9179 164.39 81.4828C164.599 83.6303 163.973 85.6286 162.631 87.3584C162.333 87.7462 161.706 88.1935 161.348 88.1041C160.901 87.9848 160.275 87.3883 160.215 86.9409C160.006 85.1812 160.036 83.3917 159.947 81.632C159.857 79.6039 159.797 77.5757 159.559 75.5774C159.469 74.7722 158.992 73.9967 158.545 73.3107C157.262 71.3422 156.189 71.6405 155.055 73.6388C154.489 74.6529 154.399 76.0248 154.25 77.2178C154.071 78.7986 153.505 79.9618 152.252 81.0355C147.928 84.6742 146.049 89.655 144.945 95.0235C144.021 99.4377 143.245 103.882 142.201 108.296C141.754 110.205 140.8 111.994 140.084 113.843C139.786 114.619 139.279 114.708 138.533 114.41C137.191 113.843 136.475 112.829 136.416 111.427C136.356 110.354 136.416 109.22 136.684 108.177C138.503 100.899 139.1 93.5024 139.577 86.0461C139.726 83.5408 140.203 81.0653 140.591 78.2319C139.338 78.7389 138.026 79.0372 137.042 79.753C135.312 81.0355 133.672 82.5267 132.151 84.0777C130.719 85.5689 129.467 87.269 128.214 88.9392C127.528 89.8339 126.723 90.1024 125.649 90.4006C124.188 90.7883 122.726 91.5638 121.533 92.5182C120.191 93.5919 119.297 95.2025 117.954 96.2762C116.762 97.2306 115.211 97.7078 113.839 98.4535C113.362 98.7219 112.735 98.9605 112.497 99.378C111.155 101.704 109.842 104.031 108.649 106.417C106.979 109.757 105.011 112.77 101.79 114.857C101.253 115.215 100.955 116.17 100.836 116.885C100.448 119.272 100.358 121.747 99.8812 124.103C99.1952 127.533 96.2725 129.651 92.962 129.293C92.1866 129.203 90.9937 128.786 90.8744 128.309C90.6954 127.563 91.0533 126.4 91.5901 125.803C92.8129 124.521 94.2743 123.447 95.6462 122.314C97.0181 121.18 98.2111 119.868 98.3005 117.989C98.3602 116.766 98.6882 115.812 99.3145 114.738C99.8514 113.843 100.03 112.531 99.9408 111.457C99.7022 108.415 100.269 105.612 101.641 102.838C103.013 100.094 104.027 97.171 105.16 94.3077C105.369 93.7709 105.548 93.2042 105.906 92.1007C104.474 92.3393 103.371 92.3691 102.386 92.727C100.746 93.3831 99.2251 94.5165 97.376 93.1445C97.197 92.9954 96.5707 93.2042 96.3023 93.4428C94.5427 94.9042 92.7533 96.306 91.1726 97.8868C89.5323 99.5272 88.1306 101.406 86.5499 103.136C86.1025 103.643 85.5061 104.15 84.8798 104.359C81.8974 105.373 80.5553 107.848 79.3027 110.413C78.3185 112.382 77.1852 114.231 75.0677 115.245C74.0537 115.722 73.2484 115.663 72.6818 114.649C72.5028 114.321 72.4134 113.843 72.5028 113.485C73.6958 109.847 74.9186 106.238 76.1712 102.629C76.8571 100.631 77.6624 98.6324 78.4676 96.4552C77.5431 96.2762 76.6484 95.9183 75.7536 95.9183C73.3677 95.9481 70.952 95.8885 68.6257 96.306C67.3731 96.5446 66.1205 97.4692 65.1065 98.364C63.9135 99.4079 63.0188 100.75 61.975 101.943C60.454 103.673 58.5452 104.568 56.1891 104.538C55.5628 104.538 54.7874 104.955 54.2804 105.403C48.3454 110.712 43.9017 117.154 40.293 124.193C38.3843 127.891 36.6246 131.679 34.9545 135.496C34.0598 137.525 32.2107 138.449 30.7493 139.821C30.5704 139.97 29.8844 139.881 29.7055 139.672C28.9002 138.598 27.8564 137.525 27.4985 136.302C26.8126 133.916 27.2003 131.619 28.9301 129.621C31.3756 126.758 33.7317 123.805 36.0878 120.852C38.6825 117.542 40.8596 114.022 41.7842 109.847C41.9035 109.31 42.321 108.803 42.6491 108.296C48.6437 98.7517 49.5384 88.8199 44.7964 78.5003C44.4087 77.6652 43.9911 77.0985 42.9175 76.9494C42.1719 76.8301 41.4263 76.0546 40.8895 75.3985C39.3684 73.5195 38.2053 73.3405 36.6545 75.1897C32.6282 80.0512 28.7213 85.0022 24.7547 89.8936C24.4266 90.3111 24.0986 90.6989 23.4126 90.9971C23.7109 89.8339 23.7705 88.5514 24.3074 87.5374C25.7985 84.704 27.3196 81.8408 29.1687 79.2161C31.2265 76.2932 33.6422 73.6388 35.879 70.8352C37.6387 68.6281 37.1913 63.8263 35.0738 61.9174C33.7317 60.6946 30.302 60.9332 29.1687 62.335C25.2319 67.1369 21.2355 71.9089 17.418 76.8003C16.2847 78.2319 15.1216 78.6494 13.0637 78.1126C13.5409 76.4125 13.69 74.5336 14.5848 73.1318C16.3145 70.3878 18.3426 67.793 20.4899 65.3474C22.7565 62.8122 25.4407 60.6051 27.7968 58.1296C30.1528 55.6541 32.0019 52.8207 32.33 49.2715C32.5984 46.7065 31.9423 44.3205 30.809 41.9941ZM46.4069 0.954514C46.4069 11.0056 46.4069 20.9673 46.4069 30.7202C51.1787 30.7202 55.8611 30.8096 60.5136 30.6903C62.81 30.6307 64.1521 29.1991 64.3907 26.9025C64.5995 25.0235 64.5995 23.1445 64.6591 21.2656C64.7486 18.2234 64.1223 15.5987 60.5136 14.7636C63.6749 13.0636 64.0328 13.2724 64.0627 8.41084C64.0627 7.87399 63.9434 7.33713 63.8837 6.80027C63.4065 3.25106 61.8855 1.31242 58.3663 1.04399C54.4295 0.715912 50.4331 0.954514 46.4069 0.954514ZM107.039 17.4479C108.53 17.3286 109.246 17.8655 109.276 19.1778C109.335 20.9076 109.395 22.6375 109.425 24.3972C109.455 26.5745 109.425 28.7219 109.425 30.8991C111.9 30.8991 114.227 30.8991 116.493 30.8991C116.553 30.7202 116.583 30.6307 116.583 30.5114C116.612 27.3201 116.553 24.1586 116.642 20.9673C116.732 18.2532 116.016 16.1952 113.093 15.2408C115.062 14.8829 116.344 13.839 116.463 11.9004C116.583 9.93193 116.702 7.90381 116.433 5.96517C115.986 2.74403 114.048 1.16329 110.767 0.894863C110.021 0.835213 109.276 0.775562 108.53 0.775562C105.428 0.775562 102.297 0.775562 99.1654 0.775562C99.1654 10.9758 99.1654 20.9375 99.1654 30.8991C101.82 30.8991 104.355 30.8991 107.039 30.8991C107.039 26.3359 107.039 21.9515 107.039 17.4479ZM139.845 66.4211C138.652 62.3946 137.668 58.3981 136.237 54.5506C135.014 51.2996 135.103 48.3171 136.416 45.1556C137.579 42.352 138.354 39.3695 139.398 36.2677C137.43 36.2677 135.64 36.3572 133.851 36.2379C132.449 36.1484 131.703 36.5063 131.435 37.9975C131.196 39.3397 130.689 40.652 130.272 41.9941C129.765 43.6047 129.258 45.2153 128.751 46.8258C128.631 46.796 128.512 46.796 128.423 46.7662C128.423 43.3065 128.423 39.8467 128.423 36.387C125.768 36.387 123.233 36.387 120.639 36.387C120.639 46.4381 120.639 56.3998 120.639 66.4211C123.263 66.4211 125.798 66.4211 128.482 66.4211C128.482 62.514 128.482 58.7261 128.482 54.9085C128.572 54.9085 128.691 54.8787 128.781 54.8787C129.765 58.7261 130.719 62.5736 131.703 66.4509C134.387 66.4211 137.012 66.4211 139.845 66.4211ZM119.297 66.4211C117.805 56.3699 116.314 46.3785 114.823 36.2975C111.423 36.2975 108.142 36.3572 104.862 36.2677C103.609 36.2379 103.281 36.7151 103.162 37.8484C102.565 42.7696 101.85 47.6908 101.223 52.5821C100.627 57.1752 100.03 61.7683 99.404 66.3912C102.178 66.3912 104.832 66.3912 107.576 66.3912C107.755 64.6017 107.904 62.9017 108.053 61.142C108.53 61.1122 108.918 61.1122 109.306 61.0525C110.648 60.8437 111.035 61.4104 110.976 62.6929C110.946 63.9157 111.184 65.1386 111.304 66.4807C113.6 66.4807 115.837 66.4807 118.074 66.4807C118.462 66.4807 118.849 66.4509 119.297 66.4211ZM157.173 45.2451C157.173 43.903 157.203 42.7099 157.173 41.5169C157.083 38.952 155.771 37.2519 153.385 36.3572C151.149 35.4922 148.852 35.3431 146.496 35.701C142.201 36.3572 140.472 38.0274 139.994 42.2924C139.547 46.4083 140.442 49.9873 144.378 52.2242C145.571 52.9102 146.615 53.8944 147.838 54.5506C150.254 55.8629 150.582 57.9805 150.343 60.3964C150.254 61.2613 149.896 61.9473 148.912 61.9771C147.838 62.0069 147.629 61.2613 147.57 60.3964C147.51 58.8753 147.391 57.3542 147.331 55.8331C144.915 55.8331 142.589 55.8331 140.233 55.8331C140.233 57.2945 140.114 58.6963 140.263 60.0683C140.71 64.1842 142.5 66.1228 146.615 66.9281C147.928 67.1667 149.299 67.1369 150.612 67.0772C155.055 66.9281 157.501 64.4824 157.919 60.0981C158.366 55.1173 157.054 51.061 152.341 48.6154C151.238 48.0487 150.224 47.3329 149.21 46.6171C147.629 45.5434 146.914 43.903 147.45 42.1134C147.599 41.5766 148.315 41.2187 148.763 40.7713C149.15 41.2485 149.747 41.6661 149.866 42.2029C150.105 43.1872 150.015 44.231 150.075 45.3047C152.312 45.3047 154.399 45.3047 156.487 45.3047C156.666 45.3346 156.875 45.2749 157.173 45.2451ZM62.9293 45.2749C62.9293 43.9626 62.9592 42.8293 62.9293 41.6959C62.81 39.0414 61.5276 37.2221 58.9926 36.3273C56.7856 35.5519 54.5488 35.3431 52.2524 35.701C47.9577 36.3572 46.2279 38.0274 45.7508 42.2924C45.3034 46.4083 46.1981 49.9873 50.1349 52.2242C51.3278 52.9102 52.3717 53.8944 53.5945 54.5506C56.0102 55.8629 56.4277 57.9805 56.04 60.3665C55.9505 60.963 55.2348 61.7683 54.6681 61.9174C53.6839 62.1561 53.3857 61.2911 53.3559 60.3964C53.2962 58.8753 53.1769 57.3542 53.1173 55.8033C50.7015 55.8033 48.4051 55.8033 45.8701 55.8033C45.9894 57.6226 46.0788 59.3226 46.2279 61.0525C46.4367 63.8859 48.1665 65.5561 50.6717 66.4509C53.3559 67.4053 56.1295 67.4351 58.8435 66.5702C62.2732 65.4965 63.496 63.8561 63.6451 60.2771C63.7048 58.9946 63.6451 57.6823 63.5855 56.3998C63.496 53.9243 62.5715 51.8663 60.5434 50.4049C58.7242 49.0926 56.8453 47.8995 55.026 46.6469C53.4453 45.5434 52.7296 43.9328 53.2664 42.1433C53.4155 41.6064 54.1015 41.2485 54.5488 40.8011C54.9365 41.2783 55.5628 41.6959 55.6821 42.2327C55.9207 43.217 55.8312 44.2609 55.8909 45.3047C58.247 45.2749 60.5136 45.2749 62.9293 45.2749ZM66.0907 36.1186C66.0907 46.4978 66.0907 56.4594 66.0907 66.3912C68.7152 66.3912 71.2502 66.3912 73.9046 66.3912C73.9046 64.3333 73.9046 62.3648 73.9046 60.3665C73.9046 58.3682 73.9046 56.3401 73.9046 54.2523C75.3361 54.2523 76.5291 54.312 77.722 54.2523C80.9132 54.0734 82.7623 52.4032 82.8815 49.4206C82.971 46.8855 82.971 44.3503 82.8815 41.8152C82.7623 38.8923 81.3904 37.0133 78.4676 36.6852C74.4116 36.2379 70.2959 36.2975 66.0907 36.1186ZM67.5819 0.865038C67.5819 11.0056 67.5819 20.9673 67.5819 30.8991C72.1449 30.8991 76.5887 30.8991 81.0026 30.8991C81.0026 28.9008 81.0026 26.992 81.0026 24.9639C79.1237 24.9639 77.3343 24.9639 75.4852 24.9639C75.4852 22.6673 75.4852 20.4603 75.4852 18.1339C77.1255 18.1339 78.6167 18.1339 80.1079 18.1339C80.1079 16.1654 80.1079 14.3461 80.1079 12.4074C78.4676 12.4074 76.9466 12.4074 75.515 12.4074C75.515 10.439 75.515 8.64944 75.515 6.68097C77.2747 6.68097 78.8851 6.68097 80.5255 6.68097C80.5255 4.65285 80.5255 2.80368 80.5255 0.865038C76.1712 0.865038 71.9063 0.865038 67.5819 0.865038ZM91.2919 24.9937C91.2919 22.6375 91.2919 20.4603 91.2919 18.1637C92.9024 18.1637 94.4234 18.1637 95.9146 18.1637C95.9146 16.1952 95.9146 14.4057 95.9146 12.4373C94.2743 12.4373 92.7831 12.4373 91.2919 12.4373C91.2919 10.4688 91.2919 8.67927 91.2919 6.7108C93.0217 6.7108 94.662 6.7108 96.2427 6.7108C96.2427 4.65285 96.2427 2.74403 96.2427 0.894863C91.8586 0.894863 87.5937 0.894863 83.3289 0.894863C83.3289 10.9758 83.3289 20.9375 83.3289 30.8991C87.892 30.8991 92.3357 30.8991 96.7795 30.8991C96.7795 28.9008 96.7795 26.992 96.7795 24.9937C94.9602 24.9937 93.1708 24.9937 91.2919 24.9937ZM98.9566 66.4211C98.9566 64.4228 98.9566 62.5438 98.9566 60.5157C97.0777 60.5157 95.2585 60.5157 93.4094 60.5157C93.4094 58.1595 93.4094 55.9822 93.4094 53.626C95.0497 53.626 96.5707 53.626 98.0619 53.626C98.0619 51.6874 98.0619 49.9277 98.0619 48.0189C96.4813 48.0189 94.9602 48.0189 93.3796 48.0189C93.3796 46.0802 93.3796 44.2609 93.3796 42.2327C95.1094 42.2327 96.7497 42.2327 98.4198 42.2327C98.4198 40.145 98.4198 38.2958 98.4198 36.4168C94.0357 36.4168 89.7411 36.4168 85.4464 36.4168C85.4464 46.4679 85.4464 56.3998 85.4464 66.3912C89.9498 66.4211 94.3936 66.4211 98.9566 66.4211ZM165.285 66.4211C165.285 64.3929 165.285 62.4245 165.285 60.3964C163.376 60.3964 161.587 60.3964 159.708 60.3964C159.708 62.4543 159.708 64.4228 159.708 66.4211C161.617 66.4211 163.406 66.4211 165.285 66.4211Z" fill="#F764A9"/>
<path d="M23.501 49.2417C23.7097 51.1207 23.0238 52.2541 21.9799 53.0295C20.0712 54.4313 18.1028 55.7734 16.0152 56.8472C15.3292 57.2051 14.1363 56.698 13.2415 56.4296C13.1222 56.3998 13.0029 55.3261 13.2117 55.1471C15.1801 53.5067 17.1186 51.8067 19.2958 50.4347C20.4291 49.7189 22.0098 49.6294 23.501 49.2417Z" fill="#F764A9"/>
<path d="M54.3096 25.6199C54.3096 22.8461 54.3096 20.1619 54.3096 17.4478C56.3972 17.5074 56.606 17.6864 56.6657 19.625C56.6955 20.9671 56.6955 22.2795 56.6657 23.6216C56.606 25.2918 56.2481 25.5901 54.3096 25.6199Z" fill="#F764A9"/>
<path d="M54.3096 12.4969C54.3096 10.2898 54.3096 8.17221 54.3096 6.08444C56.0692 5.99497 56.606 6.41252 56.6657 7.96344C56.6955 8.79855 56.6955 9.63365 56.6657 10.4986C56.6358 12.3179 56.3376 12.5864 54.3096 12.4969Z" fill="#F764A9"/>
<path d="M107.068 6.0248C108.619 5.9055 109.275 6.59148 109.335 7.9038C109.365 8.88803 109.365 9.87227 109.305 10.8565C109.216 12.1986 108.53 12.7951 107.068 12.4372C107.068 10.3196 107.068 8.20205 107.068 6.0248Z" fill="#F764A9"/>
<path d="M109.513 44.4099C109.841 48.1083 110.199 51.7768 110.527 55.5944C109.722 55.5944 108.976 55.5944 107.933 55.5944C108.35 51.8663 108.768 48.1083 109.185 44.3801C109.305 44.3801 109.394 44.4099 109.513 44.4099Z" fill="#F764A9"/>
<path d="M74.023 41.5467C75.7826 41.487 76.2896 41.8449 76.3194 43.4256C76.3492 44.6187 76.3492 45.8117 76.3194 47.0047C76.2598 48.6749 75.9019 49.003 73.9932 49.0328C74.023 46.5573 74.023 44.052 74.023 41.5467Z" fill="#F764A9"/>
</g>
<defs>
<clipPath id="clip0">
<rect width="166" height="140" fill="white"/>
</clipPath>
</defs>
</svg>
