<?xml version="1.0" encoding="utf-8"?>
<!-- Generator: Adobe Illustrator 24.2.0, SVG Export Plug-In . SVG Version: 6.00 Build 0)  -->
<svg version="1.1" id="Layer_1" xmlns="http://www.w3.org/2000/svg" xmlns:xlink="http://www.w3.org/1999/xlink" x="0px" y="0px"
	 viewBox="0 0 132 72" style="enable-background:new 0 0 132 72;" xml:space="preserve">
<style type="text/css">
	.st0{fill:#006EB6;}
</style>
<path class="st0" d="M126.2,31.1c-6.6-8.8-16.1-14.9-26.1-19c-24.2-9.9-50.8-8-76.3-10.7c-3.5-0.4-7-0.8-10.5-1.4
	c-0.8-0.1-1.7,0-2.2,0.6c-0.4,0.5-0.4,1.2,0.3,1.3c24.9,4.2,50.8,1.6,75.4,8.2c10.1,2.7,20,7,28.1,13.6c7.7,6.3,17.3,17.3,12.7,27.9
	c-4.9,11.3-18.8,14.2-29.7,16.1c-12.7,2.2-25.8,2.8-38.6,1.7C52.8,69,46.4,68,40,66.7c-5.9-1.2-11.9-2.7-17.5-5
	c-5.1-2-10.2-4.9-13.7-9.3c-3-3.6-4.7-8-5.4-12.6c-1.3-9.3,2.1-19.3,9.1-25.7C20,7.5,31.5,7.7,40.8,8.8c2.5,0.3,5,0.7,7.5,1.2
	c0.7,0.1,1.7,0,2.2-0.6C51,9,50.9,8.2,50.2,8.1c-10.4-2-21.8-3.3-32,0.5C8.7,12.1,2.2,21.2,0.5,31c-1.8,9.9,1.4,20,9.2,26.4
	c4.7,3.8,10.4,6.2,16.1,7.9c6.3,2,12.8,3.4,19.3,4.5c13.5,2.2,27.2,2.7,40.8,1.4c6.7-0.6,13.3-1.7,19.9-3.2
	c6.1-1.4,12.4-3.4,17.4-7.3c4.3-3.3,7.9-8,8.7-13.5C132.7,41.4,129.7,35.8,126.2,31.1z"/>
</svg>
