<?xml version="1.0" encoding="utf-8"?>
<svg width="157" height="152" viewBox="0 -35 157 152" fill="none" xmlns="http://www.w3.org/2000/svg">
<path d="M148.613 29.9532C146.666 27.0609 139.544 18.6647 136.618 16.706C135.532 15.9775 132.551 14.5746 130.513 14.3965C129.706 14.3263 129.13 14.4936 128.539 14.3965C128.13 14.3317 125.311 12.0924 123.289 10.3872C121.304 8.70909 110.825 3.2753 107.055 2.12056C105.871 1.75902 102.74 1.32195 100.998 1.26799C96.619 1.14388 85.8286 1.91551 82.7732 1.75363C78.8357 1.54318 71.9505 0.264327 67.9645 0.0538829C65.3395 -0.0864134 62.4241 0.0754669 59.3149 0.296703C56.7814 0.474772 52.4351 1.14927 51.4399 1.51081C50.6707 1.7914 49.837 2.13135 49.3851 2.09358C48.8795 2.05041 48.1909 1.60254 47.4002 1.2518C46.0608 0.658236 44.4041 0.366852 43.5165 0.539524C42.5321 0.728384 40.7678 1.79679 39.4768 2.10437C38.713 2.28783 36.9002 2.14214 35.4801 2.14754C32.0321 2.15833 23.8075 4.44624 21.5106 6.2539C17.9496 9.05443 15.9916 15.4973 14.4801 20.5965C13.8722 22.6416 13.2429 24.7514 13.0277 26.408C12.6619 29.2139 14.3779 41.3657 12.904 46.0009C12.3876 47.6305 11.4624 50.0156 12.9417 50.6199C14.4747 51.2458 17.7667 49.19 18.8694 48.3536C21.6935 46.2168 23.0651 43.8101 23.8075 39.925C24.2593 37.5616 24.496 34.2862 24.9156 32.921C25.0124 32.608 27.8633 26.8721 28.412 27.0393C28.654 27.1095 29.0144 28.1131 29.4986 28.615C29.7729 28.8956 30.0956 29.0305 30.4668 29.1006C31.8546 29.365 34.5926 29.1816 34.9637 29.3812C35.4586 29.6564 36.7765 32.1979 37.0132 33.3473C37.1369 33.9462 35.7383 39.639 35.4048 42.8389C35.1574 45.2671 36.3731 51.3807 37.3736 54.4996C38.4601 57.8722 40.3751 63.252 40.402 64.0776C40.4128 64.4229 40.3859 64.7359 40.3159 65.0974C40.1707 65.8097 39.8372 66.7 39.6758 67.5364C39.3154 69.398 39.9609 73.6231 40.5257 75.4038C41.0421 77.028 41.8705 78.4094 42.0157 79.2673C42.091 79.7314 37.8846 90.34 37.5134 90.6206C36.4753 91.403 35.2273 91.9534 35.5608 93.7341C35.6899 94.4086 36.1579 95.0291 36.287 95.6604C36.4699 96.5454 35.8889 99.0275 35.6791 99.9611C35.3295 101.553 34.6033 105.055 33.5759 105.735C33.3123 105.913 32.8659 106.064 32.527 106.28C31.435 106.97 31.1392 108.39 31.435 109.685C31.5803 110.311 31.8707 110.667 31.9191 111.136C31.9514 111.471 30.5044 114.374 29.8589 115.27C29.6814 115.512 29.4717 115.793 29.2404 116.106C28.3958 117.223 31.1553 117.493 31.4565 117.077C32.4893 115.647 33.4145 114.412 33.4145 114.412C33.4145 114.412 37.9061 123.418 38.9443 124.874C39.3369 125.425 43.9038 128.857 44.7591 129.251C53.0859 133.055 57.5452 135.289 64.6403 136.373L71.972 136.006C75.8557 136.131 79.223 135.78 82.9991 135.764L87.2755 135.526L90.6267 136.783L90.9602 136.789C94.8601 136.951 102.52 136.395 102.703 136.341C103.967 135.942 105.053 135.494 105.586 135.084C106.393 134.458 106.882 133.859 107.162 133.017C107.436 132.186 107.479 131.269 107.77 130.826C107.974 130.519 110.061 129.553 111.648 128.76C115.182 126.984 117.307 124.513 119.405 121.464C119.841 120.833 120.013 120.682 120.314 121.065C120.416 121.194 123.498 119.397 123.165 118.669C122.45 117.115 121.906 114.379 121.621 114.099C121.433 113.915 121.202 113.883 121.105 113.71C120.97 113.489 121.982 110.802 122.315 109.032C122.503 108.039 122.369 105.735 121.949 104.812C121.648 104.138 121.067 103.56 120.739 102.869C120.389 102.13 120.33 101.267 120.013 100.441C119.701 99.6319 119.141 98.8603 118.679 98.1318C117.302 95.9626 117.673 95.5417 117.711 92.6171C117.737 90.5018 117.458 90.0648 116.737 88.9478C116.339 88.3326 114.833 83.5572 114.892 83.0877C114.956 82.5211 115.763 81.0103 116.377 79.78C117.2 78.1396 118.135 74.616 119.287 71.7615C121.465 66.3331 123.875 64.1261 124.617 59.6043C124.875 58.0124 125.101 55.7137 125.101 55.7137C125.101 55.7137 125.731 58.4711 126.312 60.0899C126.634 60.9856 127.129 61.8976 127.845 62.1728C128.28 62.34 128.759 62.2159 129.093 62.394C129.319 62.5127 129.83 64.6819 130.314 65.8529C130.825 67.0885 133.224 68.6048 134.429 68.594C136.333 68.5832 139.184 65.5938 140.486 63.975C140.728 63.6729 140.954 63.3815 141.104 63.0361C141.309 62.5721 141.352 62.448 141.513 61.8112C142.309 58.6222 143.525 53.7334 144.149 52.3089C144.606 51.2674 148.323 45.7905 149.845 42.5852C152.201 37.6317 151.868 34.788 148.613 29.9532Z" fill="white"/>
<path d="M148.613 29.9532C146.666 27.0609 139.544 18.6647 136.618 16.706C135.532 15.9775 132.551 14.5746 130.513 14.3965C129.706 14.3263 129.13 14.4936 128.539 14.3965C128.13 14.3317 125.311 12.0924 123.289 10.3872C121.304 8.70909 110.825 3.2753 107.055 2.12056C105.871 1.75902 102.74 1.32195 100.998 1.26799C96.619 1.14388 85.8286 1.91551 82.7732 1.75363C78.8357 1.54318 71.9505 0.264327 67.9645 0.0538829C65.3395 -0.0864134 62.4241 0.075467 59.3149 0.296703C56.7814 0.474772 52.4351 1.14927 51.4399 1.51081C50.6707 1.7914 49.837 2.13135 49.3851 2.09358C48.8795 2.05041 48.1909 1.60254 47.4002 1.2518C46.0608 0.658236 44.4041 0.366852 43.5165 0.539524C42.5321 0.728384 40.7678 1.7968 39.4768 2.10437C38.713 2.28783 36.9002 2.14214 35.4801 2.14754C32.0321 2.15833 23.8075 4.44624 21.5106 6.2539C17.9496 9.05443 15.9916 15.4973 14.4801 20.5965C13.8722 22.6416 13.2429 24.7514 13.0277 26.408C12.6619 29.2139 14.3779 41.3658 12.904 46.0009C12.3876 47.6305 11.4624 50.0156 12.9417 50.6199C14.4747 51.2459 17.7667 49.19 18.8694 48.3536C21.6935 46.2168 23.0651 43.8101 23.8075 39.925C24.2593 37.5616 24.496 34.2862 24.9156 32.921C25.0124 32.608 27.8633 26.8721 28.412 27.0393C28.654 27.1095 29.0144 28.1131 29.4986 28.615C29.7729 28.8956 30.0956 29.0305 30.4668 29.1006C31.8546 29.365 34.5926 29.1816 34.9637 29.3812C35.4586 29.6564 36.7765 32.1979 37.0132 33.3473C37.1369 33.9462 35.7383 39.639 35.4048 42.8389C35.1574 45.2671 36.3731 51.3808 37.3736 54.4996C38.4601 57.8722 40.3751 63.252 40.402 64.0776C40.4128 64.4229 40.3859 64.7359 40.3159 65.0974C40.1707 65.8097 39.8372 66.7 39.6758 67.5364C39.3154 69.398 39.9609 73.6231 40.5257 75.4038C41.0421 77.028 41.8705 78.4094 42.0157 79.2673C42.091 79.7314 37.8846 90.34 37.5134 90.6206C36.4753 91.403 35.2273 91.9534 35.5608 93.7341C35.6899 94.4086 36.1579 95.0291 36.287 95.6604C36.4699 96.5454 35.8889 99.0275 35.6791 99.9611C35.3295 101.553 34.6033 105.055 33.5759 105.735C33.3123 105.907 32.8659 106.064 32.527 106.28C31.435 106.97 31.1392 108.395 31.435 109.69C31.5803 110.316 31.8707 110.672 31.9191 111.142C31.9514 111.476 30.5044 114.379 29.8589 115.275C29.6814 115.518 29.4717 115.798 29.2404 116.111C28.3958 117.228 31.1553 117.498 31.4565 117.083C32.4893 115.653 33.4145 114.417 33.4145 114.417C33.4145 114.417 37.9061 123.423 38.9443 124.88C39.3369 125.43 43.9038 128.862 44.7591 129.256C53.0859 133.06 61.4397 135.289 63.2793 135.532C67.2115 136.05 71.9774 136.012 71.9774 136.012C75.8611 136.141 79.2284 135.785 83.0045 135.769L87.2809 135.532L90.6321 136.789L90.9656 136.794C94.8655 136.956 102.525 136.4 102.708 136.341C103.972 135.942 105.059 135.494 105.591 135.084C106.398 134.458 107.754 133.772 108.028 132.936C108.302 132.105 109.034 131.787 109.325 131.344C109.529 131.037 111.347 129.682 112.928 128.884C116.463 127.114 117.307 124.513 119.405 121.47C119.841 120.838 120.013 120.687 120.314 121.07C120.416 121.2 123.498 119.397 123.165 118.674C122.45 117.126 121.906 114.385 121.621 114.104C121.433 113.921 121.202 113.888 121.105 113.715C120.97 113.494 121.982 110.807 122.315 109.037C122.503 108.044 122.369 105.74 121.949 104.817C121.648 104.143 121.067 103.56 120.739 102.875C120.389 102.136 120.33 101.267 120.013 100.441C119.701 99.6319 119.141 98.8603 118.679 98.1318C117.302 95.9626 117.673 95.5417 117.711 92.6171C117.737 90.5018 117.458 90.0648 116.737 88.9478C116.339 88.3326 114.833 83.5572 114.892 83.0877C114.956 82.5211 115.763 81.0103 116.377 79.78C117.2 78.1396 118.135 74.616 119.287 71.7615C121.465 66.3331 123.875 64.1261 124.617 59.6043C124.875 58.0125 125.101 55.7138 125.101 55.7138C125.101 55.7138 125.731 58.4711 126.312 60.0899C126.634 60.9857 127.129 61.8976 127.845 62.1728C128.28 62.3401 128.759 62.2159 129.093 62.394C129.319 62.5127 129.83 64.6819 130.314 65.8529C130.825 67.0885 133.224 68.6048 134.429 68.594C136.333 68.5832 139.184 65.5938 140.486 63.975C140.728 63.6729 140.954 63.3815 141.104 63.0361C141.309 62.5721 141.352 62.448 141.513 61.8112C142.309 58.6222 143.525 53.7334 144.149 52.3089C144.606 51.2674 148.323 45.7905 149.845 42.5853C152.201 37.6317 151.868 34.788 148.613 29.9532ZM137.758 23.6992C137.758 23.6992 140.061 25.345 141.056 26.1598C141.438 26.4728 141.626 26.6616 141.895 27.0016C143.073 28.4747 145.816 32.7537 145.816 32.7537C145.816 32.7537 144.918 32.4515 144.337 32.0468C143.939 31.7662 143.272 30.4226 142.745 29.8075C142.514 29.5323 142.196 29.3326 141.863 29.2409C141.416 29.1222 140.938 29.2085 140.593 29.0251C140.244 28.8416 137.662 24.6921 137.694 24.1417C137.71 23.9312 137.758 23.6992 137.758 23.6992ZM34.9422 16.884C34.1461 18.1305 33.5114 19.2853 32.5216 20.0461C32.0321 20.4184 31.4404 20.7152 30.8595 21.0714C29.5954 21.8538 26.0398 24.7676 25.3674 25.5123C23.8021 27.2552 22.495 30.2716 21.9732 32.5649C20.7952 37.7558 21.6504 39.9844 19.2567 43.222C18.7995 43.8371 16.6048 46.8481 15.7926 47.2744C15.6742 47.3391 15.5505 47.3985 15.5505 47.3985C15.5505 47.3985 16.3574 45.3048 16.8845 43.508C17.3794 41.8136 18.2078 34.8851 17.9765 32.4246C17.8259 30.8381 16.0508 25.0698 16.04 24.0607C16.0131 22.2207 19.4342 11.7039 20.2788 10.4466C21.0426 9.31344 22.8715 7.78637 24.5659 6.49672C24.8725 6.2593 25.1469 6.05965 25.4911 5.94633C25.9161 5.80603 26.4486 5.81143 26.9435 5.70351C27.1963 5.64415 27.4437 5.55782 27.6697 5.46069C28.2076 5.22866 28.6325 4.94267 29.122 4.73223C29.8159 4.43545 39.4176 4.0901 40.515 3.76094C43.0324 3.00011 43.7747 2.0612 45.8457 3.03248C46.7225 3.44258 47.8574 4.85094 47.4863 5.90316C47.3464 6.29167 46.9269 6.84746 46.6579 7.25756C45.9048 8.40691 46.3889 7.4788 45.4799 6.07044C45.2701 5.74668 44.6031 5.61717 44.0598 5.97331C43.9199 6.06504 43.8661 6.13519 43.5219 6.69098L39.7888 12.6266V13.5979C39.7888 13.5979 40.9614 13.4414 41.2411 13.5979C41.4993 13.7382 41.3165 14.1645 41.1766 14.445C40.956 14.8767 39.8964 15.8858 39.6704 15.8858C39.3531 15.8804 38.8259 15.2545 38.2557 15.0602C36.9325 14.6069 35.6684 15.7347 34.9422 16.884ZM40.1492 89.4442C41.0529 86.8973 42.9356 82.5211 42.9356 82.5211C42.9356 82.5211 42.5644 87.7553 42.6935 90.1025C42.7581 91.2573 42.9356 92.1261 43.3013 93.0919C43.6564 94.0362 43.8715 94.4679 43.8231 95.2665C43.7478 96.4968 43.4197 97.1174 44.0329 97.9537C44.6838 98.8441 46.0339 100.101 46.7655 100.479C48.2985 101.283 50.5578 102.384 51.0634 102.816C51.4722 103.161 51.2301 103.193 51.0473 103.749C50.8052 104.472 51.5852 105.589 51.838 105.843C52.1769 106.188 56.2489 107.845 57.2494 108.044C57.3946 108.077 60.8103 108.6 60.8856 109.14C60.9072 109.323 60.6382 109.598 60.6436 109.771C60.649 109.922 60.8695 109.998 61.1976 110.111C62.295 110.483 64.6134 111.309 64.6134 111.309C64.6134 111.309 64.2637 111.919 64.1292 112.226C63.9517 112.647 64.2583 112.717 64.5219 113.268C64.5811 113.392 64.5703 113.462 64.5219 113.51C64.3767 113.672 60.5468 112.75 58.9492 112.172C57.4376 111.627 56.4479 111.223 55.3129 110.715C47.4056 107.143 43.1776 103.539 40.1653 95.2773C39.31 92.9732 39.2939 91.867 40.1492 89.4442ZM83.0207 79.7206C81.7458 79.8879 79.2876 80.6973 79.2876 80.6973C79.2876 80.6973 79.1692 82.0895 79.2876 83.0446C79.3736 83.7245 80.3311 85.5969 81.1918 86.1527C81.606 86.4225 81.9072 86.4279 81.8695 86.9513C81.8373 87.3884 80.4333 89.8112 80.4333 89.8112C80.4333 89.8112 79.648 87.6797 79.1638 87.0106C78.513 86.1149 77.2005 86.0447 76.3775 86.6437C75.818 87.0484 74.0752 89.4388 74.0752 89.4388C74.0752 89.4388 73.5427 88.5377 72.9832 87.8578C72.4615 87.2157 69.5191 85.4134 68.7445 84.577C67.2061 82.9205 66.5337 80.4545 68.013 78.5011C68.2012 78.2583 68.4863 77.9939 68.9005 77.859C69.1587 77.778 69.2555 77.7619 69.9064 77.7079C71.5739 77.573 74.2796 77.3626 74.9251 77.5244C75.463 77.6593 75.888 77.9076 76.3775 78.0101C76.9046 78.1234 79.6856 77.4651 81.5844 77.2816C82.2568 77.2169 85.0593 77.6863 85.5542 77.9507C87.3078 78.8842 88.4643 80.3789 87.8726 82.1758C87.7059 82.6668 86.7 84.032 86.4579 84.0914C85.5058 84.3234 86.033 82.9906 86.2051 82.2729C86.6516 80.4329 84.828 79.4832 83.0207 79.7206ZM76.555 97.5221C76.8724 97.5005 81.5253 99.2002 83.5317 100.387C84.0104 100.668 84.5268 101.024 84.8119 101.294C85.1078 101.574 85.7963 102.271 85.8339 102.578C85.8662 102.799 78.4968 102.351 75.9687 102.578C74.8606 102.675 70.3152 104.019 68.5562 103.129C68.0883 102.891 69.1641 101.995 69.8311 101.483C71.617 100.123 76.1354 97.5544 76.555 97.5221ZM76.3022 115.852L86.8022 115.701V117.644C86.8022 117.644 75.9687 117.709 69.3039 117.401C60.4768 116.985 55.2752 115.399 48.4545 110.543C46.2975 109.005 44.716 107.969 43.5542 106.771C43.0862 106.291 38.7399 99.702 42.9571 104.683C43.9146 105.81 47.2711 108.33 49.7401 109.733C52.0747 111.061 54.5921 112.404 55.5388 112.787C56.9589 113.359 61.8108 114.6 65.2535 115.307C66.8995 115.636 72.526 115.906 76.3022 115.852ZM36.4268 103.517C36.7119 102.81 37.0185 102.06 37.266 101.477C37.4973 100.927 38.0083 101.348 38.3257 102.341C38.557 103.075 38.8259 103.884 39.0626 104.515C40.6064 108.632 46.0823 113.23 49.9661 115.21C57.5345 119.068 65.1674 120.007 74.5002 120.072C79.7394 120.104 87.0442 119.829 87.0442 119.829C87.0442 119.829 87.4423 122.473 87.3293 123.072C87.3078 123.186 85.2691 123.434 83.0637 123.639C81.2563 123.806 77.0122 123.909 74.7476 123.838C70.9715 123.725 67.1738 123.72 67.1738 123.72C67.1738 123.72 66.9425 124.659 66.9318 125.031C66.9264 125.187 67.0124 125.279 67.1738 125.295C67.5557 125.339 68.3357 125.49 69.2555 125.662C71.235 126.035 76.7648 126.337 80.1321 126.283L88.0179 126.148V128.42C88.0179 128.42 85.651 128.722 83.1175 128.954C72.8918 129.914 62.3434 128.301 57.1525 126.008C53.1666 124.249 46.7063 121.189 45.2432 120.315C43.5918 119.327 42.6827 118.502 41.1228 116.181C40.289 114.935 39.579 113.645 38.8205 112.534C38.2934 111.762 36.7765 108.605 36.0449 106.879C35.7921 106.28 35.975 104.656 36.4268 103.517ZM79.1692 132.958C75.9955 133.157 63.7312 132.084 58.933 130.648C55.13 129.51 43.9146 124.054 40.9991 122.139C40.0147 121.491 39.4015 120.935 38.9066 119.851C36.8303 115.34 34.9852 112.14 34.1676 110.559C32.7852 107.882 33.2747 106.571 34.3451 108.643C35.109 110.133 36.443 112.685 37.4811 114.482C39.0895 117.266 41.0744 119.986 42.4514 121.167C43.963 122.468 52.903 126.526 58.8093 128.846C63.161 130.551 74.1882 131.512 81.0143 130.891C81.0842 130.886 81.1595 130.875 81.2348 130.869C84.1341 130.594 87.4961 130.152 88.3406 130.287C88.4428 130.303 88.5074 130.324 88.6203 130.529C88.8193 130.891 89.1582 131.825 89.1582 131.825C89.1582 131.825 83.5909 132.682 79.1692 132.958ZM103.596 130.977C101.912 133.022 98.8837 133.486 95.2366 133.929C92.4072 134.274 90.9871 133.033 90.3201 130.281C89.6585 127.551 87.1572 115.955 89.9597 113.386C91.5089 111.967 100.89 109.329 101.32 109.199C101.562 109.123 101.778 109.059 102.02 109.194C102.127 109.253 102.24 109.356 102.219 109.431C102.063 109.981 101.665 110.694 101.353 111.557C101.17 112.059 103.144 127.875 103.413 128.09C104.424 128.905 105.107 129.143 103.596 130.977ZM104.736 111.724C104.903 111.33 105.457 110.758 105.946 110.467C107.646 109.485 109.244 107.872 110.675 105.729C111.815 104.024 113.273 100.938 113.827 100.382C113.977 100.231 114.133 100.096 114.193 100.139C114.246 100.177 114.225 100.35 114.193 100.528C113.461 104.915 109.685 109.507 107.167 111.929C106.527 112.545 105.01 113.532 104.742 113.51C104.58 113.5 104.58 112.102 104.736 111.724ZM118.066 114.363C118.162 114.277 118.259 114.212 118.308 114.239C118.367 114.271 118.34 114.444 118.308 114.627C117.985 116.181 115.419 120.013 114.306 121.291C113.031 122.759 109.68 125.916 107.496 126.882C107.06 127.076 106.565 126.59 106.431 126.25C106.081 125.376 107.818 124.885 109.701 123.72C111.605 122.543 115.925 118.146 116.732 116.673C117.216 115.793 117.678 114.708 118.066 114.363ZM117.581 109.863C117.641 109.895 117.619 110.068 117.581 110.251C116.925 113.473 112.654 118.254 110.841 120.013C109.728 121.097 106.355 123.628 105.71 123.871C105.554 123.93 105.554 122.328 105.71 121.939C105.828 121.648 108.776 119.813 110.072 119.225C110.562 119.004 114.682 114.665 115.042 113.996C115.876 112.447 116.936 110.338 117.345 109.987C117.436 109.901 117.533 109.836 117.581 109.863ZM116.204 102.039C116.436 101.423 116.479 101.353 116.592 101.342C116.984 101.299 117 101.375 116.785 102.319C115.688 107.224 115.387 108.525 112.606 113.025C112.095 113.85 108.609 117.53 107.883 118.011C107.334 118.372 106.726 118.734 106.253 119.004C105.85 119.236 105.457 118.874 105.457 118.334V116.592C105.457 115.933 105.516 115.82 106.049 115.437C112.245 110.98 113.558 108.994 116.204 102.039ZM125.343 38.2684C124.811 38.4465 123.396 38.3926 123.396 38.3926L123.601 42.7202C123.633 43.3785 123.633 43.5242 123.595 44.1825C123.504 45.7149 123.299 45.8876 122.788 46.9021C122.632 47.215 122.331 47.5928 122.084 47.6305C121.917 47.6575 121.702 47.6305 121.702 47.6305C121.702 47.6305 122.363 46.697 122.67 46.1736C123.181 45.2941 123.213 43.8533 122.503 43.0493C121.998 42.4827 121.68 42.2993 121.938 42.0295C122.008 41.9539 122.105 41.8838 122.186 41.7974C122.412 41.5708 122.697 40.5725 122.67 40.0977C122.643 39.5419 122.127 38.1821 121.583 37.1784C121.169 36.423 112.95 28.2103 112.579 28.1833C111.955 28.1401 111.288 28.1833 111.288 28.1833C111.288 28.1833 111.202 28.793 111.288 29.2409C111.347 29.5539 112.267 30.3471 112.751 30.9353C112.864 31.0756 113.429 32.171 113.23 32.3166C113.171 32.3598 113.036 32.2897 112.896 32.2087C110.363 30.7356 110.325 29.5971 108.625 29.0305C107.313 28.5934 104.193 28.4585 103.052 29.0305C102.418 29.3488 101.982 29.9316 101.353 30.2446C100.863 30.4928 99.3301 30.5899 98.2005 30.7302C96.5868 30.9299 95.9735 31.3346 94.6288 32.0414C93.5637 32.5972 91.993 33.6495 91.9016 33.9193C91.8047 34.2106 91.9607 34.7017 92.2673 35.2305C92.6708 35.9428 93.284 36.5147 93.6014 37.1731C93.9026 37.8152 94.4674 40.9017 94.4244 41.3118C94.3706 41.8406 94.1447 42.2615 94.0855 42.7633C94.0263 43.2813 94.6019 45.2131 94.9354 46.5135C95.1344 47.3014 95.1882 48.3536 95.0591 48.9256C94.8923 49.6163 94.532 50.4095 94.575 50.9059C94.6126 51.37 95.4625 53.2586 95.6669 53.4582C96.0058 53.7928 96.9418 53.9223 97.4851 54.3108C98.3027 54.8936 98.7384 56.7822 98.4587 57.8398C98.2059 58.7679 97.555 59.642 97.9692 60.0252C98.1413 60.1816 99.6636 60.1816 99.9917 60.0252C100.519 59.7662 101.046 58.6816 101.121 57.8398C101.267 56.2588 100.691 55.881 101.605 55.2821C103.047 54.3432 103.762 54.4835 105.242 54.4349C106.129 54.4025 109.948 53.0373 110.971 52.978C111.842 52.924 112.681 53.1183 113.488 52.978C113.886 52.9078 114.273 52.7567 114.693 52.611C114.806 52.5733 114.924 52.5355 115.026 52.4654C115.161 52.3736 115.225 52.3143 115.645 51.807C116.484 50.8088 117.904 49.1522 118.329 48.9633C119.141 48.591 120.282 48.4129 120.282 48.4129C120.282 48.4129 119.679 49.136 119.292 49.6432C118.985 50.0425 118.813 50.3123 118.668 50.6955C118.474 51.2135 118.399 51.3268 117.942 51.7909L109.873 59.9928C109.411 60.4568 109.314 60.5432 108.867 60.8184C108.534 61.0234 108.146 61.1259 107.786 61.2393C106.872 61.5199 105.968 61.8059 105.608 61.7249C105.027 61.5954 104.144 60.7644 103.574 60.6457C102.714 60.4622 101.363 60.5108 101.363 60.5108C101.363 60.5108 101.32 61.0936 101.363 61.4821C101.412 61.8652 101.611 62.1404 101.848 62.3347C102.493 62.8581 103.488 63.4516 104.284 64.2556C106.28 66.2738 108.448 70.7578 108.389 73.2724C108.372 73.9145 108.27 74.4865 108.023 75.0962C107.705 75.8733 107.146 76.7042 106.812 77.5244C106.011 79.4886 105.855 84.5932 105.758 86.6005C105.726 87.2589 105.726 87.3398 105.79 87.4315C106.188 88.0143 107.404 88.0629 107.808 87.9765C108.249 87.8794 109.502 87.3938 109.841 87.1239C110.384 86.6977 111.148 85.3001 111.476 86.0933C111.562 86.3038 111.551 86.552 111.541 86.811C111.363 89.5737 109.889 94.8079 107.662 96.6047C106.802 97.3008 105.677 97.7433 104.634 98.4286C101.17 100.706 100.928 102.163 97.7271 102.314C96.2533 102.389 92.2136 101.769 90.6966 100.976C89.0291 100.101 85.7263 96.9177 85.366 95.1856C85.0432 93.6477 86.3665 90.0918 87.1841 88.9424C87.9479 87.8686 89.1152 86.7732 89.4864 86.0232C90.0673 84.8522 90.6698 81.5876 90.6966 80.7243C90.7397 79.3429 90.4653 78.0479 90.4546 76.6665C90.4385 73.9954 91.2184 72.0205 90.0888 69.9808C89.4648 68.8423 88.2599 67.0076 88.2707 66.673C88.2761 66.5328 88.3137 66.4086 88.3675 66.2738C88.6795 65.5669 89.6047 64.6765 89.9651 63.824C90.1157 63.457 90.1318 61.5792 90.0027 60.8292C89.1959 56.1454 88.1846 57.1491 88.3245 61.1961C88.3567 62.0703 88.3675 63.1602 88.2707 63.4948C88.1739 63.8294 86.6785 64.9301 86.5762 65.2755C86.4041 65.8475 86.5762 69.0041 86.5762 69.0041C86.5762 69.0041 85.5219 67.4231 85.1239 67.1803C84.8926 67.04 84.6989 67.067 84.5161 67.0562C84.2632 67.0454 84.0266 66.9806 83.9082 67.0562C83.7468 67.1641 84.0158 68.3458 83.9082 69.166C83.7953 70.0294 80.6861 73.3803 79.7878 74.2275C79.578 74.4217 79.422 74.5458 78.981 74.5944C78.4108 74.6538 77.3618 74.5944 77.3618 74.5944V73.4235C77.3618 72.9001 77.3565 72.8029 77.2865 72.4414C77.0875 71.4323 76.6249 71.0492 75.7212 71.1464C75.3823 71.1841 75.3232 71.2597 75.1134 71.8802L74.1989 74.6538C74.1989 74.6538 73.6664 72.5439 73.3705 72.1608C73.1715 71.9018 72.4238 71.4593 72.1602 71.4917C71.9397 71.5241 71.7783 71.7345 71.6331 71.9773C71.2135 72.6788 70.9392 73.6339 70.4873 74.1465C70.1538 74.5243 68.4325 75.1664 67.4374 75.8085C65.6999 76.9201 64.7478 79.4184 65.0168 81.4042C65.431 84.4745 66.9371 85.0465 69.0135 86.7462C69.2609 86.9459 72.1172 90.1889 72.526 91.4408C73.0586 93.0704 71.5685 94.9697 70.3475 95.8601C69.6805 96.3457 66.6736 97.344 64.7747 98.1696C59.6431 100.398 58.1853 102.562 53.1397 99.9934C49.1323 97.9537 45.8618 94.7701 45.3884 90.4803C45.184 88.6456 45.3884 83.0176 45.3884 83.0176C45.3884 83.0176 46.8462 82.8395 47.6907 82.6129C49.5788 82.1111 50.0414 80.1415 50.4824 77.9561C51.1226 74.7887 51.7304 68.3728 55.0816 66.2036C55.4635 65.9554 55.8831 65.7773 56.3188 65.5453C56.5555 65.4212 56.7921 65.2755 57.0503 65.2053C57.4 65.1082 57.4968 65.0542 57.9971 64.628C60.2401 62.7448 63.9679 59.5827 64.85 59.151C66.9802 58.1096 70.3314 56.6958 70.5895 56.3559C70.8047 56.0699 70.9715 55.6328 70.8316 55.1418C70.6917 54.6507 70.2292 54.1705 70.1054 53.7334C69.8849 52.9402 70.8477 51.4671 71.079 50.5228C71.2512 49.8159 71.0199 49.3195 70.2076 49.0659C69.1318 48.7313 68.9973 50.9976 68.7768 51.7423C68.4648 52.7999 66.8995 55.1688 65.7484 55.9943C65.4364 56.221 65.2373 56.1292 65.0975 55.7947C64.5112 54.4241 65.4041 49.6972 65.8721 48.5748C66.5498 46.9398 67.3244 45.8067 66.0765 45.4128C65.1943 45.1376 64.6725 46.0873 64.1777 47.1125C63.5591 48.3914 62.6661 52.2171 61.8754 54.4079C60.4123 58.4603 57.556 59.8471 53.1881 64.056C52.7847 64.4445 52.4189 64.8222 52.0585 65.3456C51.7949 65.7341 51.5368 66.2036 51.5529 66.5004C51.5529 66.5435 51.5636 66.5867 51.5636 66.6299C51.5905 66.9213 50.7622 68.2271 50.1866 69.0365C49.7563 69.6463 49.0516 71.3568 48.9064 72.1554C48.5567 74.071 48.2985 77.26 48.2985 77.26C48.2985 77.26 47.6907 77.341 47.2442 77.26C46.9645 77.2061 46.1307 76.3913 45.7488 75.8031C43.8177 72.7813 42.8065 72.5547 42.7204 68.4591C42.7043 67.6713 42.7688 66.9213 42.7204 66.1227C42.6397 64.6388 41.2304 59.8309 41.026 57.7373C40.87 56.1508 41.1174 51.8232 41.6284 50.2746C42.2739 48.3104 42.9194 47.8895 42.3492 46.1088C41.935 44.8084 40.8754 43.2813 40.2944 41.7651C39.5198 39.747 39.111 36.9518 39.4338 34.9715C39.8695 32.2789 40.289 31.9335 40.0524 29.6132C39.692 26.0411 38.5193 22.021 40.1761 19.1612C40.6602 18.3248 43.5757 15.4811 45.5068 13.3281C46.3997 12.3298 48.5621 9.07602 48.901 8.22345C49.1592 7.57053 49.299 6.97697 49.6702 6.5237C49.7885 6.37801 50.0198 6.22152 50.3318 6.05964C62.6984 -0.259086 69.4707 2.37417 78.4538 4.04693L78.712 4.0955L78.8357 4.33832H77.0552C76.399 4.33832 76.3183 4.34371 76.2269 4.40846C75.8934 4.6351 75.6029 5.27183 75.6836 5.45529C75.9095 5.95712 78.0826 6.15677 78.3086 6.19994C79.1154 6.34563 80.0675 6.5291 80.3957 6.40499C80.4817 6.37261 80.5517 6.32405 80.6485 6.28088C81.0788 6.10821 84.2632 6.28088 84.2632 6.28088C84.2632 6.28088 83.0691 6.82588 82.2246 7.13345C81.4177 7.42484 80.9282 7.50038 80.2827 7.50038C79.0778 7.48959 77.0552 7.05791 76.6464 8.37453C76.555 8.67671 76.6249 8.91953 76.8885 9.08141C77.2704 9.31884 78.201 9.60483 78.201 9.60483C78.201 9.60483 77.7491 10.166 77.534 10.4412C77.335 10.6948 77.3134 10.8297 77.5125 11.1966C77.6039 11.3693 77.69 11.3855 78.3408 11.3423L85.3122 10.8783C85.3122 10.8783 84.4085 11.8442 83.9136 12.2435C83.7522 12.373 83.6339 12.4485 83.4725 12.5133C83.2573 12.5996 83.1605 12.605 82.5096 12.5618L79.5511 12.3676V13.2148C79.5511 13.5979 79.6211 13.6626 80.2343 13.8893C80.8099 14.0997 81.2671 14.2562 82.0201 14.3101C82.9292 14.3803 84.274 14.3101 84.274 14.3101C84.274 14.3101 83.2735 15.098 83.182 15.4055C83.1282 15.589 83.607 15.8426 83.7899 16.2581C83.9351 16.5927 83.9459 17.4344 83.9136 17.4722C83.6554 17.715 83.1282 17.4506 83.0476 17.1269C82.9776 16.8463 82.9454 16.2581 82.9454 16.2581C82.9454 16.2581 82.6065 16.3283 82.4612 16.2581C82.16 16.1124 82.6226 15.3516 82.0739 15.5296C81.6651 15.6645 81.2509 17.715 81.2509 17.715C80.9981 19.1234 80.6808 20.726 81.7996 21.0552C82.2999 21.2063 82.6065 21.2116 82.827 20.8771C83.0529 20.5264 83.0637 19.976 83.3058 19.6684C83.5102 19.4094 84.7366 19.2367 85.3014 18.8266C85.9254 18.368 86.076 17.6934 86.6785 17.7204C87.1303 17.7366 87.7005 18.1899 88.1577 18.2061C88.5235 18.2223 89.1367 17.796 89.1044 17.3481C89.0829 17.0891 88.7118 16.6736 88.8247 16.393C88.8893 16.2311 89.1152 16.1016 89.2712 15.9397C89.481 15.7239 89.5617 15.4541 89.7392 15.2868C89.9597 15.0764 90.3255 15.0386 90.702 15.044C90.9333 15.0494 94.2092 15.589 94.3437 14.4612C94.3544 14.3749 94.3329 14.2832 94.2845 14.2022C94.15 13.9918 93.8111 13.8623 93.7627 13.7004C93.7089 13.5331 94.2361 13.1446 94.5911 12.7669C94.7148 12.6428 94.8063 12.5079 94.8762 12.3514C94.973 12.1463 95.0591 12.1194 95.7154 12.1194H98.5448C99.1956 12.1194 99.2978 12.0924 99.5184 11.8604C100.094 11.256 100.051 11.1643 99.3516 10.7812C99.0074 10.5977 98.5717 10.3279 98.1413 10.2038C97.5604 10.0365 97.4958 9.98255 97.4958 9.66418V8.9627H95.3173C95.3173 8.9627 96.5599 8.27201 97.0063 7.97523C97.2269 7.82414 97.2484 7.76478 97.2538 7.38167C97.2538 7.14424 97.2538 6.77192 97.2538 6.77192H94.3437V6.28628H97.2592C97.9154 6.28628 98.0284 6.28088 98.4049 6.21073C99.0934 6.08123 99.6959 5.70351 99.6798 5.19089C99.6744 4.99663 99.5291 4.85094 99.1956 4.70525C98.4964 4.39767 96.9741 4.06852 96.9741 4.06852C96.9741 4.06852 98.2274 3.60446 99.1472 3.36703C103.832 2.16912 110.734 6.00029 114.499 8.29359C115.016 8.60656 120.674 12.0222 121.61 13.3335C122.191 14.1483 122.692 15.5944 123.186 16.1286C123.703 16.6898 124.477 17.1538 124.531 17.4236C124.58 17.6665 124.311 17.9309 124.397 18.4435C124.494 19.0425 125.026 20.0191 125.026 20.0191C125.026 20.0191 123.208 18.4219 122.148 17.8337C121.492 17.4722 120.992 17.3643 120.61 16.992C119.894 16.2959 120.007 15.9721 119.297 15.6753C118.937 15.5296 118.523 15.4703 118.168 15.276C117.646 14.9846 117.275 14.3857 116.823 14.0134C116.323 13.5979 115.435 13.2255 114.86 13.5763C114.472 13.8137 114.026 14.3317 114.026 14.3317C114.026 14.3317 114.967 15.1249 115.672 15.4001C116.344 15.6645 116.801 15.4595 117.124 15.643C117.442 15.821 117.711 16.5981 118.125 17.0513C118.426 17.3805 119.588 17.742 120.422 18.1845C121.395 18.6971 123.66 21.1523 124.273 22.5714C124.515 23.1218 124.784 23.942 124.784 23.942C124.784 23.942 123.563 22.9006 122.455 22.2045C120.911 21.2332 117.684 20.0731 117.221 19.6306C116.29 18.7457 115.634 17.7798 114.375 18.1899C114.123 18.2708 113.687 18.8536 113.73 19.0425C113.784 19.2529 115.564 20.1864 116.108 20.2835C116.377 20.3321 116.64 20.3645 116.775 20.4832C116.882 20.5803 116.904 20.7368 117 20.8825C117.167 21.1307 117.953 21.503 118.254 21.4761C118.469 21.4545 118.603 21.3304 118.722 21.3519C118.926 21.3897 119.174 22.1667 119.545 22.6902C119.835 23.0949 120.674 23.5751 121.239 23.9043C121.788 24.2226 122.39 24.8324 122.815 25.4853C123.213 26.1004 123.665 26.9422 123.665 26.9422C123.665 26.9422 123.482 26.899 123.316 26.8451C122.74 26.6616 121.643 25.577 120.873 25.2371C120.292 24.9781 119.136 24.9241 119.055 24.9943C118.905 25.1238 118.905 25.7011 119.055 26.0519C119.168 26.3163 119.346 26.4889 119.781 26.8181C120.384 27.2714 121.481 28.0322 121.481 28.0322C121.481 28.0322 120.594 28.3452 120.147 28.642C119.577 29.0197 119.738 29.4082 120.147 29.8561C120.583 30.3363 121.185 30.7086 121.605 31.313C122.729 32.948 122.541 35.2952 123.585 35.932C123.773 36.0453 124.058 36.0777 124.235 35.932C124.553 35.673 124.838 34.8959 124.838 34.8959C124.838 34.8959 126.236 35.8456 126.575 36.3367C126.699 36.5093 126.661 36.7036 126.478 36.9518C126.129 37.4213 125.655 38.1659 125.343 38.2684ZM100.998 44.9865C101.277 45.2509 101.627 45.4775 102.02 45.6664C102.988 46.1304 104.489 46.233 105.097 45.8822C105.14 45.8606 105.177 45.8337 105.22 45.8067L105.564 45.6016L105.317 45.3264C105.156 45.143 104.892 44.9055 104.666 44.6735C104.349 44.3498 104.317 43.6105 104.623 43.249C104.817 43.0223 105.059 42.8335 105.306 42.7741L105.538 42.7202C106.979 43.5242 108.039 44.4954 108.964 45.866C108.964 45.866 107.711 46.3463 106.678 46.6053C104.548 47.1341 102.332 46.7294 100.454 46.0171C99.4592 45.6394 98.2812 44.6843 98.0338 44.0422L98.2059 43.4432C98.335 43.0007 98.6147 42.5205 99.0396 42.0349C99.3731 41.6517 99.8895 41.3064 100.261 41.2362L100.659 41.1607L100.653 41.301C100.653 41.3712 99.1096 43.1842 100.998 44.9865ZM106.355 40.4322C105.495 40.0114 104.408 39.7577 102.87 39.7308C102.068 39.7146 101.24 39.8872 100.368 40.2973C100.105 40.4215 99.8626 40.5294 99.6475 40.5833C99.5507 40.6049 99.4646 40.6157 99.4054 40.5833C99.4216 40.5887 100.476 39.9304 101.38 39.5473C102.047 39.2613 103.563 39.148 104.473 39.2991C104.65 39.3315 104.822 39.3638 105.01 39.407C107.689 40.0168 111.153 42.677 112.105 44.8947C112.175 45.0566 112.17 45.1807 112.079 45.2671C111.794 45.5315 111.551 45.5369 111.331 45.3858C111.288 45.3642 110.605 42.5205 106.355 40.4322ZM133.175 48.6018C132.519 49.2223 130.626 51.9473 130.303 52.7352C129.663 54.2892 128.743 58.2175 128.743 58.2175L127.065 50.5282C126.925 49.8861 126.893 49.7997 126.715 49.627C126.086 49.0281 126.301 48.8284 126.79 48.5964C128.237 47.9273 128.512 48.1485 129.335 46.8967C130.529 45.089 131.314 42.7094 131.072 40.756C130.943 39.7146 130.518 38.7487 130.303 37.6587C129.959 35.8996 130.142 33.6333 129.819 32.0684C129.55 30.7734 128.964 29.6564 128.748 28.3937C128.307 25.7983 128.991 24.7352 128.124 22.593C127.619 21.3358 126.495 19.9004 126.188 18.9453C126.021 18.4381 126.01 16.5441 126.177 16.366C126.898 15.5728 129.545 18.8698 130.432 20.2835C132.196 23.0949 134.23 30.7356 134.553 32.7969C134.778 34.243 134.692 40.8747 134.407 44.9433C134.235 47.3391 134.165 47.6629 133.175 48.6018ZM145.569 43.9882C143.563 47.8032 142.003 47.8194 140.964 51.2782C140.136 54.0464 138.684 60.2248 138.302 60.759C138.13 61.0018 137.941 61.2447 137.941 61.2447C137.941 61.2447 138.382 58.3092 138.91 56.6257C139.297 55.3954 139.743 54.7641 139.878 53.6093C139.959 52.9078 139.867 52.2387 140.018 51.6344C140.244 50.7224 141.427 48.9202 141.432 48.5047C141.432 48.1647 140.943 47.1881 140.749 47.1449C140.663 47.1287 140.577 47.1449 140.475 47.188C139.835 47.4632 135.047 52.0876 134.542 52.2495C134.434 52.2819 134.343 52.2927 134.3 52.2495C134.181 52.1254 134.741 51.1487 135.15 50.3069C136.661 47.1773 136.892 40.2056 136.968 37.3727C137.091 32.9372 137.129 30.9946 135.392 26.2407C134.542 23.9097 133.315 21.0174 133.089 19.7979C133.062 19.6468 133.046 19.5173 133.089 19.431C133.159 19.3015 133.385 19.2961 133.67 19.431C134.176 19.6684 136.338 21.9563 136.338 21.9563C136.338 21.9563 135.731 22.2531 135.51 22.5121C135.359 22.6848 135.413 22.9168 135.51 23.1272C136.753 25.8522 139.27 33.2286 139.146 36.8115C139.055 39.353 138.006 44.6843 138.178 45.035C138.296 45.2833 138.883 45.9632 139.243 45.6826C139.657 45.3588 139.856 44.1123 140.211 44.3066C140.426 44.4199 140.695 45.0404 140.938 45.1969C141.18 45.3534 141.486 45.0296 141.691 44.7113C142.116 44.0368 142.557 41.8244 142.836 41.5492C142.998 41.3927 144.213 41.3927 144.638 41.5492C146.021 42.0618 146.37 42.4719 145.569 43.9882Z" fill="black"/>
<path d="M63.7801 39.8549C63.7801 39.8549 64.7161 39.3639 65.1141 38.8836C65.496 38.4196 65.8726 37.2055 65.8726 37.2055C65.8726 37.2055 62.3977 36.3691 60.628 36.2072C57.1638 35.8942 53.6459 37.1785 51.1769 38.7595C50.7788 39.0131 50.4023 39.2506 50.2086 39.5258C50.058 39.7362 50.058 40.2057 50.2086 40.3352C50.7035 40.7722 51.7417 40.2272 52.7529 39.6067C53.1295 39.3747 53.5544 39.1534 54.087 39.1211C54.3129 39.1103 54.5711 39.1211 54.5711 39.1211C54.5711 39.1211 49.7353 42.1698 48.5142 42.6446C47.5513 43.0224 46.2388 43.3299 46.0936 43.9829C46.0452 44.1879 46.1689 44.366 46.3357 44.4685C46.5132 44.5764 47.8472 44.3174 48.6971 44.2311C48.9876 44.2041 49.6384 44.1447 49.746 44.1825C49.6438 44.1501 50.6658 46.3355 52.0375 47.7223C52.527 48.2187 53.5491 48.7098 54.5442 48.985C55.2919 49.19 56.6098 49.2008 57.2553 48.9957C57.9653 48.7745 58.8152 48.386 59.2993 48.0461C59.8265 47.6737 60.4289 47.2097 61.1228 46.6377C61.2089 46.5675 61.3272 46.5514 61.4456 46.546C61.65 46.5352 62.3546 46.0819 62.8119 45.6664C64.5655 44.08 66.2437 42.3371 67.0237 41.2255C67.3034 40.8262 67.2927 40.3513 67.2927 40.3513C66.034 40.4755 64.9474 40.319 63.7801 39.8549ZM58.4494 47.0262C56.4538 48.4076 54.0977 47.7601 52.4947 45.947C52.0806 45.4776 51.5534 44.1124 51.2898 43.5134C52.3656 42.6932 53.3823 42.1428 54.6518 41.6896C54.9691 41.9378 55.152 42.4558 55.2973 43.0655C55.3887 43.4487 55.4479 43.7994 55.2973 44.0746C55.0122 44.598 54.4635 44.911 54.0439 45.1646L53.3715 45.5639L53.4415 45.6556C53.6244 45.8984 54.3452 46.438 55.2273 46.4704C56.5076 46.519 57.7663 45.7366 58.5678 44.7221C58.9066 44.2958 59.1917 43.5943 59.1756 43.2166C59.1379 42.3371 58.557 41.0097 58.6861 40.837C58.756 40.7399 58.912 40.7183 59.0734 40.837C59.3639 41.042 59.805 41.9486 59.8964 42.3748C60.359 44.5117 59.7727 46.1089 58.4494 47.0262Z" fill="black"/>
<path d="M77.109 28.9173C77.0499 28.9604 76.9853 29.009 76.9369 29.0684C76.8723 29.1493 76.8401 29.2248 76.598 29.8346L75.5007 32.6621L73.3652 38.7488C72.9294 39.9899 73.5696 40.3622 73.9407 39.6823L77.4049 33.4068L78.6528 30.3472C78.9056 29.7375 78.911 29.6457 78.7496 29.4353C78.131 28.6151 77.5125 28.6097 77.109 28.9173Z" fill="black"/>
<path d="M80.6219 28.9172C80.5251 29.0575 80.4122 29.2518 80.3476 29.4406C80.2669 29.6943 80.2562 29.7968 80.2346 30.4497L80.0518 36.8116L80.4821 45.823C80.4982 46.2277 81.1814 47.2907 81.3374 45.3427L82.042 36.7199C82.1496 34.5453 82.2948 32.1333 82.397 30.2878C82.4347 29.6295 82.4239 29.5378 82.2948 29.3651C81.7139 28.5719 80.907 28.5179 80.6219 28.9172Z" fill="black"/>
<path d="M86.4903 31.9012C86.1353 29.5917 85.8126 27.8218 85.6727 27.6977C85.549 27.5897 84.8874 27.525 84.1397 28.0646C83.6502 28.4153 83.747 29.0898 83.8976 30.3255C84.0644 31.7285 84.2688 33.2448 84.4893 34.7503L86.1461 41.4899C86.4312 42.6446 87.0982 42.6554 87.0336 41.4845L86.4903 31.9012Z" fill="black"/>
<path d="M36.3518 5.29334C33.7913 4.71597 27.2181 6.87438 25.2762 8.01293C23.2913 9.17308 21.2903 11.9412 19.8756 15.4055C16.6589 23.2837 18.3156 26.4241 19.3538 31.3345L19.2839 36.315L18.5201 42.3046C18.7836 41.819 19.5206 38.9645 20.0477 36.941C20.2898 36.0075 21.995 29.0088 22.2155 28.1455C22.7642 25.9871 28.1325 19.6521 32.7101 15.6105C33.4578 14.9522 34.0334 14.4126 34.2916 14.0942C34.8564 13.3982 37.8902 12.6859 38.3582 11.8711C38.923 10.8944 42.3871 5.84913 42.3603 5.44983C42.2849 4.5433 37.6105 5.57933 36.3518 5.29334Z" fill="black"/>
<path d="M67.5395 18.2708C66.0388 17.9578 63.1609 17.8823 61.714 18.1089C60.5144 18.2978 59.288 18.5784 58.1315 18.9129C54.6942 19.9112 51.6981 21.9131 51.967 23.0193C52.0154 23.2189 52.1123 23.37 52.2629 23.4779C52.4027 23.5751 53.7959 23.2729 55.1246 22.8412C56.5984 22.3664 59.2826 22.6523 60.6274 23.084C61.2083 23.2675 61.6924 23.5103 62.3218 23.5697C62.6822 23.602 65.56 23.0948 65.8881 22.2261C65.9366 22.0966 65.915 21.9617 65.9634 21.8699C66.0441 21.708 67.9645 21.8969 68.9596 22.021C69.6105 22.102 69.6965 22.0858 69.8472 21.8699L70.1807 21.3843L72.0472 21.8699C72.5421 21.9994 73.0639 21.7674 73.1069 21.4167C73.1392 21.1954 73.1607 20.9634 73.1499 20.7799C73.1123 19.3662 69.1102 18.5945 67.5395 18.2708Z" fill="black"/>
<path d="M61.02 12.4271C61.2944 12.4109 61.4611 12.4163 61.4665 12.4487C61.4826 12.5566 61.3159 12.7454 61.1868 13.0422C60.934 13.6412 61.445 13.9272 62.1604 14.0836C62.6122 14.1808 63.1071 14.0998 63.5643 13.9487C64.3551 13.6843 65.1888 13.1879 65.872 13.1124C67.5825 12.9235 69.3792 14.1106 69.8364 12.7077C70.03 12.1249 69.9117 11.7849 69.5943 11.5313C67.6632 9.98807 62.3863 10.123 60.5413 10.4359C59.7237 10.5762 57.2815 11.0565 56.2649 11.7742C56.0659 11.9144 55.8615 12.0871 55.7808 12.2382C55.7377 12.3138 55.7377 12.3839 55.7593 12.4487C55.8023 12.5782 58.4865 12.562 61.02 12.4271Z" fill="black"/>
<path d="M51.9989 33.779C52.7466 33.6873 54.3065 32.7754 55.0542 32.6836C56.0171 32.5703 57.4802 32.8078 57.4802 32.8078V33.4877C57.4802 33.7575 57.9159 34.0434 58.3247 34.038C58.4323 34.038 58.5399 34.0326 58.6421 34.0273C59.8739 33.9571 61.6436 33.0074 62.6172 33.3851C63.0045 33.5362 63.4026 33.9085 63.7791 34.0273C64.7312 34.3348 66.8775 33.002 66.9259 32.0847C66.9582 31.5559 65.6026 29.7212 65.2315 29.4083C63.408 27.8866 57.1682 29.6727 55.0542 30.5037C53.9192 30.9461 50.4927 32.0253 51.2404 33.4769C51.3857 33.7521 51.6331 33.8222 51.9989 33.779Z" fill="black"/>
<path d="M49.4822 54.6832C49.1702 55.2605 48.9496 56.1077 48.8582 57.1276C48.7829 57.9531 48.7775 59.1726 48.4601 59.1672C48.3095 59.1672 48.0944 58.8813 47.9061 58.5737C47.4489 57.8236 46.4268 54.3648 46.33 53.032C46.3139 52.7999 46.3031 52.5301 46.2977 52.2549C46.2117 46.6593 44.5764 51.7207 44.571 52.406C44.5549 53.4043 44.5603 54.613 44.6302 55.6652C44.6679 56.2264 45.4747 58.8327 46.0342 60.3598C46.33 61.1638 47.2552 62.0271 47.9115 62.1351C48.7022 62.2646 49.6113 62.0865 50.1976 61.2501C50.8915 60.268 50.913 57.3866 50.9238 55.5735C50.9238 54.9152 50.9023 54.8181 50.6656 54.5968C50.1169 54.0626 49.8426 54.0194 49.4822 54.6832Z" fill="black"/>
<path d="M45.4797 44.4738C45.6788 44.0043 45.6357 43.1949 45.7218 42.5312C45.7702 42.1697 45.8509 41.8567 45.9638 41.5599C46.3727 40.5185 47.669 38.959 47.7551 38.468C47.8143 38.1442 46.7707 36.0398 45.9638 34.2699C44.9687 32.0737 44.3985 28.6688 44.6298 26.4889C44.7428 25.4312 45.044 23.6344 45.4797 22.8412C45.6303 22.566 45.8348 22.2422 46.0445 21.9346C46.5502 21.19 44.5868 20.4399 44.022 21.1414C43.4841 21.8105 43.1075 22.3933 42.8117 23.0894C42.5051 23.8016 41.7251 29.7319 41.7197 31.3507C41.7197 32.4083 42.2845 35.6459 42.5696 36.2125C43.3604 37.7881 43.8552 38.1982 43.5863 39.1641C43.355 39.9897 42.6987 41.452 42.688 42.051C42.688 42.1535 43.1936 44.1284 43.6616 44.6033C44.3394 45.2886 45.2646 44.9864 45.4797 44.4738Z" fill="black"/>
<path d="M66.3615 60.7591C64.7047 61.4606 63.1716 65.567 62.4455 66.835C60.2508 70.6608 59.3148 69.9539 55.5387 73.0351C54.1616 74.1574 53.2902 76.3698 52.7523 78.2638C51.9885 80.9402 51.9562 83.8217 49.428 84.8361C47.3087 85.6833 46.3081 85.7049 46.8138 88.2356C47.384 91.0901 49.7508 93.8259 52.6555 95.353C53.9572 96.0383 56.7544 96.9394 57.7172 96.9825C58.352 97.0095 60.4875 96.5131 61.3535 96.13C62.6176 95.5742 64.624 94.8134 65.2265 94.7918C66.1732 94.7594 66.7864 94.9968 67.4104 94.549C67.76 94.2953 68.1957 93.6424 68.1419 93.459C68.0989 93.3241 67.6901 93.0435 67.3727 92.9409C67.1199 92.86 67.0177 92.8546 66.3668 92.8978L60.5413 93.2863C59.885 93.3295 59.7452 93.3241 59.0943 93.2161C55.6893 92.6496 53.5 90.4534 52.2682 87.9874C51.4775 86.4064 51.8917 86.5467 53.2364 85.311C54.4414 84.1994 55.9206 80.5517 56.3886 79.4779C56.6952 78.7764 57.0502 78.0641 57.4805 77.654C57.9055 77.2493 61.6278 75.9327 62.4508 75.3446C64.3282 73.9956 64.8015 71.7562 65.1189 69.5115C65.3071 68.1787 66.1086 65.3565 66.5712 64.4068C66.9316 63.6676 67.362 62.9769 67.5395 62.2215C67.6417 61.7844 67.7546 60.9156 67.6578 60.7645C67.5664 60.608 66.7272 60.608 66.3615 60.7591Z" fill="black"/>
<path d="M90.0297 92.8492C89.594 92.86 87.8566 93.6154 87.7974 93.8205C87.7221 94.0849 89.3627 96.4375 90.6752 97.3495C92.6386 98.7093 94.7365 98.3855 97.2216 97.5923C98.7063 97.1174 99.0021 96.9609 99.7121 95.9735C103.461 90.7447 103.746 87.4747 102.434 80.7027C102.203 79.4994 101.934 78.3663 101.466 77.2979C100.869 75.9435 99.9542 74.7024 99.4055 73.2832C98.8354 71.7939 98.6148 69.9755 98.0769 68.7884C97.5605 67.6552 96.7052 66.7594 96.2265 65.5777C95.78 64.4823 95.5111 62.1674 95.0915 60.7861C94.8441 59.9767 94.3384 58.9082 93.7144 59.0593C93.424 59.1295 93.0098 59.5288 92.999 59.7446C92.8699 65.8529 94.5697 66.2522 96.6192 70.9737C97.9263 73.9793 98.7654 81.8035 98.0554 84.7174C97.4475 87.2103 94.6988 92.3527 91.8156 92.8492C91.2293 92.9463 90.6376 92.833 90.0297 92.8492Z" fill="black"/>
<path d="M72.2567 79.9635C71.2401 80.0444 70.3256 80.5354 70.0782 81.8629C69.8253 83.2335 71.4337 85.5807 72.9399 86.2013C74.9032 87.0107 76.3448 84.9008 76.6246 83.4223C77.1678 80.4977 74.871 79.753 72.2567 79.9635Z" fill="black"/>
<path d="M101.708 128.824C101.622 128.711 101.541 128.214 101.487 127.594C101.057 122.651 100.293 116.079 99.9597 114.503L99.5724 112.696C99.9113 112.107 100.175 111.892 99.2927 111.945C96.2212 112.124 91.2832 114.174 90.6808 116.748C90.2935 118.41 91.5199 125.085 91.649 125.786C91.9126 127.216 92.2138 128.63 92.6172 129.92C93.5209 132.812 96.7807 131.797 99.8898 131.134C101.019 130.891 102.784 130.535 101.982 129.159C101.907 129.024 101.794 128.943 101.708 128.824ZM99.4057 129.31C98.0394 129.893 96.8936 130.195 96.3772 129.31C96.0868 128.824 95.1938 124.826 95.6511 124.205C95.877 123.892 96.8506 123.649 97.3455 123.234C98.3998 122.349 98.2707 119.543 96.9851 118.734C96.7699 118.599 96.5117 118.502 96.2535 118.448C95.9039 118.378 95.8178 118.367 95.3552 118.367H94.317C94.317 118.367 94.3009 118.038 94.317 117.784C94.3977 116.548 95.8931 116.235 97.1787 115.933C97.9641 115.755 97.991 115.987 98.2007 117.153C98.3245 117.86 98.4966 118.701 98.6687 119.543C98.814 120.234 99.1529 123.747 99.3465 126.509C99.3626 126.682 99.3788 126.833 99.411 126.963C99.8306 128.657 100.347 128.911 99.4057 129.31Z" fill="black"/>
</svg>