<?xml version="1.0" encoding="utf-8"?>
<svg width="88" height="87" viewBox="0 0 88 87" fill="none" xmlns="http://www.w3.org/2000/svg">
<path d="M86.8267 48.2138C86.6493 47.9471 86.4825 47.6949 86.3643 47.425C86.0149 46.6228 85.6612 42.1479 85.8141 41.3169C85.8663 41.0375 86.0617 40.5404 86.2699 40.0147C86.8159 38.6359 87.1836 37.6092 86.9407 36.9655C86.6626 36.2283 85.8419 35.6433 85.1817 35.1723C84.9944 35.0383 84.816 34.9115 84.7001 34.8138C84.2862 34.2604 83.0107 29.0347 83.0657 28.1062C83.0778 27.918 83.1011 27.6743 83.1262 27.4162C83.2713 25.9307 83.3424 24.7548 82.835 24.2401C82.5163 23.9169 81.9169 23.7315 81.2244 23.5185C80.6232 23.3331 79.9432 23.1239 79.6635 22.8619C79.0454 22.2801 77.18 19.3097 76.7555 18.489C76.6034 18.1956 76.6311 17.5771 76.6565 17.0322C76.6926 16.2362 76.7289 15.4134 76.3093 14.9154C75.8416 14.3598 74.9883 14.3161 74.1619 14.2743C73.703 14.2514 73.2298 14.2265 72.9491 14.1097C72.1534 13.7759 68.2971 10.8613 67.7889 10.2104C67.6076 9.97775 67.4558 9.39207 67.3092 8.82615C67.0526 7.83446 66.7855 6.8104 66.1233 6.38608C65.4128 5.93271 64.0816 6.26397 62.9085 6.5569C62.4486 6.67198 61.8181 6.8271 61.6569 6.80085C61.0839 6.68559 57.5774 5.27449 56.8892 4.95578C56.7624 4.88852 56.4372 4.46659 56.1991 4.15825C55.5435 3.30539 54.7279 2.24516 53.7301 2.09998C52.6678 1.94359 51.6825 2.56602 51.0322 2.97743C50.8268 3.10688 50.5926 3.25585 50.4992 3.28029C50.149 3.35491 47.7742 3.17664 46.4999 3.07971C45.6665 3.0164 45.0087 2.9669 44.7666 2.96518C44.7648 2.96516 44.7631 2.96515 44.7613 2.96514C44.5875 2.93521 44.0742 2.49939 43.7355 2.21006C42.9191 1.51565 41.9904 0.728986 41.1396 0.843086C40.0375 0.993058 39.2257 1.92516 38.6327 2.60417C38.4465 2.81804 38.1897 3.1121 38.0926 3.15983C37.2724 3.50368 33.223 4.55264 32.582 4.65568C32.4079 4.68493 31.7909 4.44204 31.3832 4.28313C30.4712 3.92517 29.4358 3.51971 28.6968 3.79779C27.911 4.09347 27.4446 5.13383 27.0328 6.05084C26.825 6.51561 26.61 6.99467 26.4257 7.19062C25.9288 7.72148 22.1107 9.26702 21.2309 9.42574C20.9831 9.47061 20.6359 9.38027 20.2671 9.28619C19.5458 9.10174 18.649 8.873 17.8448 9.48775C17.0533 10.0918 16.9066 11.303 16.7885 12.2759C16.7447 12.6396 16.6837 13.1395 16.604 13.2555C16.2834 13.7123 12.2805 17.2901 11.6838 17.7306C11.5955 17.7873 11.2332 17.8027 10.9928 17.8117C10.243 17.8423 9.21879 17.8834 8.6709 18.7743C8.18286 19.5689 8.41765 20.5963 8.60545 21.4225C8.70457 21.8572 8.81762 22.3511 8.74798 22.5622C8.51524 23.2653 6.29147 27.0692 5.83686 27.7025C5.74631 27.8274 5.25544 28.0122 4.93 28.1336C4.07412 28.4557 3.00789 28.8552 2.85395 29.8243C2.67753 30.9294 3.17189 32.2725 3.43753 32.9953C3.47449 33.0942 3.5044 33.1751 3.52547 33.238C3.59645 33.8482 2.86736 39.2909 2.62793 39.9258C2.57674 40.0636 2.26489 40.2909 2.01612 40.4738C1.42304 40.9107 0.61004 41.5075 0.707008 42.498C0.793982 43.3809 1.31976 44.0876 1.74251 44.6573C1.95389 44.9404 2.15104 45.2072 2.23917 45.423C2.48944 46.038 3.07345 51.1673 3.17265 52.348C3.19241 52.5956 3.01679 53.0839 2.84666 53.5561C2.53935 54.4057 2.19358 55.3698 2.48045 56.134C2.83067 57.0672 3.72788 57.4896 4.32125 57.77C4.47852 57.8446 4.62865 57.9156 4.71075 57.97C5.15354 58.495 7.22943 63.3856 7.3617 63.9514C7.38764 64.0861 7.26945 64.5676 7.18447 64.9185C6.93697 65.9317 6.62675 67.192 7.36127 67.7961C7.87472 68.2194 8.59203 68.4702 9.22706 68.6917C9.68321 68.8509 10.1143 69.0028 10.3766 69.1822C10.9406 69.5682 13.5004 72.4789 14.4645 73.5743C14.6388 73.7728 14.7794 73.9316 14.8719 74.0362C15.0356 74.2203 15.0147 74.6272 14.9919 75.0592C14.9526 75.7978 14.8988 76.8088 15.9283 77.2859C16.8327 77.7048 17.9921 77.8314 19.017 77.9427C19.5366 78.0002 20.0276 78.0539 20.3588 78.1369C21.2699 78.3694 24.7941 80.575 25.5647 81.1472C25.7734 81.3029 25.9324 81.6393 26.1002 81.9956C26.4147 82.6613 26.8069 83.4872 27.8075 83.7436C28.7634 83.9871 29.8127 83.6987 30.6554 83.4661C31.0723 83.3508 31.4675 83.2424 31.7168 83.2406C31.7222 83.2406 31.7258 83.2406 31.7312 83.2407C32.5076 83.2462 36.6013 84.2956 37.4601 84.5707C37.6533 84.6331 37.904 84.9379 38.144 85.2337C38.6222 85.8199 39.216 86.545 40.1951 86.552C40.2274 86.5522 40.2578 86.5524 40.2919 86.5509C41.3126 86.5097 42.2331 85.9245 43.0455 85.4066C43.4076 85.1761 43.7499 84.958 44.0377 84.8345C44.7932 84.5081 47.9063 84.749 49.4029 84.8654C49.6323 84.8832 49.842 84.899 50.0266 84.9129C50.7292 84.9627 51.3726 85.265 51.9964 85.5563C52.7202 85.895 53.403 86.2137 54.0837 86.0697C54.8793 85.9014 55.4085 85.1179 55.8742 84.4272C56.108 84.0792 56.3744 83.6866 56.5653 83.575C57.1433 83.2384 60.113 82.4758 61.9378 82.0674C62.5485 81.9301 63.1669 81.9721 63.7638 82.0122C64.5847 82.0683 65.4343 82.1263 66.2066 81.6961C67.1032 81.1985 67.5175 80.1757 67.8516 79.3532C68.0012 78.9849 68.1418 78.638 68.2719 78.4883C68.733 77.9571 71.767 75.4646 72.5069 75.052C72.7392 74.9228 73.2348 74.8187 73.7611 74.7094C74.7416 74.5066 75.8533 74.276 76.5408 73.6676C77.315 72.9827 77.3349 71.6971 77.3487 70.7593C77.3525 70.4868 77.3587 70.1192 77.3936 69.9993C77.5511 69.7942 77.9969 69.1374 78.6928 68.1077C79.5247 66.8745 80.5613 65.3414 80.867 64.9706C81.0388 64.7602 81.5319 64.5198 82.0088 64.2883C82.7933 63.9047 83.6823 63.4717 84.0602 62.7822C84.478 62.0213 84.142 60.8515 83.8445 59.8182C83.7238 59.3995 83.5611 58.8281 83.5909 58.6705C83.7335 58.026 84.6345 54.6396 85.0646 53.416C85.2257 52.9581 85.7323 52.5708 86.221 52.1977C86.8863 51.6877 87.5751 51.1618 87.6007 50.3317C87.6269 49.4174 87.2011 48.7777 86.8267 48.2138ZM85.2186 46.3822C83.8459 46.7562 81.6597 46.0287 81.3704 45.6106C81.2817 45.4809 81.3205 45.3198 81.4488 44.9226C81.6047 44.4377 81.8192 43.774 81.6665 42.8099C81.5121 41.8297 81.6385 41.445 81.7723 41.2953C81.8374 41.2223 81.9654 41.1282 82.3275 41.1433C82.9406 41.1692 84.2729 41.175 84.9275 41.1761C84.8057 41.9069 84.9497 44.605 85.2186 46.3822ZM83.4818 34.1542C83.0844 34.5567 81.2155 35.3647 80.6519 35.1814C80.5428 35.1465 80.5188 34.7393 80.4965 34.3464C80.4438 33.4315 80.3658 32.0501 79.3101 30.461C79.067 30.0952 78.9991 29.8114 79.1063 29.6167C79.2516 29.3541 79.8482 28.9226 82.2472 28.9791C82.2526 28.9791 82.2562 28.9792 82.2615 28.9792C82.469 30.3202 82.9885 32.6641 83.4818 34.1542ZM78.283 22.5777C78.2383 22.8087 77.8552 23.4659 77.3391 23.9285C77.0702 24.1704 76.82 24.3032 76.6623 24.2859C76.4329 24.2592 76.4329 24.2592 76.2363 23.9224C75.9989 23.5173 75.6002 22.8384 74.4304 21.668C74.0725 21.3104 73.9276 21.001 73.9993 20.7504C74.0913 20.4301 74.568 19.9636 76.3085 19.5671C76.3157 19.5654 76.3229 19.5637 76.33 19.5619C76.8244 20.3993 77.6295 21.6728 78.283 22.5777ZM71.9398 14.5634C71.841 15.5938 71.531 16.8325 70.6452 17.3176C70.2096 17.5566 69.5444 16.7879 68.9574 16.1095C68.712 15.8262 68.4807 15.5574 68.2474 15.3369C68.0176 15.1183 67.7787 14.923 67.5487 14.7348C66.8534 14.165 66.4293 13.7908 66.4491 13.2745C66.4688 12.7707 67.5187 12.1416 68.2578 11.8545C68.2596 11.8545 68.2614 11.8528 68.2614 11.8528C69.3775 12.7663 70.9687 13.9468 71.9398 14.5634ZM37.6634 4.25604C37.7656 4.50782 37.8886 4.86555 37.9985 5.29133C38.2341 6.20219 38.2359 6.7079 38.1777 6.82404C38.1176 6.94915 37.6153 6.98323 37.1721 7.01416C36.3863 7.06775 35.3098 7.14258 34.1639 7.65807C33.7447 7.84697 33.5752 7.72741 33.5181 7.68755C33.3218 7.54987 33.0185 7.07429 33.1071 5.46279C34.0967 5.24567 36.364 4.65925 37.6634 4.25604ZM26.5657 8.19045C27.3069 8.86281 27.4081 9.50193 27.4516 10.1998C27.4773 10.6178 26.9412 10.8561 26.2903 11.1025C26.0368 11.1994 25.8192 11.2821 25.6678 11.3868L25.5867 11.4436C25.1614 11.7401 24.3667 12.2939 23.8974 11.966C23.5441 11.7196 23.1931 10.6358 22.9982 9.80234C24.2082 9.35366 25.7281 8.70454 26.5657 8.19045ZM16.8657 14.2849C16.8675 14.2849 16.8693 14.2867 16.8693 14.2867C18.1633 14.8877 18.4557 16.3871 18.3587 16.9101C18.3307 17.0641 18.1867 17.151 17.8159 17.3402C17.3624 17.5719 16.7414 17.8903 16.1674 18.677C15.5825 19.4798 15.2225 19.6602 15.0216 19.6713C14.9247 19.676 14.7671 19.6533 14.5215 19.3862C14.1318 18.9602 13.3947 18.2215 12.9798 17.8097C14.0695 16.8742 15.9627 15.1841 16.8657 14.2849ZM4.35105 34.4023C4.38168 34.3828 4.41053 34.3597 4.43405 34.3312C4.58708 34.2462 5.26383 34.1488 6.14941 34.1891C7.10132 34.2318 7.74385 34.4067 7.88624 34.5584C7.97523 34.6522 7.82022 35.0152 7.6561 35.3995C7.30596 36.2202 6.77532 37.4591 6.93774 39.3324C6.97594 39.7613 6.89863 40.0423 6.70767 40.1646C6.45186 40.3296 5.71591 40.4302 3.66875 39.3181C3.90006 38.0591 4.21872 35.8647 4.35105 34.4023ZM8.35461 56.4609L8.3564 56.4609C8.77958 56.4639 9.01409 57.5307 9.16866 58.2384C9.27463 58.7197 9.36491 59.1364 9.51742 59.3778C9.91635 60.0172 10.2538 60.979 9.88725 61.5897C9.62954 62.02 8.51768 62.2793 7.71185 62.3722C7.1374 60.9443 6.22007 58.811 5.64085 57.8027C6.28026 56.9034 7.16925 56.4632 8.35461 56.4609ZM4.73275 45.7922C5.77826 45.5342 6.36078 45.5742 6.49644 45.663C6.66066 45.77 6.65931 46.2111 6.65713 46.7706C6.65287 47.6224 6.6473 48.9099 7.19506 50.5618C7.34603 51.0184 7.33654 51.3447 7.16486 51.5299C6.96789 51.7419 6.33823 52.0262 4.32974 51.5295C4.18832 51.4944 4.08091 51.4686 3.98385 51.5001C3.85111 50.2439 3.57624 47.7924 3.32695 46.2825C3.60773 46.1374 4.1076 45.9473 4.73275 45.7922ZM32.0852 82.3806C31.8882 81.8287 31.6191 80.3366 31.7372 79.3601C31.7867 78.9552 31.8823 78.877 31.8841 78.877C32.032 78.7651 32.4397 78.9222 32.9565 79.1231C33.772 79.4391 35.006 79.9159 36.7721 79.9482C37.2257 79.9568 37.5207 80.0773 37.6518 80.3095C37.8519 80.6642 37.8568 81.4892 36.7421 83.409C36.7366 83.4197 36.7312 83.4286 36.7257 83.4394C35.3744 83.0747 33.1333 82.5136 32.0852 82.3806ZM44.6223 83.8183C44.052 82.8225 44.0323 81.8056 44.5691 80.712C44.7892 80.2652 45.85 80.3911 46.5523 80.4732C46.9232 80.5171 47.2421 80.5552 47.4772 80.5318C47.5526 80.5234 47.6369 80.515 47.7267 80.5031C48.3764 80.4252 49.4658 80.2967 49.8153 80.8371C50.0955 81.2695 49.8349 82.8619 49.5383 83.9805C49.515 83.9786 49.4935 83.9766 49.4702 83.9747C47.5722 83.8285 45.7797 83.7117 44.6223 83.8183ZM61.7396 81.1963C61.7037 81.205 58.8802 81.843 57.1907 82.3851C56.4042 81.2606 56.5897 79.1387 56.9515 78.6857C57.0493 78.5627 57.2161 78.5549 57.6321 78.5615C58.1413 78.5705 58.8388 78.5844 59.7169 78.1603C60.6112 77.7291 61.0146 77.7391 61.1969 77.8247C61.2863 77.8666 61.4129 77.9607 61.5019 78.311C61.6519 78.8967 62.0809 80.3541 62.3051 81.107C62.1185 81.1254 61.93 81.1528 61.7396 81.1963ZM77.9468 67.6092C77.6423 68.059 77.3342 68.5158 77.0932 68.8674C76.8067 68.8062 76.2737 68.6159 75.6555 68.2959C74.8104 67.8577 74.3006 67.4291 74.2338 67.2314C74.1706 67.0426 74.4294 66.7109 74.7877 66.2526C75.3089 65.5856 76.0979 64.5798 76.6851 62.9504C76.7766 62.6964 76.933 62.3872 77.1591 62.3655C77.3978 62.3403 78.1154 62.5535 79.6203 65.0263C79.6345 65.0515 79.6486 65.0731 79.6628 65.0947C79.2009 65.755 78.5466 66.7223 77.9468 67.6092ZM82.9277 57.6186C81.7993 57.9262 80.7987 57.6787 79.8737 56.8652C79.8149 56.8128 79.743 56.5935 79.8469 56.0975C80.1049 54.8692 81.1626 53.1552 81.6317 53.0061C82.0019 52.8904 82.9717 53.7006 83.7542 54.6118C83.4584 55.6193 83.1379 56.8041 82.9277 57.6186ZM85.6755 51.489C85.5889 51.5548 85.5024 51.6223 85.414 51.6916C84.3353 52.0856 83.5158 51.5723 82.7232 51.0717C82.1697 50.7235 81.6484 50.3952 81.0657 50.3857C81.0603 50.3857 81.0531 50.3856 81.0478 50.3856C80.6013 50.3824 80.2543 50.5019 80.0195 50.7423C79.6058 51.1626 79.6262 51.8298 79.6467 52.4755C79.6512 52.6047 79.6556 52.7356 79.6547 52.8629C79.6573 53.5067 79.2485 54.5062 78.8525 55.4736C78.6646 55.9331 78.4711 56.4069 78.3082 56.8666C78.1289 57.3729 78.0417 57.7775 78.1973 58.0978C78.3599 58.4325 78.6998 58.5479 79.172 58.7091C79.4565 58.8061 79.8089 58.927 80.2253 59.1272C81.1778 59.5859 82.1021 60.2362 82.7159 60.6656C82.9515 60.8304 83.1121 60.9446 83.2353 61.019C83.3587 61.5614 83.4214 62.0801 83.2724 62.3534C83.0871 62.691 82.6008 62.9852 82.0825 63.2523C80.052 62.8237 79.3328 61.8215 78.7486 61.0068C78.3829 60.4967 78.0668 60.0551 77.5209 59.9131C76.4451 59.6311 76.2064 60.4221 75.9034 61.4223C75.7253 62.0093 75.5031 62.7393 75.0738 63.6024C74.115 65.5323 73.2764 66.4517 72.8734 66.8935C72.7794 66.9969 72.7035 67.0788 72.6492 67.1502C72.6274 67.1787 72.5895 67.2143 72.5516 67.2517C72.418 67.3798 72.1977 67.5953 72.2456 67.922C72.3004 68.2846 72.6401 68.6815 74.1231 69.4399C75.6114 70.2018 76.204 71.1062 76.4231 71.5651C76.3795 72.144 76.2678 72.7152 75.9466 72.9999C75.6218 73.2863 75.086 73.4779 74.5237 73.6228C74.4184 73.5628 74.3201 73.5119 74.2308 73.4647C73.659 73.1665 73.3142 72.9865 72.2373 71.0996L72.124 70.9015C71.6918 70.1399 71.4545 69.7204 71.0481 69.6314C70.8386 69.5851 70.6266 69.6427 70.3995 69.8061C70.1922 69.9553 70.0709 70.114 69.9297 70.2995C69.7632 70.5171 69.5352 70.8132 69.0298 71.2758C68.7716 71.5125 68.4469 71.7899 68.1041 72.0834C66.9494 73.0722 66.1806 73.7518 66.0179 74.1864C65.709 75.018 65.6961 75.5613 65.981 75.8502C66.0896 75.9604 66.2344 76.017 66.3905 76.0181C66.4711 76.0187 66.5555 76.005 66.64 75.9733C66.9942 75.8467 67.3791 75.4352 67.4278 74.894C67.4608 74.5355 67.8424 73.8281 69.4767 72.4823C69.9691 72.0769 70.2823 71.9088 70.7205 71.824C70.9625 72.0875 71.337 73.3885 71.5813 74.5971C70.4187 75.4245 68.081 77.3482 67.5964 77.906C67.3686 78.168 67.208 78.565 67.0218 79.0227C66.728 79.7505 66.3921 80.573 65.7728 80.9183C65.4217 81.113 65.0233 81.1622 64.5822 81.1591C63.6706 80.2416 63.1649 78.7227 63.0829 76.6402C63.0615 76.1128 62.8264 75.8852 62.6317 75.7852C62.1296 75.5306 61.335 75.8083 59.9782 76.7168C59.1097 77.297 58.6646 77.3494 57.9288 77.4374C57.5788 77.478 57.1822 77.5254 56.6649 77.6364C55.3969 77.909 55.3367 78.3102 55.352 79.4347C55.3592 79.9369 55.3669 80.6238 55.2506 81.5984C55.0561 83.2289 54.9523 83.9509 54.9016 84.2697C54.59 84.7122 54.2518 85.1241 53.8998 85.1987C53.8046 85.2195 53.6988 85.2188 53.5877 85.2036C52.7535 83.9855 52.5576 82.2841 52.4124 81.017C52.3482 80.4588 52.2925 79.9778 52.1983 79.6042C52.1145 79.2808 51.9369 79.0446 51.6689 78.901C50.9847 78.5375 49.8988 78.9243 49.0268 79.2355C48.7859 79.3217 48.5576 79.4026 48.3797 79.4515C47.7581 79.6228 46.6866 79.4915 45.6492 79.364C45.1565 79.3031 44.6495 79.2403 44.162 79.2063C43.6243 79.1667 43.2135 79.1888 42.9446 79.4236C42.6649 79.6673 42.6426 80.0276 42.6104 80.5241C42.5921 80.8235 42.568 81.1963 42.484 81.6494C42.292 82.6881 41.9078 83.7523 41.6535 84.4571C41.4651 84.9776 41.3901 85.1887 41.4088 85.3322C41.0273 85.516 40.6391 85.6478 40.2588 85.663C39.8929 85.6765 39.6054 85.4988 39.3045 85.1989C38.9794 83.0017 39.36 81.9338 39.6435 81.1468C39.8137 80.671 39.9618 80.2614 39.9242 79.7572C39.8424 78.6502 39.0173 78.6766 37.9734 78.7122C37.3599 78.733 36.5958 78.758 35.6427 78.6311C34.1468 78.4322 33.4214 78.0523 32.8408 77.7469C32.3977 77.5142 32.0154 77.3142 31.4616 77.2636C31.2287 77.2423 31.0461 77.1907 30.8994 77.1485C30.6757 77.0841 30.4448 77.0197 30.2268 77.1598C29.9152 77.3602 29.8548 77.783 29.6266 79.3523C29.3947 80.952 29.0262 82.0827 28.8282 82.6892C28.7971 82.7841 28.7714 82.8646 28.7493 82.9397C28.5018 82.9505 28.2598 82.938 28.0342 82.8808C27.6816 82.7905 27.4554 82.5719 27.2674 82.2854L27.2552 82.2333C27.0189 81.17 26.8486 80.4031 28.2691 76.8375C28.3823 76.5513 28.3736 76.2626 28.2445 76.0034C27.852 75.2206 26.4541 74.8466 25.2227 74.5169L24.9775 74.4506C24.2186 74.2443 23.3996 73.6647 22.7412 73.1991C22.2006 72.8169 21.8081 72.5397 21.4982 72.4837C20.5544 72.3138 20.1499 73.4587 19.9541 74.0096C19.848 74.3083 19.5371 74.6594 19.2876 74.9409C18.9315 75.3419 18.6983 75.6074 18.8055 75.9094C18.8389 76.0011 18.9328 76.1614 19.2015 76.2046C20.3551 76.3903 21.0323 75.7244 21.527 75.2402C21.7239 75.0479 21.9279 74.8467 22.059 74.8208C22.6032 74.7116 23.7398 75.0102 24.9533 75.5801C26.006 76.0736 26.4018 76.6556 26.2773 77.5227C26.1509 78.3987 25.3516 79.3416 25.0155 79.7051C23.6142 78.8056 21.4089 77.4881 20.5855 77.2778C20.1934 77.1782 19.6953 77.1226 19.1183 77.0611C18.1633 76.9575 17.081 76.8386 16.3106 76.4817C16.1927 76.427 16.1071 76.3583 16.0413 76.2735C16.109 76.0911 16.1431 75.8349 16.151 75.4799C16.1591 75.0908 16.5788 74.0663 16.984 73.0739C17.7359 71.2394 18.2164 69.9857 18.0615 69.3283C17.8004 68.2146 17.3914 67.975 16.4914 67.4504C16.4057 67.3995 16.3128 67.3469 16.2146 67.2888C15.4467 66.835 15.1194 66.2086 14.8027 65.6039C14.7019 65.4113 14.5975 65.2115 14.484 65.026C14.2571 64.6585 13.9859 64.4593 13.6813 64.4339C13.1938 64.3909 12.7623 64.8039 12.4025 65.212C12.2489 65.3867 11.8207 65.5737 11.4448 65.7396C10.8314 66.0078 10.2521 66.2619 10.1002 66.6984C10.038 66.8773 10.0545 67.0675 10.1501 67.2457C10.3872 67.6957 10.9142 67.4681 11.4233 67.2494C11.8334 67.0729 12.3442 66.856 12.7582 66.8912C13.3586 66.9439 13.9158 67.2581 14.4088 67.536C14.6464 67.6704 14.8714 67.7957 15.0806 67.8815C15.5777 68.0823 15.8843 68.3481 16.0181 68.6933C16.2012 69.1662 16.0816 69.8522 15.6611 70.7297C15.1241 71.852 14.6523 72.1302 14.442 72.1987C12.8374 70.385 11.389 68.7949 10.8839 68.4506C10.5235 68.2041 10.0387 68.0339 9.52352 67.8545C8.93321 67.6477 8.32323 67.4353 7.93279 67.1134C7.78839 66.994 7.77627 66.6801 7.81832 66.3146C8.4917 65.177 9.70852 64.5329 10.7039 64.0074C11.2457 63.7208 11.7137 63.4748 12.0529 63.1832C12.3127 62.9591 12.4564 62.6803 12.4767 62.3523C12.5334 61.4364 11.5796 60.3913 10.9479 59.6982C10.875 59.6188 10.8074 59.5448 10.7487 59.478C10.416 59.1026 10.2513 58.3088 10.0797 57.4666C9.93936 56.7806 9.79199 56.0694 9.53294 55.4274C9.31971 54.9004 9.1621 54.6196 8.8847 54.5423C8.61625 54.4668 8.39812 54.6285 8.16557 54.799C7.90598 54.9908 7.54904 55.2555 6.93093 55.4286C5.91751 55.7137 4.73659 55.8488 3.95408 55.94C3.72435 55.9671 3.54847 55.9874 3.41205 56.0061C3.38018 55.9485 3.34831 55.8909 3.32545 55.828C3.20929 55.5187 3.30956 55.0352 3.46367 54.5468C5.41494 53.508 6.35058 53.5685 7.10698 53.6187C7.54253 53.6487 7.95477 53.6767 8.42967 53.4685C9.44781 53.0238 9.14663 52.2559 8.768 51.2813C8.54433 50.7095 8.26783 49.9992 8.07012 49.0545C7.76143 47.5765 7.87835 46.7685 7.97443 46.1183C8.04609 45.6238 8.10829 45.1975 7.97226 44.6568C7.64787 43.3687 6.48959 43.599 5.93469 43.7098C5.8413 43.7288 5.7551 43.7462 5.67792 43.7564C3.847 44.0106 2.72935 43.8215 2.25293 43.7392C2.22786 43.7354 2.201 43.7299 2.17592 43.7261C1.89901 43.326 1.65285 42.8903 1.60599 42.4184C1.56912 42.0559 1.82038 41.7743 2.23517 41.4455C4.23464 40.9415 4.92815 41.2602 5.49298 41.5189C5.76646 41.6446 6.04708 41.7739 6.41647 41.7765C6.51688 41.7772 6.62454 41.769 6.73945 41.7483C7.80421 41.5568 7.8347 41.0513 7.89144 40.1336C7.91989 39.6622 7.95855 39.0169 8.13347 38.1233C8.52051 36.1481 8.94955 35.0752 9.18138 34.4994C9.27266 34.2723 9.33839 34.1078 9.37164 33.97C9.38086 33.9342 9.39913 33.8877 9.41743 33.8358C9.4832 33.6641 9.59464 33.3762 9.4137 33.0987C9.21324 32.7925 8.73778 32.5757 7.07231 32.5101C5.12897 32.4335 4.19997 31.6898 3.87731 31.4204C3.75528 30.9281 3.67652 30.4039 3.74594 29.9723C3.81164 29.5585 4.47358 29.2745 5.07234 29.0474C5.0813 29.0493 5.08846 29.0511 5.09742 29.0512C5.37524 29.0711 5.59585 29.0655 5.78954 29.0615C6.43343 29.0463 6.82263 29.0365 8.6778 30.1651L8.87421 30.2849C9.49198 30.6641 9.88122 30.9017 10.2237 30.9042C10.2936 30.9047 10.3637 30.8944 10.4319 30.8752C10.6368 30.8139 10.7957 30.6608 10.9141 30.407C11.0233 30.1764 11.0534 29.9776 11.0873 29.7483C11.1287 29.4778 11.1833 29.107 11.4031 28.4576C11.5149 28.1248 11.6648 27.726 11.822 27.3039C12.3539 25.8803 12.6979 24.9126 12.6295 24.4548C12.4976 23.577 12.2446 23.0946 11.8581 22.9807C11.6326 22.9145 11.3953 22.9935 11.2218 23.1895C10.9741 23.4711 10.8357 24.0171 11.0546 24.5153C11.1993 24.8445 11.2079 25.6498 10.4282 27.6186C10.1944 28.2105 10.0004 28.5104 9.65947 28.7967C9.31241 28.6795 8.32065 27.6843 7.51332 26.7264C8.34818 25.3246 9.41972 23.4224 9.61028 22.8499C9.75873 22.4009 9.63526 21.8584 9.49089 21.2298C9.3309 20.5275 9.15005 19.7336 9.44579 19.2497C9.67439 18.8765 10.1019 18.7756 10.6742 18.7348C10.7757 18.8413 10.9048 18.844 10.9855 18.8446C12.0865 18.856 13.1966 20.3559 13.9337 21.611C14.1923 22.0522 14.4983 22.1494 14.7153 22.151C14.7224 22.151 14.7296 22.1511 14.735 22.1511C15.2981 22.139 15.8674 21.519 16.6362 20.0791C17.1287 19.1573 17.4946 18.9016 18.1037 18.4774C18.3921 18.275 18.7201 18.0478 19.1242 17.7046C19.2342 17.6121 19.3316 17.5321 19.4164 17.4628C20.1902 16.8281 20.1771 16.6504 19.7266 15.7022C19.5552 15.3423 19.322 14.8475 19.0296 14.103C18.1666 11.8948 18.0282 11.4455 18.0072 11.3611C17.9988 11.2821 17.9599 11.2065 17.8958 11.1523C17.9991 10.7477 18.154 10.3973 18.4028 10.2072C18.767 9.92827 19.1739 9.95448 19.7468 10.0859C20.7607 10.7404 21.3172 11.6643 21.8135 12.4874C21.9996 12.7953 22.1751 13.0871 22.3598 13.3359C22.4557 13.4639 22.6411 13.623 22.9816 13.6452C23.0067 13.6471 23.0318 13.6473 23.0569 13.6475C23.819 13.6529 24.9445 12.9992 25.4105 12.5219C25.7573 12.1693 26.5286 11.895 27.2764 11.6296C27.6342 11.503 28.0046 11.3712 28.3499 11.2248C29.2492 10.8438 29.342 10.6562 29.0175 9.88457C28.9276 9.66874 28.8024 9.37555 28.6797 8.9712C28.4011 8.05645 28.245 7.05471 28.1404 6.39046C28.1129 6.21812 28.0923 6.08348 28.0734 5.97575C28.3556 5.37163 28.6827 4.77143 29.0315 4.6412C29.4181 4.49511 30.2516 4.80051 30.9168 5.06167C31.7445 6.43581 31.852 7.2005 31.9305 7.77131C31.9782 8.11954 32.0191 8.4211 32.1925 8.75229C32.3747 9.10147 32.5926 9.22675 32.8365 9.22849C33.1216 9.23051 33.4455 9.06246 33.7947 8.88203C34.1853 8.67858 34.6713 8.42739 35.3272 8.22404C35.8664 8.05751 36.5588 8.02836 37.2297 7.99906C38.0835 7.96388 38.8907 7.92838 39.336 7.59979C39.6893 7.33869 39.5963 6.80185 39.4963 6.23627C39.4653 6.0621 39.4343 5.88255 39.4175 5.71566C39.2667 4.23695 39.5952 3.1723 39.7309 2.74827C40.17 2.27976 40.7005 1.81729 41.2767 1.73889C41.6501 1.68954 42.2798 2.15668 42.8289 2.61069C43.2298 3.22145 43.4953 3.96036 43.4322 6.53681C43.4269 6.7699 43.5098 6.97492 43.6754 7.12852C44.2045 7.62722 45.4749 7.51969 46.5963 7.42545L46.8152 7.40728C47.5024 7.35298 48.3474 7.55625 49.0259 7.71888C49.4842 7.82973 49.8368 7.91472 50.0915 7.91653C50.1435 7.9169 50.1919 7.91366 50.235 7.90679C51.0465 7.77628 51.03 6.81498 51.0207 6.35225C51.0171 6.11193 51.1611 5.77403 51.2778 5.50049C51.4383 5.12505 51.555 4.8533 51.3915 4.64771C51.3399 4.58458 51.2205 4.48152 50.9907 4.52471C50.0067 4.70063 49.6577 5.37241 49.4031 5.86375C49.2977 6.06564 49.1977 6.2586 49.0986 6.31348C48.6846 6.54366 47.6636 6.63503 46.495 6.54603C45.4788 6.46887 44.9771 6.15149 44.8187 5.48327C44.695 4.96773 44.8826 4.31273 45.0489 3.87815C45.3733 3.8966 45.8841 3.9361 46.4523 3.97779C49.1282 4.17972 50.3847 4.25142 50.7549 4.15004C50.9795 4.08708 51.2226 3.93459 51.5307 3.73952C52.1017 3.37955 52.8835 2.88658 53.6215 2.99225C54.1159 3.06391 54.6588 3.64161 55.1227 4.21695C55.1648 4.35175 55.2336 4.50825 55.3309 4.69544C55.4707 4.96004 55.1613 5.86164 54.9378 6.51997C54.5697 7.59868 54.2217 8.61657 54.6683 9.11647C55.1238 9.62361 55.5661 9.71104 56.1248 9.81902C56.4507 9.88231 56.8196 9.95487 57.2882 10.1286C57.8015 10.3187 58.3658 10.6527 58.9105 10.9757C59.4355 11.2861 59.9301 11.5801 60.3166 11.6977C60.4633 11.7417 60.5959 11.7642 60.716 11.7651C60.8953 11.7663 61.0499 11.719 61.1797 11.6231C61.5186 11.3727 61.5671 10.8601 61.5686 10.3921C61.57 10.1931 61.694 9.91061 61.8143 9.6371C61.9966 9.22236 62.1697 8.83266 62.0322 8.49993C61.9863 8.39022 61.8834 8.24065 61.6563 8.15475C61.2395 7.99757 61.0554 8.41767 60.9333 8.69476C60.8167 8.95933 60.6727 9.29006 60.3788 9.50316C59.7642 9.95069 59.5312 9.92931 58.999 9.61709C58.7544 9.47368 58.316 9.33786 57.8078 9.18003C57.271 9.01303 56.0167 8.62395 55.9665 8.37253C55.9799 7.99963 56.6689 6.94472 57.0006 6.43779C57.0985 6.28606 57.1747 6.17004 57.2345 6.07543C58.5022 6.60448 60.927 7.57034 61.5036 7.68562C61.8349 7.75254 62.3198 7.63942 63.148 7.43191C63.9456 7.23315 65.2786 6.90191 65.6642 7.14674C65.8641 7.27369 66.0267 7.61018 66.1637 8.00926C66.1219 8.08607 66.1121 8.20615 66.1322 8.41431C66.1587 9.72357 65.5359 10.553 64.9331 11.3575C64.6108 11.7856 64.3067 12.1905 64.1367 12.6394C63.7292 13.7142 64.4578 14.139 65.3793 14.6764C65.8293 14.9396 66.3919 15.2664 67.0018 15.7459C67.469 16.1133 68.2494 17.071 68.8752 17.8412C69.2965 18.3589 69.6289 18.7683 69.8213 18.9472C69.9585 19.0737 70.1266 19.1394 70.3149 19.1408C70.3543 19.1411 70.3938 19.1395 70.4333 19.1327C71.1369 19.0426 71.8894 18.1298 72.2249 17.6032C73.0373 16.3286 73.8972 15.6999 74.3118 15.3962C74.4163 15.3198 74.4974 15.2594 74.557 15.1971C75.0302 15.2309 75.4763 15.2969 75.6434 15.4953C75.775 15.6523 75.8029 16.0255 75.8 16.4253C74.5083 18.2758 73.7799 18.5736 73.1954 18.8116C72.8447 18.9525 72.5138 19.0883 72.1792 19.4876C71.4575 20.354 71.9919 20.8635 72.7329 21.5699C73.1372 21.9547 73.6395 22.4353 74.2064 23.1513C75.3368 24.5777 75.4351 24.8761 75.5386 25.1943C75.5895 25.3471 75.6457 25.5214 75.7926 25.7932C75.9377 26.0615 76.1571 26.2387 76.4274 26.3034C76.5061 26.3219 76.5868 26.3315 76.6675 26.332C77.261 26.3363 77.9025 25.8943 78.2666 25.6422L78.2864 25.628C79.3046 24.9269 80.1451 24.4882 80.7883 24.3188C80.8527 24.339 80.9189 24.3592 80.9834 24.3794C81.4629 24.5262 82.0588 24.7098 82.219 24.8723C82.3507 25.006 82.3705 25.5046 82.3524 26.0353C82.3144 26.0745 82.2765 26.1155 82.2403 26.1565C81.9837 26.438 81.5572 26.9084 80.9325 27.241C80.1603 27.6534 79.2404 27.8943 78.5703 28.0707C78.2469 28.1562 77.9918 28.2226 77.8245 28.2913C77.6447 28.3636 77.5649 28.4885 77.5302 28.5815C77.4206 28.8659 77.5673 29.1664 77.8607 29.7656C78.1258 30.3091 78.5252 31.1296 78.8953 32.2979C79.4951 34.1958 79.5613 35.2292 79.5999 35.8481C79.6144 36.0903 79.6257 36.2662 79.6677 36.4117C79.7306 36.6417 79.8451 36.9258 80.1632 37.0877C80.3133 37.1641 80.4959 37.203 80.7129 37.2046C81.1074 37.2074 81.6175 37.0855 82.272 36.8391C83.3994 36.4113 84.5757 36.4305 85.2068 36.4385C85.2786 36.439 85.3413 36.4413 85.4005 36.4399C85.7303 36.7112 86.0223 37.0038 86.1279 37.2843C86.2265 37.545 86.0063 38.2518 85.7613 38.9136C85.7019 38.9365 85.6497 38.972 85.6028 39.0075C84.7358 39.6343 83.2578 39.6848 81.2101 39.1538C80.7 39.0211 80.4119 39.1822 80.2601 39.3389C79.8699 39.7468 79.907 40.5863 80.3836 42.148C80.6886 43.1472 80.6101 43.5878 80.4812 44.3168C80.4196 44.6642 80.3504 45.0564 80.3072 45.5851C80.2012 46.8791 80.5694 47.0521 81.6503 47.3628C82.1317 47.5008 82.792 47.692 83.693 48.0839C85.8669 49.0336 86.2814 49.2518 86.3564 49.2971C86.3974 49.3297 86.4457 49.348 86.4976 49.3573C86.6444 49.6453 86.7391 49.9472 86.7275 50.3094C86.6906 50.7126 86.1966 51.0893 85.6755 51.489Z" fill="black"/>
<path d="M75.9176 34.5898C75.883 34.4102 75.4741 32.6517 75.1968 32.0579C74.5838 30.7481 72.874 26.8285 72.5833 26.3619C71.3687 24.4202 70.1235 22.4979 68.4781 20.8723C67.9902 20.3882 67.5637 19.8419 67.1083 19.324C64.9809 17.3936 62.7574 15.6007 60.1143 14.3213C60.1866 14.7396 60.2407 15.2081 60.5025 15.4646C60.9495 15.9035 61.5428 16.1857 62.044 16.573C63.542 17.7331 65.1611 18.7811 66.4804 20.1211C68.0578 21.7265 69.5013 23.5013 70.7648 25.3645C71.8722 26.9989 72.675 28.8444 73.5644 30.6189C74.0825 31.6537 74.8864 34.3565 74.9125 34.4678C75.1384 35.4755 75.3752 36.4796 75.6101 37.4855C75.715 38.121 75.836 38.7531 75.9194 39.3903C76.2817 42.1527 76.2135 44.9318 75.7727 47.6597C75.4519 49.6444 74.7765 51.5763 74.1818 53.5088C72.8179 57.941 70.32 61.7034 67.1296 65.0162C64.483 67.7643 61.4403 69.9681 57.9624 71.5824C54.436 73.2197 50.749 74.2515 46.8928 74.6007C43.7274 74.8866 40.5596 74.7691 37.4538 73.9956C36.8434 73.8443 35.6562 73.6009 34.5022 73.2304C32.8955 72.7133 31.3311 72.0549 31.2668 72.0221C30.9576 71.88 30.6483 71.7398 30.3391 71.5977C30.3391 71.5977 30.0961 71.4686 30.0604 71.4451C30.0068 71.416 29.1333 70.9436 28.8205 70.7997C28.7473 70.7489 28.6742 70.6964 28.601 70.6457C28.4492 70.5639 28.2974 70.4803 28.1455 70.3986C27.2725 69.8526 26.3832 69.3316 25.5265 68.7588C23.2277 67.2218 21.2741 65.3071 19.4886 63.2106C19.4459 63.1619 19.4032 63.1132 19.3587 63.0663L19.3551 63.0644C19.3178 63.0176 19.2805 62.9707 19.2431 62.9238L19.2361 62.9094C18.9768 62.5489 18.7158 62.1884 18.4565 61.8279C18.4067 61.7755 18.3586 61.7232 18.3088 61.6726C18.275 61.6365 18.2394 61.6004 18.2055 61.5643C18.1807 61.5336 18.163 61.4994 18.1543 61.4617C18.108 61.413 18.0635 61.3642 18.0172 61.3137L18.019 61.3173C17.9925 61.2651 17.5439 60.541 17.503 60.4941L17.4995 60.4905C17.3576 60.2707 17.2157 60.0491 17.072 59.8293C17.0277 59.7573 16.9834 59.6852 16.939 59.6132C16.8185 59.4115 16.698 59.2098 16.5757 59.0063C15.8665 57.6169 15.1051 56.2504 14.4643 54.8291C14.2595 54.3758 13.5674 52.5902 13.1003 50.4439C12.5463 47.9025 12.2231 44.9324 12.1749 44.1466C12.1027 42.9518 12.1149 41.7468 12.1736 40.5511C12.3115 37.7923 12.9617 35.1286 13.7837 32.5019C14.4132 30.9803 15.0445 29.4606 15.674 27.939L15.6849 27.9211C15.7174 27.8819 15.7482 27.8445 15.7807 27.8052C15.8785 27.6804 15.9744 27.5556 16.0721 27.4307C16.3994 26.7982 16.7267 26.1675 17.0539 25.5369C17.2077 25.3497 17.365 25.1643 17.5134 24.9735C18.7514 23.3629 19.9253 21.6946 21.2525 20.1618C21.9287 19.3812 22.8794 18.8392 23.7071 18.1906C23.9812 17.9702 24.2554 17.7515 24.5277 17.5311C25.4674 17.0267 26.1549 16.1726 27.1622 15.7369C28.1209 15.324 28.9844 14.6954 29.9273 14.2394C31.0267 13.7075 32.1581 13.2331 33.2946 12.7839C34.3754 12.3558 35.4474 11.9026 36.6178 11.7334C38.5349 11.4565 40.4419 11.0953 42.3607 10.8399C43.1308 10.7378 43.9265 10.8044 44.7082 10.8261C45.4666 10.8494 46.2277 10.9858 46.9794 10.9409C47.7114 10.8977 48.3946 11.1518 49.0625 11.2875C51.1271 11.7092 53.1783 12.2618 55.1747 12.9412C56.8009 13.4944 58.3391 14.3033 59.8997 14.9904C60.1384 14.2121 59.684 13.8071 58.9795 13.517C57.9317 13.0882 56.8985 12.6199 55.8544 12.1821C53.5462 11.2153 51.1295 10.6261 48.6703 10.2051C48.3193 10.1452 47.4069 10.0868 47.2672 10.0696C46.5845 9.98408 45.8949 9.88055 45.2098 9.88464C43.829 9.89097 42.4427 9.90443 41.0664 10.022C39.8499 10.1263 38.6204 10.2789 37.4401 10.5808C35.8179 10.9943 34.2357 11.5658 32.6397 12.0763C30.9754 12.6078 26.8947 15.0212 26.6118 15.2147C26.3469 15.3957 26.011 15.4722 25.7426 15.6514C25.1426 16.0507 24.5657 16.4823 23.9799 16.9014C23.7994 17.0579 23.619 17.2162 23.4385 17.3745C22.7042 18.0041 21.9556 18.6211 21.2444 19.2759C21.0513 19.4539 18.9898 21.618 18.3991 22.7238C18.3362 22.9978 18.3927 23.3694 17.9181 23.2961L17.9145 23.2978C17.8224 23.3832 17.7303 23.4687 17.6383 23.5541L17.6401 23.5487C17.5857 23.6308 17.5313 23.7147 17.4787 23.7968L17.4787 23.7986C17.4389 23.8486 17.4009 23.8967 17.3611 23.9466L17.3593 23.9484C17.3124 23.9857 17.2655 24.0249 17.2204 24.0622C16.9847 24.4228 16.749 24.7833 16.5134 25.1439C16.1191 25.8584 15.7249 26.5729 15.3289 27.2892C15.1895 27.48 15.05 27.6709 14.9088 27.8618C14.2758 29.3672 12.8171 32.7604 12.797 32.8231C11.6663 36.4894 11.082 40.2296 11.2788 44.0739C11.3261 44.987 11.4165 45.8968 11.5033 46.8066C11.5901 47.7092 12.3278 51.1414 12.3239 51.1862C12.3672 51.4053 12.4087 51.6225 12.452 51.8416C12.6372 52.5226 12.7451 53.2371 13.0221 53.8774C13.7137 55.4783 14.4646 57.0564 15.2317 58.6219C15.4668 59.1024 15.8315 59.5192 16.1367 59.9643C16.169 59.97 16.1756 60.0525 16.1484 60.0882C16.1338 60.1311 16.2502 60.4045 16.2997 60.4999C16.6922 61.0389 17.0829 61.5778 17.4754 62.1168C17.6849 62.4034 17.8746 62.706 18.1059 62.9731C19.0823 64.1008 20.0715 65.2178 21.057 66.3385C21.1637 66.4612 21.2686 66.5821 21.3753 66.7048C21.4076 66.7032 21.4326 66.7159 21.4504 66.7429C21.5629 66.8083 21.6917 66.8558 21.7843 66.9408C24.3318 69.3206 27.1783 71.2524 30.3364 72.7364C33.0942 74.031 36.0006 74.8425 38.9793 75.3442C42.454 75.9284 45.9687 75.9391 49.443 75.3307C53.3248 74.6518 57.0156 73.3474 60.4616 71.4173C63.3945 69.774 66.0557 67.754 68.2616 65.2017C69.5526 63.7064 70.7938 62.1533 71.9118 60.5276C73.5154 58.1934 74.6403 55.6066 75.4933 52.9048C76.1593 50.7989 76.7464 48.6709 76.8482 46.4551C76.9396 44.4474 77.0903 42.4221 76.9359 40.4269C76.7867 38.4676 76.2965 36.5292 75.9176 34.5898Z" fill="black"/>
<path d="M24.836 21.1234L24.6866 20.9466L23.256 22.1559L23.4054 22.3327C23.5767 22.1886 23.7042 22.1662 23.786 22.2636L26.9034 25.9512C26.987 26.0504 26.9431 26.1721 26.7717 26.3161L26.921 26.4929L30.7854 23.2244C30.8648 23.1586 30.9333 23.1053 30.991 23.068C31.0486 23.0308 31.1006 23.0383 31.145 23.0906L31.3218 22.9413L30.4469 21.9057L30.2701 22.0551C30.3252 22.1218 30.3426 22.1937 30.3205 22.2742C30.2985 22.3548 30.2477 22.4279 30.1701 22.4955L27.5073 24.7451L24.7314 21.4616C24.6514 21.3642 24.6845 21.2515 24.836 21.1234Z" fill="black"/>
<path d="M31.1486 16.845L31.037 16.6416L29.3107 17.5762L29.4204 17.7796C29.541 17.7141 29.6327 17.6825 29.6918 17.6847C29.751 17.6869 29.7974 17.7177 29.831 17.7789L32.1285 22.0255C32.1603 22.0867 32.1617 22.1423 32.1309 22.1923C32.1001 22.2441 32.0243 22.3028 31.9019 22.3682L32.0116 22.5717L33.738 21.6371L33.6283 21.4337C33.4159 21.5487 33.2796 21.5495 33.2176 21.4361L30.9202 17.1895C30.86 17.0743 30.9361 16.9601 31.1486 16.845Z" fill="black"/>
<path d="M41.5653 18.9345C41.5239 18.945 41.4809 18.9411 41.4344 18.921C41.3898 18.901 41.3596 18.8578 41.3421 18.7913L40.158 14.0828C40.1423 14.0163 40.1498 13.9679 40.1805 13.9377C40.213 13.9074 40.249 13.8879 40.2921 13.8757L40.2364 13.6511L38.4704 14.0959L38.5262 14.3204C38.5927 14.303 38.6355 14.3337 38.6547 14.4074C38.6617 14.4326 38.656 14.4809 38.6376 14.5507C38.6191 14.6223 38.5951 14.7154 38.562 14.83L37.7288 18.0232L35.492 15.59C35.4083 15.5051 35.3442 15.4383 35.3015 15.3914C35.2588 15.3444 35.234 15.3048 35.2253 15.2707C35.2061 15.1952 35.2387 15.147 35.3231 15.1261L35.2655 14.9016L33.5248 15.3393L33.5806 15.5638C33.638 15.5499 33.6811 15.552 33.7096 15.5719C33.7364 15.5919 33.7646 15.6602 33.7942 15.777L34.947 20.3597C34.9697 20.4514 34.9692 20.5141 34.9475 20.5463C34.9239 20.5784 34.8933 20.605 34.8537 20.6227L34.9095 20.8472L36.3251 20.4915L36.2693 20.2651C36.1274 20.3018 36.0398 20.2563 36.0084 20.1306L35.1243 16.6131L35.1368 16.6096L38.1413 20.0346L38.2419 20.0102L39.3819 15.5423L39.407 15.5353L40.293 19.0528C40.3495 19.1716 40.2898 19.2536 40.1155 19.2972L40.1713 19.5218L41.6246 19.1573L41.5653 18.9345Z" fill="black"/>
<path d="M44.9952 13.8606L44.9969 13.6275L43.0351 13.6207L43.0335 13.852C43.1715 13.853 43.2665 13.868 43.3165 13.8989C43.3682 13.9297 43.393 13.9783 43.3943 14.0483L43.3761 18.8773C43.3756 18.9455 43.3502 18.9955 43.298 19.0256C43.2457 19.0557 43.1506 19.0694 43.0143 19.0702L43.0144 19.3034L44.9762 19.3101L44.9779 19.077C44.7376 19.0753 44.6161 19.0117 44.617 18.8826L44.6352 14.0535C44.6325 13.9244 44.7531 13.8607 44.9952 13.8606Z" fill="black"/>
<path d="M49.9662 15.2285L51.6137 15.5523C51.6818 15.5653 51.7408 15.5944 51.7942 15.6396C51.8459 15.6848 51.8652 15.7459 51.8503 15.8211L52.0777 15.8658L52.3643 14.4081L52.1368 14.3635C52.1145 14.4817 52.0691 14.5567 52.0008 14.5867C51.9324 14.6167 51.866 14.6252 51.7979 14.6121L47.287 13.7283C47.219 13.7152 47.16 13.6807 47.1102 13.6284C47.0586 13.5742 47.0449 13.488 47.069 13.3699L46.8416 13.3252L46.5551 14.7829L46.7825 14.8275C46.7974 14.7523 46.8372 14.7024 46.9037 14.6796C46.9684 14.6585 47.0366 14.6536 47.1028 14.6666L48.7503 14.9904L47.9223 19.2094C47.9093 19.2774 47.8785 19.322 47.8299 19.3432C47.7814 19.3644 47.7365 19.3712 47.6953 19.362L47.6506 19.5894L49.2838 19.9094L49.3285 19.682C49.1762 19.6523 49.1122 19.5747 49.1383 19.4475L49.9662 15.2285Z" fill="black"/>
<path d="M52.0158 20.1706C51.9866 20.2331 51.9451 20.2687 51.8931 20.2773C51.841 20.2859 51.7962 20.282 51.7569 20.262L51.6568 20.4711L55.9354 22.5063C56.0283 22.55 56.1051 22.5918 56.1622 22.6299C56.2211 22.6662 56.2333 22.7201 56.2005 22.7916L56.4096 22.8917L56.9922 21.6674L56.7831 21.5673C56.7503 21.637 56.6926 21.6779 56.61 21.6916C56.5274 21.7054 56.4397 21.6886 56.3468 21.6449L53.3621 20.225L54.0157 18.8488L55.7171 19.6589C55.8726 19.7335 55.9887 19.8007 56.0653 19.8604C56.142 19.9202 56.1469 19.9883 56.0836 20.0614L56.316 20.1724L56.904 18.9375L56.6949 18.8374C56.6548 18.9232 56.5972 18.9604 56.5273 18.9509C56.4556 18.9415 56.3537 18.9049 56.2214 18.8412L54.4253 17.9874L54.9805 16.8221L57.8257 18.1747C58.067 18.2894 58.1522 18.4209 58.0812 18.5675L58.2903 18.6676L58.9056 17.3737L58.6965 17.2735C58.6292 17.4129 58.4766 17.4262 58.2354 17.3115L54.098 15.3418L53.9979 15.5509C54.0372 15.5691 54.0692 15.6016 54.0958 15.6466C54.1224 15.6917 54.1202 15.7472 54.0893 15.808L52.0158 20.1706Z" fill="black"/>
<path d="M57.5104 22.9465C57.4255 23.0427 57.3072 23.0258 57.1593 22.8956L57.0056 23.0702L59.7376 25.4765C60.119 25.8127 60.4958 26.036 60.868 26.1462C61.2402 26.2565 61.5986 26.2877 61.9397 26.2381C62.2807 26.1885 62.6026 26.0707 62.9052 25.8845C63.2078 25.6984 63.4784 25.469 63.717 25.1981C63.9556 24.9272 64.1479 24.6273 64.2918 24.302C64.4358 23.9766 64.51 23.6382 64.5124 23.2904C64.5149 22.9425 64.4349 22.5887 64.2707 22.2271C64.1065 21.8654 63.8346 21.5174 63.4551 21.1812L60.7623 18.8075L60.6087 18.9821C60.7566 19.1123 60.788 19.2273 60.7031 19.3235L57.5104 22.9465ZM61.2826 20.5399L62.5425 21.6499C62.7421 21.8271 62.9238 22.0059 63.0839 22.1881C63.244 22.3704 63.3519 22.5684 63.4042 22.7804C63.4565 22.9942 63.4441 23.2272 63.3616 23.483C63.2809 23.7371 63.0977 24.0263 62.8121 24.3507C62.5264 24.675 62.2612 24.8955 62.0129 25.0139C61.7646 25.134 61.5276 25.1826 61.3035 25.1648C61.0795 25.1453 60.8649 25.0703 60.6578 24.9397C60.4507 24.8091 60.2473 24.6552 60.0477 24.4798L58.7878 23.3698L61.2826 20.5399Z" fill="black"/>
<path d="M27.3519 63.6529C27.8554 63.9365 28.3331 64.069 28.7829 64.0506C29.2345 64.032 29.6403 63.8044 30.0019 63.3677C30.2385 63.0827 30.3874 62.8017 30.4502 62.5227C30.513 62.2455 30.5022 61.9677 30.4177 61.691C30.3333 61.4144 30.1862 61.1418 29.9728 60.8717C29.7612 60.6015 29.4959 60.3348 29.1769 60.0716L25.7758 57.2555L25.6274 57.434C25.8192 57.5923 25.8661 57.733 25.7678 57.8526L22.0303 62.3684C21.932 62.488 21.7851 62.467 21.5933 62.3087L21.445 62.4873L23.1655 63.912L23.3139 63.7335C23.2018 63.6401 23.1355 63.56 23.1169 63.4947C23.0983 63.4294 23.114 63.3673 23.164 63.3065L24.6304 61.5366L26.0527 62.7129L25.8619 65.171C25.8551 65.2882 25.8466 65.3786 25.8365 65.444C25.8263 65.5093 25.8098 65.5589 25.7813 65.5913C25.7548 65.6254 25.7104 65.6337 25.6519 65.6177C25.5915 65.6018 25.5319 65.5698 25.473 65.5197L25.3246 65.6982L27.1838 67.238L27.3322 67.0594C27.279 67.0162 27.2269 66.9602 27.1742 66.8954C27.1214 66.8305 27.0996 66.7439 27.109 66.639L27.3519 63.6529ZM25.2735 60.7581L26.4916 59.2863L28.2121 60.7111C28.4514 60.9094 28.634 61.0916 28.7635 61.2593C28.8929 61.427 28.975 61.5834 29.013 61.7265C29.051 61.8696 29.0525 62.0025 29.0191 62.125C28.9857 62.2476 28.923 62.3613 28.8365 62.4675C28.7482 62.5739 28.6473 62.6541 28.5343 62.7118C28.4194 62.7695 28.2897 62.7923 28.1416 62.7804C27.9936 62.7702 27.8248 62.7165 27.6354 62.6228C27.4459 62.5272 27.2316 62.3812 26.9941 62.1828L25.2735 60.7581Z" fill="black"/>
<path d="M36.2199 66.4108L36.7739 65.09L36.5596 64.9997C36.4987 65.142 36.3473 65.1626 36.0997 65.0583L31.8732 63.2858L31.7829 63.5001C31.8217 63.5174 31.856 63.5475 31.884 63.5906C31.9121 63.6355 31.912 63.6894 31.8855 63.7522L30.0182 68.206C29.9919 68.2706 29.9529 68.3072 29.9015 68.3178C29.8501 68.3283 29.805 68.3258 29.7643 68.3087L29.674 68.523L34.0429 70.3563C34.1371 70.3969 34.215 70.4332 34.2766 70.4687C34.3363 70.5026 34.3524 70.5572 34.3228 70.6274L34.5371 70.7177L35.0615 69.4671L34.8472 69.3768C34.8178 69.4488 34.7613 69.492 34.6798 69.5099C34.5981 69.526 34.5094 69.5156 34.4133 69.4751L31.3654 68.1976L31.9552 66.7918L33.6934 67.52C33.8523 67.5869 33.9713 67.6475 34.0505 67.7052C34.1296 67.7612 34.1394 67.8289 34.0779 67.9065L34.3162 68.0061L34.8453 66.7444L34.631 66.6541C34.5935 66.741 34.5404 66.7821 34.4681 66.7743C34.3958 66.7682 34.293 66.7353 34.1582 66.6794L32.3239 65.9107L32.8234 64.7192L35.7291 65.9377C35.9748 66.0403 36.0658 66.1692 36.0037 66.3188L36.2199 66.4108Z" fill="black"/>
<path d="M42.4118 72.1454L42.6105 70.8045L42.3801 70.771C42.3676 70.8562 42.323 70.9166 42.2482 70.9538C42.1733 70.991 42.0842 71.0022 41.9825 70.9855L38.5349 70.4725L39.1663 66.2194C39.185 66.0924 39.2932 66.0422 39.4891 66.0708L39.5227 65.8404L37.6701 65.5653L37.6366 65.7957C37.8579 65.8281 37.9602 65.9095 37.9397 66.0366L37.2308 70.8123C37.2121 70.9393 37.0912 70.9867 36.8698 70.9543L36.8363 71.1847L41.8425 71.929C41.9441 71.9439 42.0296 71.96 42.0955 71.979C42.1632 71.998 42.1912 72.0411 42.1811 72.1083L42.4118 72.1454Z" fill="black"/>
<path d="M44.5505 71.7753L44.5726 72.0057L49.2879 71.5361C49.3915 71.5258 49.4757 71.5221 49.5458 71.5229C49.6143 71.5257 49.6528 71.5645 49.6613 71.6412L49.8917 71.6191L49.7574 70.2693L49.5252 70.2915C49.5338 70.3683 49.5058 70.4348 49.4409 70.4875C49.376 70.5402 49.2937 70.5725 49.192 70.5845L45.9032 70.9112L45.7527 69.3953L47.6292 69.2088C47.8006 69.1923 47.9334 69.1891 48.0312 69.2007C48.1272 69.2125 48.1667 69.2674 48.1514 69.3636L48.4085 69.3379L48.2733 67.9756L48.043 67.9978C48.0527 68.0924 48.0243 68.1535 47.9578 68.1812C47.8914 68.2089 47.7849 68.2302 47.6403 68.2449L45.662 68.4416L45.5337 67.1561L48.6688 66.843C48.9349 66.8168 49.0759 66.8849 49.0918 67.0474L49.3222 67.0252L49.1793 65.5987L48.9489 65.6209C48.9643 65.7744 48.839 65.8652 48.5729 65.8915L44.0129 66.3456L44.0351 66.5759C44.0779 66.5714 44.1218 66.5829 44.1684 66.6086C44.215 66.6344 44.2414 66.6812 44.2476 66.749L44.7265 71.5536C44.7327 71.6215 44.7163 71.6729 44.6772 71.7078C44.6352 71.7518 44.5933 71.7707 44.5505 71.7753Z" fill="black"/>
<path d="M55.996 69.327L56.0618 69.5096L57.7839 68.8821L57.7051 68.6644C57.6424 68.6685 57.581 68.6635 57.5208 68.6494C57.4606 68.6353 57.3971 68.5981 57.3304 68.5396L53.8638 65.1311C53.7907 65.0568 53.7237 64.9928 53.6624 64.9357C53.6013 64.8804 53.5621 64.829 53.5445 64.7798C53.5247 64.7236 53.5258 64.6858 53.5516 64.668C53.5774 64.6501 53.5993 64.6271 53.6175 64.6026L53.5385 64.3831L51.7058 65.0501L51.7847 65.2696C51.8157 65.2766 51.843 65.282 51.8667 65.2877C51.8905 65.2933 51.9119 65.3189 51.9295 65.3681C51.9534 65.433 51.9635 65.5042 51.9596 65.5835C51.9558 65.6629 51.9518 65.7673 51.9442 65.899L51.5725 70.5C51.5631 70.5761 51.5436 70.6636 51.5105 70.7628C51.4774 70.862 51.4159 70.9379 51.3239 70.9888L51.4028 71.2065L53.0283 70.614L52.9495 70.3963C52.8775 70.4225 52.8172 70.4354 52.7704 70.4331C52.7235 70.4307 52.6891 70.3988 52.6651 70.3339C52.6499 70.2935 52.6431 70.2437 52.6446 70.1843C52.6461 70.1249 52.6507 70.0563 52.6601 69.9802L52.7605 69.201L55.3569 68.2562L55.9367 68.8277C55.9852 68.8839 56.024 68.9281 56.0551 68.9638C56.0862 68.9995 56.1103 69.0393 56.1279 69.0884C56.1519 69.1534 56.1445 69.206 56.1094 69.246C56.0742 69.286 56.0365 69.3136 55.996 69.327ZM52.7996 68.1706L52.9184 65.8196L54.6429 67.4993L52.7996 68.1706Z" fill="black"/>
<path d="M61.5695 65.2162C61.4584 65.36 61.3356 65.4883 61.1991 65.6014C61.0628 65.7163 60.9447 65.8066 60.8467 65.8741C60.74 65.9475 60.58 66.0298 60.3668 66.1227C60.1536 66.2156 59.9325 66.2964 59.7032 66.3634C59.4741 66.4322 59.2607 66.4676 59.0651 66.4713C58.8695 66.475 58.7349 66.4227 58.6615 66.316C58.6376 66.2798 58.6155 66.2453 58.5971 66.2106C58.5787 66.1758 58.5605 66.1447 58.5407 66.1172L58.3019 66.2028L58.6258 67.7326L58.849 67.7378C58.8554 67.6709 58.8827 67.6206 58.9326 67.5869C58.9619 67.567 59.0607 67.539 59.2324 67.4991C59.4043 67.461 59.6073 67.4047 59.8451 67.3318C60.083 67.2588 60.3357 67.1651 60.6048 67.0488C60.874 66.9325 61.1309 66.7919 61.3717 66.6271C61.6126 66.4623 61.8588 66.2684 62.1086 66.0473C62.3583 65.8245 62.558 65.5797 62.7077 65.3112C62.8574 65.0427 62.9413 64.757 62.9593 64.4521C62.9755 64.1492 62.8783 63.841 62.6656 63.5278C62.453 63.2145 62.1985 63.0298 61.9017 62.97C61.6068 62.9118 61.295 62.9249 60.97 63.0125C60.6432 63.1002 60.3137 63.2276 59.9814 63.3965C59.6492 63.5654 59.3376 63.7204 59.0484 63.8614C58.7593 64.0023 58.5031 64.098 58.2836 64.1482C58.0623 64.2003 57.9007 64.1461 57.7935 63.9896C57.7259 63.8897 57.6977 63.7873 57.7087 63.6806C57.7198 63.5739 57.7594 63.4653 57.8313 63.3546C57.9014 63.244 57.995 63.1355 58.1104 63.031C58.2258 62.9264 58.3558 62.8246 58.4968 62.7274C58.8668 62.4751 59.2303 62.2898 59.5874 62.1714C59.9445 62.053 60.2344 62.0054 60.4606 62.0302C60.5471 62.0336 60.6077 62.0548 60.6444 62.0938C60.681 62.131 60.7176 62.1699 60.7524 62.2072L60.9888 62.1397L60.839 60.773L60.6425 60.7354C60.6152 60.7857 60.5929 60.8303 60.5756 60.8673C60.56 60.9043 60.523 60.9426 60.4661 60.9805C60.4162 61.0142 60.3208 61.0402 60.1817 61.0564C60.0426 61.0726 59.8687 61.1055 59.6615 61.1531C59.4543 61.2007 59.2133 61.2792 58.9382 61.3887C58.6632 61.4982 58.3597 61.6671 58.024 61.8937C57.3408 62.3585 56.904 62.8559 56.71 63.3824C56.5179 63.9106 56.5767 64.401 56.8866 64.8571C57.0952 65.1634 57.3438 65.3395 57.6308 65.3874C57.9196 65.4351 58.2256 65.4153 58.5486 65.3242C58.8716 65.235 59.201 65.104 59.5332 64.9351C59.8655 64.7661 60.1771 64.6111 60.4662 64.4702C60.7554 64.3292 61.0116 64.2353 61.235 64.1885C61.4583 64.1398 61.6218 64.1957 61.729 64.3523C61.8205 64.4883 61.8459 64.6304 61.8016 64.7788C61.7574 64.9273 61.6806 65.0742 61.5695 65.2162Z" fill="black"/>
<path d="M65.4722 56.6523L65.6263 56.4788L64.5529 55.5278L64.3988 55.7013C64.515 55.8034 64.4836 55.9564 64.3078 56.1547L61.269 59.5847L61.4425 59.7388C61.4709 59.7064 61.5108 59.684 61.5621 59.6717C61.6134 59.6594 61.6648 59.6758 61.7164 59.7228L65.3312 62.924C65.3827 62.9691 65.4056 63.018 65.4 63.0704C65.3945 63.1229 65.3775 63.1653 65.349 63.1977L65.5225 63.3518L68.6653 59.8054C68.7339 59.7273 68.7946 59.6659 68.8456 59.6212C68.8965 59.5748 68.9524 59.5783 69.0115 59.6302L69.1656 59.4567L68.1512 58.5575L67.9971 58.7311C68.0544 58.7831 68.0785 58.8498 68.0696 58.933C68.0588 59.0164 68.0208 59.0961 67.9522 59.1742L65.7605 61.6472L64.6204 60.6376L65.8711 59.2267C65.9849 59.0971 66.0813 59.0046 66.1604 58.9491C66.2394 58.8919 66.3049 58.9056 66.3587 58.9866L66.5295 58.794L65.5056 57.8865L65.3516 58.06C65.4222 58.1237 65.4425 58.1871 65.4126 58.2537C65.3828 58.3203 65.3202 58.4071 65.223 58.5158L63.9035 60.0031L62.9369 59.1476L65.0265 56.7891C65.2004 56.5891 65.3502 56.5435 65.4722 56.6523Z" fill="black"/>
</svg>
