<svg width="71" height="107" viewBox="0 0 71 107" fill="none" xmlns="http://www.w3.org/2000/svg">
<path d="M38 24.9566C24.312 28.1413 21.0761 38.3179 18.957 50C17.1387 38.1297 13.6164 28.0834 0 25.1013C13.4446 21.7574 17.3105 12.1453 18.7995 0C21.4627 11.3202 23.954 22.3798 38 24.9566Z" fill="#36679C"/>
<path d="M33 89.9705C23.6345 92.1361 21.4205 99.0562 19.9706 107C18.7264 98.9282 16.3165 92.0967 7 90.0689C16.1989 87.795 18.844 81.2588 19.8628 73C21.685 80.6977 23.3896 88.2183 33 89.9705Z" fill="#36679C"/>
<path d="M71 47.9705C61.6345 50.1361 59.4205 57.0562 57.9706 65C56.7264 56.9282 54.3165 50.0967 45 48.0689C54.1989 45.795 56.844 39.2588 57.8628 31C59.685 38.6977 61.3896 46.2183 71 47.9705Z" fill="#36679C"/>
</svg>
