<svg width="89" height="88" viewBox="0 0 89 88" fill="none" xmlns="http://www.w3.org/2000/svg">
<path d="M38 24.9566C24.312 28.1413 21.0761 38.3179 18.957 50C17.1387 38.1297 13.6164 28.0834 0 25.1013C13.4446 21.7574 17.3105 12.1453 18.7995 0C21.4627 11.3202 23.954 22.3798 38 24.9566Z" fill="#36679C"/>
<path d="M51 70.9705C41.6345 73.1361 39.4205 80.0562 37.9706 88C36.7264 79.9282 34.3165 73.0967 25 71.0689C34.1989 68.795 36.844 62.2588 37.8628 54C39.685 61.6977 41.3896 69.2183 51 70.9705Z" fill="#36679C"/>
<path d="M89 28.9705C79.6345 31.1361 77.4205 38.0562 75.9706 46C74.7264 37.9282 72.3165 31.0967 63 29.0689C72.1989 26.795 74.844 20.2588 75.8628 12C77.685 19.6977 79.3896 27.2183 89 28.9705Z" fill="#36679C"/>
</svg>
