<?xml version="1.0" standalone="no"?>
<!DOCTYPE svg PUBLIC "-//W3C//DTD SVG 1.1//EN" "http://www.w3.org/Graphics/SVG/1.1/DTD/svg11.dtd" >
<svg xmlns="http://www.w3.org/2000/svg">
<metadata>Generated by IcoMoon</metadata>
<defs>
<font id="icomoon" horiz-adv-x="1024">
<font-face units-per-em="1024" ascent="960" descent="-64" />
<missing-glyph horiz-adv-x="1024" />
<glyph unicode="&#x20;" horiz-adv-x="512" d="" />
<glyph unicode="&#xe900;" glyph-name="facebook" horiz-adv-x="1032" d="M515.879 960c-287.030 0-515.879-228.848-515.879-515.879 0-256 190.061-469.333 434.424-508.121v360.727h-131.879v147.394h131.879v112.485c0 128 77.576 201.697 193.939 201.697 0 0 0 0 0 0v0c58.182 0 116.364-11.636 116.364-11.636v-128h-65.939c-62.061 0-85.333-38.788-85.333-81.455v-96.97h143.515l-23.273-147.394h-120.242v-360.727c244.364 38.788 434.424 252.121 434.424 508.121 3.879 290.909-228.848 519.758-512 519.758z" />
<glyph unicode="&#xe901;" glyph-name="youtube" horiz-adv-x="1419" d="M1389.714 799.086c-14.629 63.39-63.39 112.152-121.905 131.657-112.152 29.257-555.886 29.257-555.886 29.257s-443.733 0-555.886-29.257c-63.39-19.505-112.152-68.267-126.781-131.657-29.257-112.152-29.257-351.086-29.257-351.086s0-238.933 29.257-351.086c14.629-63.39 63.39-112.152 126.781-126.781 112.152-34.133 555.886-34.133 555.886-34.133s443.733 0 555.886 29.257c63.39 14.629 107.276 68.267 126.781 126.781 29.257 112.152 29.257 351.086 29.257 351.086s-4.876 243.81-34.133 355.962zM575.39 204.19v443.733l355.962-224.305-355.962-219.429z" />
<glyph unicode="&#xe902;" glyph-name="twitter" horiz-adv-x="1219" d="M1180.038 823.467c-73.143-29.257-87.771-24.381-48.762 19.505 29.257 29.257 58.514 82.895 58.514 97.524 0 4.876-14.629 0-29.257-9.752s-48.762-24.381-78.019-29.257l-48.762-14.629-39.010 24.381c-24.381 14.629-58.514 34.133-73.143 39.010-43.886 14.629-112.152 9.752-156.038-4.876-112.152-39.010-180.419-146.286-170.667-258.438l4.876-43.886-43.886 4.876c-165.79 19.505-307.2 92.648-424.229 209.676l-58.514 58.514-14.629-43.886c-34.133-97.524-9.752-195.048 53.638-268.19 34.133-34.133 29.257-39.010-34.133-19.505-19.505 9.752-39.010 14.629-39.010 9.752-4.876-4.876 14.629-87.771 29.257-121.905 24.381-43.886 68.267-87.771 121.905-117.029l43.886-19.505h-48.762c-48.762 0-48.762 0-43.886-19.505 19.505-58.514 87.771-121.905 165.79-146.286l53.638-19.505-48.762-29.257c-68.267-43.886-151.162-63.39-234.057-68.267-39.010 0-73.143-4.876-73.143-4.876 0-9.752 107.276-58.514 170.667-78.019 185.295-58.514 409.6-34.133 575.39 68.267 117.029 73.143 238.933 214.552 292.571 351.086 29.257 73.143 58.514 204.8 58.514 273.067 0 43.886 4.876 48.762 53.638 97.524 29.257 29.257 58.514 58.514 63.39 68.267s4.876 9.752-39.010-4.876z" />
<glyph unicode="&#xe903;" glyph-name="yelp" horiz-adv-x="785" d="M349.659 956.432c-46.383 14.272-217.645-35.679-249.756-71.359-14.272-10.704-21.408-28.544-14.272-42.815 7.136-10.704 192.669-303.275 214.077-338.955 17.84-28.544 39.247-46.383 60.655-46.383 3.568 0 7.136 0 14.272 3.568 28.544 7.136 39.247 35.679 39.247 78.495-3.568 67.791-24.976 371.066-28.544 385.338-7.136 17.84-17.84 28.544-35.679 32.111zM378.202 260.683c-24.976 10.704-49.951 3.568-60.655-14.272 0 0-21.408-28.544-28.544-35.679l-3.568-3.568c-121.31-139.15-121.31-142.718-124.878-149.854s-3.568-14.272-3.568-17.84 7.136-17.84 10.704-28.544c28.544-32.111 139.15-74.927 192.669-74.927 7.136 0 7.136 0 10.704 0 17.84 7.136 28.544 14.272 35.679 28.544 3.568 10.704 3.568 10.704 3.568 174.829l7.136 71.359c-7.136 21.408-17.84 39.247-39.247 49.951zM289.003 303.498c17.84 7.136 32.111 24.976 35.679 49.951s-10.704 46.383-32.111 53.519c-32.111 14.272-42.815 17.84-49.951 17.84-171.261 71.359-171.261 71.359-181.965 71.359-17.84 3.568-28.544-7.136-39.247-21.408-17.84-28.544-24.976-114.174-17.84-171.261 3.568-21.408 7.136-35.679 10.704-46.383 7.136-14.272 21.408-24.976 39.247-24.976 10.704 0 24.976 3.568 171.261 49.951 46.383 14.272 60.655 21.408 64.223 21.408zM767.108 228.571c-7.136 7.136-7.136 7.136-164.125 57.087-28.544 7.136-64.223 21.408-67.791 21.408-17.84 7.136-39.247 0-57.087-17.84s-17.84-42.815-7.136-60.655l28.544-42.815c92.767-153.422 96.334-160.557 103.47-164.125 7.136-7.136 17.84-7.136 28.544-7.136 7.136 0 14.272 0 17.84 3.568 39.247 17.84 128.446 128.446 132.014 171.261 7.136 10.704 0 24.976-14.272 39.247zM495.944 378.425c21.408-7.136 71.359 10.704 71.359 10.704 178.397 42.815 181.965 42.815 189.101 49.951 14.272 7.136 17.84 24.976 17.84 39.247v3.568c-3.568 46.383-82.063 160.557-117.742 178.397-17.84 7.136-32.111 7.136-46.383-3.568-7.136-7.136-10.704-7.136-103.47-139.15l-39.247-57.087c-14.272-17.84-14.272-39.247-3.568-60.655 7.136-10.704 17.84-17.84 32.111-21.408z" />
<glyph unicode="&#xe904;" glyph-name="instagram" d="M514.197 709.494c-145.030 0-263.691-118.661-263.691-263.691s118.661-263.691 263.691-263.691 263.691 118.661 263.691 263.691-118.661 263.691-263.691 263.691zM514.197 278.798c-92.292 0-171.399 74.712-171.399 171.399 0 92.292 74.712 171.399 171.399 171.399 92.292 0 171.399-74.712 171.399-171.399-4.395-96.687-79.107-171.399-171.399-171.399zM786.678 784.206v0c-35.159 0-61.528-26.369-61.528-61.528s26.369-61.528 61.528-61.528 61.528 26.369 61.528 61.528c0 30.764-26.369 61.528-61.528 61.528zM1019.605 661.15c0 52.738-8.79 87.897-21.974 123.056-13.185 30.764-30.764 61.528-57.133 87.897s-57.133 43.948-92.292 57.133c-30.764 13.185-70.318 21.974-123.056 21.974-57.133 8.79-74.712 8.79-210.953 8.79-140.635 0-158.215 0-210.953-4.395-57.133 0-92.292-8.79-127.451-21.974-30.764-13.185-61.528-30.764-87.897-61.528-30.764-26.369-48.343-57.133-61.528-87.897-13.185-35.159-21.974-70.318-21.974-123.056-4.395-57.133-4.395-74.712-4.395-215.348s0-158.215 4.395-210.953c4.395-52.738 13.185-92.292 21.974-123.056 13.185-35.159 30.764-61.528 57.133-92.292 26.369-26.369 57.133-43.948 92.292-57.133 30.764-13.185 70.318-21.974 123.056-21.974 52.738-4.395 70.318-4.395 210.953-4.395s158.215 0 210.953 4.395c52.738 4.395 92.292 13.185 123.056 21.974 35.159 13.185 61.528 30.764 92.292 57.133 26.369 26.369 43.948 57.133 57.133 92.292 13.185 30.764 21.974 70.318 21.974 123.056 4.395 52.738 4.395 70.318 4.395 210.953s4.395 158.215 0 215.348zM927.313 239.245c-4.395-48.343-8.79-79.107-17.579-96.687-8.79-21.974-21.974-39.554-39.554-57.133s-35.159-30.764-57.133-39.554c-17.579-8.79-43.948-13.185-96.687-17.579s-70.318-4.395-206.558-4.395c-136.24 0-153.82 0-206.558 4.395-48.343 4.395-79.107 8.79-96.687 17.579-21.974 8.79-39.554 21.974-57.133 39.554s-30.764 35.159-39.554 57.133c-8.79 17.579-13.185 43.948-17.579 96.687s-4.395 70.318-4.395 206.558c0 136.24 0 153.82 4.395 206.558 4.395 48.343 8.79 79.107 17.579 96.687 13.185 26.369 21.974 43.948 39.554 61.528 21.974 17.579 35.159 26.369 61.528 35.159 17.579 8.79 43.948 13.185 96.687 17.579 48.343 0 65.923 4.395 162.609 4.395v0c8.79 0 17.579 0 30.764 0v0 0 0h17.579c136.24 0 153.82 0 206.558-4.395 48.343-4.395 79.107-8.79 96.687-17.579 21.974-8.79 39.554-21.974 57.133-39.554s30.764-35.159 39.554-57.133c8.79-17.579 13.185-43.948 17.579-96.687s4.395-70.318 4.395-206.558c-8.79-136.24-8.79-149.425-13.185-206.558z" />
<glyph unicode="&#xe905;" glyph-name="citrus" d="M381.352 158.455c10.593-10.593 14.124-14.124 52.966-31.779 45.903-17.655 81.214-21.186 102.4-7.062 38.841 24.717 49.434 109.462 49.434 144.772v229.517l-162.428-162.428c-21.186-21.186-67.090-77.683-67.090-123.586 0-17.655 7.062-31.779 17.655-42.372l7.062-7.062zM649.71 486.841v-225.986c0-31.779 10.593-102.4 42.372-134.179 10.593-10.593 24.717-17.655 45.903-17.655h7.062c14.124 0 17.655 0 60.028 17.655s74.152 42.372 77.683 67.090c7.062 31.779-14.124 70.621-35.31 102.4-74.152 67.090-137.71 130.648-197.738 190.676zM932.193 204.359c0-7.062 0-14.124 0-21.186-7.062-42.372-45.903-81.214-109.462-105.931-45.903-17.655-56.497-21.186-77.683-21.186 0 0-3.531 0-3.531 0h-7.062c-31.779 0-60.028 10.593-81.214 31.779-14.124 14.124-24.717 35.31-35.31 56.497-10.593-24.717-28.248-49.434-49.434-63.559-17.655-10.593-38.841-17.655-63.559-17.655s-56.497 7.062-88.276 21.186c-49.434 21.186-56.497 24.717-70.621 42.372l-3.531 3.531c-24.717 24.717-35.31 49.434-35.31 81.214 0 21.186 7.062 38.841 14.124 60.028-21.186-14.124-42.372-17.655-60.028-17.655 0 0 0 0 0 0-31.779 0-56.497 10.593-81.214 35.31v0l-3.531 3.531c-17.655 17.655-21.186 24.717-42.372 70.621-28.248 63.559-28.248 116.524-3.531 151.834 14.124 21.186 38.841 38.841 63.559 49.434-21.186 7.062-38.841 17.655-52.966 35.31-21.186 21.186-35.31 49.434-35.31 81.214v7.062c0 24.717 0 31.779 21.186 81.214 24.717 63.559 63.559 102.4 105.931 109.462 7.062 0 14.124 0 21.186 0-24.717 24.717-49.434 52.966-77.683 81.214-233.048-233.048-233.048-614.4 0-847.448s614.4-233.048 847.448 0c-31.779 31.779-63.559 60.028-91.807 91.807zM257.766 825.821c-3.531 0-7.062 0-10.593 0-24.717-3.531-52.966-35.31-70.621-77.683-17.655-38.841-17.655-45.903-17.655-60.028v-7.062c0-17.655 7.062-31.779 17.655-45.903 31.779-31.779 105.931-42.372 134.179-42.372h225.986c-63.559 63.559-123.586 123.586-190.676 190.676-24.717 24.717-60.028 42.372-88.276 42.372zM317.793 536.276c-35.31 0-116.524-10.593-144.772-49.434-14.124-21.186-10.593-60.028 7.062-102.4 17.655-38.841 17.655-42.372 31.779-52.966l3.531-7.062c14.124-14.124 28.248-21.186 42.372-17.655 45.903 0 102.4 45.903 123.586 67.090l162.428 162.428h-225.986z" />
<glyph unicode="&#xe906;" glyph-name="pine" horiz-adv-x="883" d="M879.228 327.945c-3.531 3.531-3.531 3.531-7.062 3.531-211.862-21.186-381.352-190.676-399.007-395.476 204.8 7.062 384.883 176.552 406.069 384.883 3.531 3.531 3.531 7.062 0 7.062zM243.641 317.352c10.593 77.683 38.841 148.303 81.214 215.393-52.966 77.683-127.117 137.71-211.862 180.083-7.062 3.531-10.593-3.531-10.593-3.531-35.31-105.931-38.841-218.924-3.531-328.386 49.434-14.124 98.869-35.31 144.772-63.559zM10.593 331.476c-3.531 0-7.062 0-7.062-3.531-3.531 0-3.531-3.531-3.531-7.062 21.186-208.331 204.8-377.821 409.6-384.883-17.655 204.8-187.145 374.29-399.007 395.476zM579.090 271.448c-10.593 116.524-60.028 225.986-137.71 310.731-77.683-84.745-127.117-194.207-137.71-310.731 63.559-52.966 109.462-120.055 137.71-197.738 28.248 77.683 77.683 144.772 137.71 197.738zM639.117 317.352c45.903 28.248 91.807 49.434 144.772 63.559 31.779 105.931 31.779 218.924-3.531 328.386-3.531 3.531-10.593 3.531-10.593 3.531-84.745-42.372-155.366-102.4-208.331-180.083 38.841-67.090 67.090-137.71 77.683-215.393zM356.634 592.772c17.655 21.186 35.31 38.841 52.966 60.028 14.124 14.124 38.841 14.124 52.966 0 17.655-17.655 35.31-35.31 52.966-56.497 0 0 0 0 0 0 24.717 31.779 49.434 63.559 81.214 91.807-35.31 91.807-84.745 197.738-151.834 268.359-3.531 3.531-10.593 7.062-14.124 0-67.090-74.152-120.055-183.614-151.834-275.421 28.248-24.717 56.497-56.497 77.683-88.276z" />
<glyph unicode="&#xe907;" glyph-name="search" d="M1024 16.994l-219.842 219.842c57.853 75.209 92.565 173.559 92.565 271.91 0 248.768-202.486 451.254-451.254 451.254s-445.469-202.486-445.469-451.254 202.486-451.254 451.254-451.254c104.136 0 196.701 34.712 271.91 92.565l219.842-219.842 80.994 86.78zM115.706 508.746c0 185.13 150.418 335.548 335.548 335.548s335.548-150.418 335.548-335.548-150.418-335.548-335.548-335.548-335.548 150.418-335.548 335.548z" />
<glyph unicode="&#xe908;" glyph-name="close" d="M1004.8 44.8c-76.8 76.8-147.2 153.6-224 230.4-57.6 57.6-108.8 115.2-166.4 172.8 121.6 128 236.8 256 345.6 384 25.6 25.6 32 64 0 89.6-25.6 19.2-76.8 25.6-102.4 0-115.2-128-230.4-262.4-352-384-51.2 57.6-108.8 115.2-166.4 172.8-70.4 76.8-147.2 153.6-217.6 230.4-25.6 25.6-76.8 25.6-102.4 0s-25.6-64 0-89.6c76.8-76.8 147.2-153.6 224-230.4 57.6-57.6 108.8-115.2 166.4-172.8-121.6-128-236.8-256-345.6-384-25.6-25.6-32-64 0-89.6 25.6-19.2 76.8-25.6 102.4 0 115.2 128 230.4 262.4 352 384 57.6-57.6 115.2-121.6 172.8-179.2 76.8-76.8 147.2-153.6 224-230.4 25.6-25.6 76.8-25.6 102.4 0 12.8 32 12.8 70.4-12.8 96z" />
<glyph unicode="&#xe909;" glyph-name="arrow-down" horiz-adv-x="647" d="M291.032-47.832c-5.389 0-10.779 5.389-10.779 10.779-91.621 102.4-177.853 210.189-264.084 323.368-16.168 21.558-21.558 48.505 0 64.674 16.168 16.168 48.505 21.558 64.674 0 64.674-86.232 134.737-172.463 204.8-253.305 0 274.863 5.389 544.337 10.779 819.2 0 59.284 91.621 59.284 91.621 0-5.389-258.695-5.389-517.389-10.779-770.695 64.674 75.453 129.347 150.905 194.021 220.968 16.168 21.558 48.505 16.168 64.674 0s16.168-48.505 0-64.674c-86.232-102.4-172.463-199.411-258.695-301.811 0-5.389 0-16.168 0-21.558-5.389-48.505-64.674-59.284-86.232-26.947z" />
<glyph unicode="&#xe90a;" glyph-name="arrow-right" horiz-adv-x="1621" d="M1595.733 499.2c0 8.533-8.533 17.067-17.067 17.067-162.133 145.067-332.8 281.6-512 418.133-34.133 25.6-76.8 34.133-102.4 0-25.6-25.6-34.133-76.8 0-102.4 136.533-102.4 273.067-213.333 401.067-324.267-435.2 0-861.867-8.533-1297.067-17.067-93.867 0-93.867-145.067 0-145.067 409.6 8.533 819.2 8.533 1220.267 17.067-119.467-102.4-238.933-204.8-349.867-307.2-34.133-25.6-25.6-76.8 0-102.4s76.8-25.6 102.4 0c162.133 136.533 315.733 273.067 477.867 409.6 8.533 0 25.6 0 34.133 0 76.8 8.533 93.867 102.4 42.667 136.533z" />
<glyph unicode="&#xe90b;" glyph-name="arrow-up" horiz-adv-x="647" d="M291.032 938.442c-5.389 0-10.779-5.389-10.779-10.779-91.621-102.4-177.853-210.189-264.084-323.368-16.168-16.168-21.558-43.116-5.389-59.284s48.505-21.558 64.674 0c70.063 86.232 140.126 167.074 210.189 253.305 5.389-274.863 10.779-544.337 10.779-819.2 0-59.284 91.621-59.284 91.621 0-5.389 258.695-5.389 512-10.779 770.695 64.674-75.453 129.347-150.905 194.021-220.968 16.168-21.558 48.505-16.168 64.674 0s16.168 48.505 0 64.674c-86.232 97.011-177.853 199.411-264.084 301.811 0 5.389 0 16.168 0 21.558 0 48.505-59.284 53.895-80.842 21.558z" />
<glyph unicode="&#xe90c;" glyph-name="arrow-left" horiz-adv-x="1621" d="M34.133 499.2c0 8.533 8.533 17.067 17.067 17.067 162.133 145.067 332.8 281.6 512 418.133 34.133 25.6 76.8 34.133 102.4 0 25.6-25.6 34.133-76.8 0-102.4-145.067-102.4-273.067-213.333-409.6-324.267 435.2-8.533 861.867-17.067 1297.067-17.067 93.867 0 93.867-145.067 0-145.067-409.6 8.533-810.667 8.533-1220.267 17.067 119.467-102.4 238.933-204.8 349.867-307.2 34.133-25.6 25.6-76.8 0-102.4s-76.8-25.6-102.4 0c-153.6 136.533-315.733 281.6-477.867 418.133-8.533 0-25.6 0-34.133 0-76.8 0-85.333 93.867-34.133 128z" />
<glyph unicode="&#xe90d;" glyph-name="attach" horiz-adv-x="640" d="M635.733 814.933c0 17.067-4.267 34.133-8.533 51.2-8.533 12.8-17.067 25.6-25.6 38.4-21.333 21.333-38.4 38.4-68.267 51.2-29.867 4.267-59.733 4.267-89.6 4.267-25.6 0-55.467-4.267-81.067-12.8-64-25.6-98.133-76.8-119.467-136.533-17.067-72.533-29.867-145.067-46.933-213.333-12.8-72.533-29.867-149.333-42.667-221.867-8.533-38.4-17.067-72.533-21.333-110.933-4.267-34.133 4.267-68.267 21.333-98.133 12.8-21.333 25.6-42.667 51.2-55.467s55.467-17.067 81.067-12.8c51.2 12.8 98.133 46.933 128 93.867s42.667 106.667 51.2 162.133c12.8 68.267 34.133 136.533 42.667 209.067 4.267 34.133 12.8 72.533 12.8 106.667 8.533 21.333-8.533 34.133-25.6 34.133-21.333 0-34.133-17.067-34.133-34.133-4.267-64-17.067-123.733-29.867-183.467-12.8-55.467-21.333-115.2-38.4-170.667-12.8-42.667-25.6-89.6-59.733-115.2-17.067-12.8-34.133-21.333-51.2-25.6-12.8-4.267-34.133-4.267-46.933 4.267-4.267 4.267-8.533 4.267-12.8 12.8s-12.8 21.333-17.067 29.867c-8.533 25.6-4.267 51.2 0 76.8 12.8 68.267 29.867 136.533 42.667 204.8s25.6 132.267 38.4 200.533c12.8 42.667 17.067 106.667 51.2 145.067 29.867 34.133 81.067 38.4 123.733 38.4 21.333 0 42.667 0 59.733-12.8 8.533-4.267 12.8-12.8 21.333-21.333s17.067-17.067 21.333-25.6c4.267-8.533 4.267-25.6 4.267-34.133 0-17.067 4.267-29.867 4.267-46.933 0-29.867 0-59.733 0-89.6 0-59.733-8.533-119.467-21.333-179.2s-25.6-119.467-46.933-174.933c-21.333-55.467-38.4-110.933-59.733-166.4-8.533-21.333-17.067-46.933-34.133-64s-34.133-29.867-55.467-42.667c-21.333-12.8-42.667-25.6-68.267-25.6-25.6-4.267-55.467 0-85.333 4.267-46.933 4.267-93.867 12.8-119.467 59.733s-21.333 102.4-17.067 153.6c8.533 64 29.867 123.733 42.667 187.733 17.067 64 29.867 132.267 42.667 200.533 17.067 34.133 21.333 68.267 25.6 102.4 4.267 17.067-4.267 38.4-21.333 42.667s-38.4-4.267-42.667-25.6c-8.533-76.8-25.6-149.333-42.667-221.867s-42.667-145.067-55.467-217.6c-12.8-68.267-21.333-140.8-4.267-204.8 21.333-64 59.733-110.933 119.467-132.267 29.867-8.533 59.733-12.8 89.6-17.067 34.133-4.267 64-4.267 93.867 0s59.733 21.333 85.333 38.4c21.333 12.8 46.933 34.133 64 55.467 38.4 51.2 55.467 119.467 76.8 179.2 21.333 64 46.933 128 64 192 34.133 136.533 46.933 277.333 34.133 413.867z" />
<glyph unicode="&#xe90e;" glyph-name="check" horiz-adv-x="1182" d="M1161.846 940.308c-29.538 29.538-78.769 39.385-108.308 0-128-177.231-452.923-590.769-620.308-797.538-88.615 98.462-177.231 196.923-305.231 354.462-29.538 29.538-78.769 29.538-108.308 0s-29.538-78.769 0-118.154c157.538-196.923 256-295.385 354.462-423.385 29.538-29.538 78.769-29.538 108.308 0 147.692 177.231 531.692 669.538 669.538 866.462 29.538 39.385 39.385 78.769 9.846 118.154z" />
<glyph unicode="&#xe90f;" glyph-name="malt" horiz-adv-x="648" d="M469.835 321.506c-27.106 114.447-105.412 189.741-138.541 316.235-45.176 168.659-27.106 322.259-27.106 322.259s0 0 0 0c-9.035-9.035-132.518-141.553-132.518-301.176 0-3.012 0-6.024 0-6.024 0-3.012 0-9.035 0-12.047 0-21.082 3.012-39.153 9.035-60.235 27.106-114.447 105.412-189.741 138.541-316.235 45.176-171.671 27.106-325.271 27.106-325.271s0 0 0 0c9.035 9.035 132.518 141.553 132.518 301.176 0 3.012 0 6.024 0 6.024 0 3.012 0 9.035 0 12.047 0 21.082-3.012 42.165-9.035 63.247zM647.529 354.635c0 15.059-3.012 30.118-6.024 45.176-21.082 90.353-81.318 147.576-108.424 240.941-36.141 132.518-21.082 246.965-21.082 246.965s0 0 0 0c-6.024-6.024-102.4-108.424-102.4-231.906 0-3.012 0-3.012 0-6.024s0-6.024 0-9.035c0-15.059 3.012-30.118 6.024-45.176 21.082-90.353 81.318-147.576 108.424-240.941 36.141-132.518 21.082-246.965 21.082-246.965s0 0 0 0c6.024 6.024 102.4 108.424 102.4 231.906 0 3.012 0 3.012 0 6.024s0 6.024 0 9.035zM231.906 264.282c-21.082 90.353-81.318 147.576-108.424 240.941-33.129 132.518-21.082 249.976-21.082 249.976s0 0 0 0c-6.024-6.024-102.4-108.424-102.4-231.906 0-3.012 0-3.012 0-6.024s0-6.024 0-9.035c0-15.059 3.012-30.118 6.024-45.176 21.082-90.353 81.318-147.576 108.424-240.941 36.141-135.529 21.082-252.988 21.082-252.988s0 0 0 0c6.024 6.024 102.4 108.424 102.4 231.906 0 3.012 0 3.012 0 6.024s0 6.024 0 9.035c0 18.071-3.012 33.129-6.024 48.188z" />
<glyph unicode="&#xe910;" glyph-name="play" horiz-adv-x="888" d="M888.221 445.171l-888.221 514.829v-1024l888.221 509.171z" />
<glyph unicode="&#xe911;" glyph-name="info" horiz-adv-x="694" d="M393.634 960h-90.839c-167.914 0-302.796-134.882-302.796-300.043v-421.161c0-165.161 134.882-300.043 300.043-300.043h90.839c165.161 0 300.043 134.882 300.043 300.043v421.161c2.753 165.161-132.129 300.043-297.29 300.043zM583.57 236.043c0-104.602-85.333-189.935-189.935-189.935h-90.839c-104.602 0-189.935 85.333-189.935 189.935v423.914c-2.753 104.602 82.581 189.935 187.183 189.935h90.839c104.602 0 189.935-85.333 189.935-189.935v-423.914zM294.538 560.86h107.355v-426.667h-107.355v426.667zM346.839 745.29c-35.785 0-66.065-30.28-66.065-66.065s30.28-66.065 66.065-66.065 66.065 30.28 66.065 66.065c0 38.538-30.28 66.065-66.065 66.065z" />
<glyph unicode="&#xe912;" glyph-name="chevron-up" d="M92.16 273.92l71.68-71.68 348.16 348.16 348.16-348.16 71.68 71.68-419.84 419.84z" />
<glyph unicode="&#xe913;" glyph-name="chevron-down" d="M931.84 622.080l-71.68 71.68-348.16-348.16-348.16 348.16-71.68-71.68 419.84-419.84z" />
<glyph unicode="&#xe914;" glyph-name="chevron-left" d="M686.080 28.16l71.68 71.68-348.16 348.16 348.16 348.16-71.68 71.68-419.84-419.84z" />
<glyph unicode="&#xe915;" glyph-name="chevron-right" d="M337.92 28.16l-71.68 71.68 348.16 348.16-348.16 348.16 71.68 71.68 419.84-419.84z" />
<glyph unicode="&#xe916;" glyph-name="dots" d="M512 371.2c40.96 0 76.8 35.84 76.8 76.8s-35.84 76.8-76.8 76.8-76.8-35.84-76.8-76.8c0-40.96 35.84-76.8 76.8-76.8zM819.2 371.2c40.96 0 76.8 35.84 76.8 76.8s-35.84 76.8-76.8 76.8-76.8-35.84-76.8-76.8c0-40.96 35.84-76.8 76.8-76.8zM204.8 371.2c40.96 0 76.8 35.84 76.8 76.8s-35.84 76.8-76.8 76.8c-40.96 0-76.8-35.84-76.8-76.8s35.84-76.8 76.8-76.8z" />
<glyph unicode="&#xe917;" glyph-name="times" d="M911.36 775.68l-71.68 71.68-327.68-327.68-327.68 327.68-71.68-71.68 327.68-327.68-327.68-327.68 71.68-71.68 327.68 327.68 327.68-327.68 71.68 71.68-327.68 327.68z" />
<glyph unicode="&#xe918;" glyph-name="search-a" d="M977.92 74.24l-184.32 184.32c51.2 66.56 76.8 153.6 76.8 240.64 0 230.4-184.32 414.72-414.72 414.72-225.28 0-409.6-184.32-409.6-414.72s184.32-414.72 414.72-414.72c92.16 0 174.080 30.72 240.64 76.8l184.32-184.32 92.16 97.28zM179.2 499.2c0 153.6 128 281.6 281.6 281.6s281.6-128 281.6-281.6c0-153.6-128-281.6-281.6-281.6s-281.6 128-281.6 281.6z" />
<glyph unicode="&#xe919;" glyph-name="apple" horiz-adv-x="836" d="M460.8 868.978c68.267 91.022 159.289 91.022 159.289 91.022s11.378-85.333-51.2-164.978c-73.956-85.333-153.6-68.267-153.6-68.267s-17.067 62.578 45.511 142.222zM426.667 664.178c34.133 0 96.711 45.511 182.044 45.511 142.222 0 199.111-102.4 199.111-102.4s-108.089-56.889-108.089-193.422c0-153.6 136.533-210.489 136.533-210.489s-96.711-267.378-227.556-267.378c-62.578 0-108.089 39.822-170.667 39.822s-125.156-39.822-170.667-39.822c-119.467 0-267.378 256-267.378 466.489 0 204.8 125.156 312.889 244.622 312.889 79.644-5.689 142.222-51.2 182.044-51.2z" />
<glyph unicode="&#xe91a;" glyph-name="google" horiz-adv-x="1005" d="M710.4 678.4c-57.6 51.2-121.6 76.8-198.4 76.8-134.4 0-249.6-89.6-288-211.2-6.4-32-12.8-64-12.8-96s6.4-64 19.2-96c38.4-121.6 153.6-211.2 288-211.2 70.4 0 128 19.2 172.8 51.2 51.2 38.4 89.6 89.6 102.4 153.6h-281.6v192h480c6.4-32 6.4-64 6.4-96 0-153.6-57.6-288-153.6-377.6-76.8-83.2-192-128-332.8-128-198.4 0-371.2 115.2-454.4 281.6-38.4 70.4-57.6 147.2-57.6 230.4s19.2 160 57.6 230.4c83.2 166.4 256 281.6 454.4 281.6 140.8 0 256-51.2 339.2-134.4l-140.8-147.2z" />
<glyph unicode="&#xe91b;" glyph-name="outlook" d="M484.693 960h-484.693v-484.693h484.693v484.693zM1024 960h-484.693v-484.693h484.693v484.693zM0 420.693h484.693v-484.693h-484.693v484.693zM1024 420.693h-484.693v-484.693h484.693v484.693z" />
<glyph unicode="&#xe91c;" glyph-name="bubble" horiz-adv-x="907" d="M299.127-64c-0.103 0-0.224 0-0.345 0-165.203 0-299.127 133.924-299.127 299.127s133.924 299.127 299.127 299.127c165.082 0 298.93-133.727 299.126-298.763v-0.019c0 0 0 0 0-0.001 0-165.151-133.685-299.078-298.744-299.471h-0.038zM299.127 496.647c-0.102 0-0.223 0-0.344 0-144.624 0-261.865-117.241-261.865-261.865s117.241-261.865 261.865-261.865c144.624 0 261.865 117.241 261.865 261.865 0 0.242 0 0.485-0.001 0.727v-0.037c-0.392 144.206-117.286 260.98-261.501 261.175h-0.019zM445.757 704c-70.692 0-128 57.308-128 128s57.308 128 128 128c70.692 0 128-57.308 128-128v0c-0.196-70.614-57.386-127.804-127.981-128h-0.019zM445.757 922.739c-50.114 0-90.739-40.625-90.739-90.739s40.625-90.739 90.739-90.739c50.114 0 90.739 40.625 90.739 90.739v0c0 50.114-40.625 90.739-90.739 90.739v0zM177.682 366.922c-0.101 0-0.22 0-0.34 0-98.131 0-177.682 79.551-177.682 177.682s79.551 177.682 177.682 177.682c97.646 0 176.895-78.766 177.676-176.227v-0.074c0.002-0.308 0.003-0.672 0.003-1.036 0-98.080-79.314-177.635-177.303-178.026h-0.037zM177.682 683.989c-0.096 0-0.21 0-0.324 0-77.552 0-140.42-62.868-140.42-140.42s62.868-140.42 140.42-140.42c77.552 0 140.42 62.868 140.42 140.42 0 0.849-0.008 1.696-0.023 2.542l0.002-0.127c-1.356 76.393-63.511 137.823-140.058 138.005h-0.018zM650.695 128.863c-141.766 0-256.69 114.924-256.69 256.69s114.924 256.69 256.69 256.69c141.766 0 256.69-114.924 256.69-256.69v0c-0.196-141.687-115.003-256.494-256.671-256.69h-0.019zM650.695 604.981c-121.187 0-219.429-98.242-219.429-219.429s98.242-219.429 219.429-219.429c121.187 0 219.429 98.242 219.429 219.429v0c-0.196 121.108-98.32 219.232-219.41 219.429h-0.019z" />
<glyph unicode="&#xe91d;" glyph-name="guayusa-leaf" horiz-adv-x="1319" d="M152.452 845.202l61.991-68.879 59.236-54.185-13.317 75.767-16.072 34.899-29.388 24.796-38.572 18.368-48.674 11.021-39.491 22.041 31.225-33.521 33.062-30.307zM179.544 753.822l-56.481 63.828-33.062 30.307-62.909 67.042-27.092 45.001 6.888-84.032 36.735-87.247 21.123-24.337 70.716-21.123 44.083 10.561zM1251.3-10.734l-49.134 26.633-41.327 24.796-42.246 15.153-57.399 35.358-21.123 6.888-75.308-16.99-107.451-87.706-45.46-18.368 78.981-27.552 90.92-11.48 142.35 3.214 48.674 9.643 49.593 1.378 48.674 10.561 22.96 0.918-13.776 6.888-28.929 20.664zM949.152 131.157l33.062 7.347-28.011 20.664-52.348 32.603-63.369 33.521-45.919 30.766-31.684 15.153h-31.684l-114.798-56.94-77.144-42.705-100.563-16.99-19.745 6.429 5.51-9.643 32.603-25.715 32.143-32.143 36.735-23.419 34.439-25.256 36.735-18.368 39.491-14.694 40.409-8.265 45.919-3.214 39.491 3.674 37.654 23.419 45.919 18.368zM235.566 484.735l37.195 0.918 140.054 50.052-24.796 26.174-133.625 119.849-33.062 19.745-31.225 8.725-57.858-15.613-56.481 16.531 8.265-56.94 16.531-39.031 42.246-79.44 25.715-25.256 31.225-17.449 35.817-8.265zM1232.474 203.25l-22.041 31.225-16.531 38.572-56.481 79.9 11.48-63.828 8.725-110.206 20.664-61.073 22.96-32.143 17.909-16.072 53.266-27.552 36.735-26.633 10.102-3.214-45.919 117.094-40.868 73.93zM523.48 221.618l182.3 94.594-22.5 21.582-34.899 23.878-39.95 21.582-75.308 59.236-39.031 26.174-36.276 15.153-30.307 5.051-148.319-54.185-49.134-0.918-30.307 7.347 12.857-45.001 19.286-41.327 59.236-73.012 34.439-29.388 34.899-20.204 80.818-25.256 82.196 14.694zM529.909 752.904l12.398-45.46 13.776-94.135-2.296-40.868 19.286-73.012 21.582-33.98 24.337-30.307 34.899-23.419 22.5-12.857 40.868-27.552 33.521-31.225 39.491-18.827 28.929-20.664-18.368 38.572-15.613 45.001-6.888 45.46-11.021 45.001 0.459 81.736-22.96 85.869-26.174 35.817-21.582 40.868-32.603 28.47-33.98 18.368-106.533 44.083-54.644 14.235 31.684-26.633 28.929-44.542zM815.986 566.013l-0.459-81.277 11.021-45.001 5.051-47.756 12.398-33.98 41.327-76.226 26.174-29.388 111.584-81.736 55.103-27.552 50.511-30.307-15.613 46.838-14.694 141.431-15.153 85.41-16.072 39.031-50.97 72.552-30.307 32.143-68.879 52.348-64.746 57.858-57.858 36.276-28.011 19.286 23.419-33.98 26.174-95.971zM328.782 683.107l18.827-27.552 75.308-65.665 31.225-32.143 41.327-25.256 27.092-27.552-16.99 66.583 1.378 40.409-12.857 85.41-10.102 37.195-21.123 31.684-32.143 26.174-35.817 22.041-71.175 22.5-26.174 1.378 14.235-33.521 16.99-121.686z" />
<glyph unicode="&#xe91e;" glyph-name="untappd" d="M469.304 389.397l-248.54-346.281c-10.947-15.009-28.473-24.651-48.25-24.651-2.653 0-5.267 0.174-7.829 0.511l0.302-0.032c-69.997 10.019-128.094 53.268-158.514 112.977l-0.552 1.193c-3.745 7.582-5.936 16.507-5.936 25.943 0 13.044 4.187 25.11 11.29 34.927l-0.121-0.174 248.435 346.071c11.88 16.414 27.048 29.707 44.612 39.11l0.7 0.343 48.871 25.638c10.126 5.538 18.719 12.528 25.852 20.81l0.1 0.119c23.755 26.895 87.486 97.322 200.402 211.075l1.988 8.685c0.468 2.063 2.037 3.667 4.043 4.178l0.038 0.009 6.175 1.57c2.5 0.664 4.312 2.906 4.312 5.572 0 0.175-0.007 0.349-0.024 0.519l0.001-0.022-0.942 7.535c-0.016 0.157-0.025 0.341-0.025 0.527 0 2.998 2.38 5.441 5.352 5.544h0.009c16.378-0.837 31.167-7.024 42.805-16.832l-0.109 0.088c13.308-8.203 23.561-20.245 29.338-34.574l0.172-0.484c0.15-0.48 0.237-1.032 0.237-1.603 0-2.628-1.828-4.828-4.281-5.401l-0.037-0.007-7.43-1.884c-2.496-0.667-4.304-2.906-4.304-5.57 0-0.14 0.004-0.277 0.015-0.414l-0.001 0.018v-6.384c0.009-0.118 0.013-0.255 0.013-0.393 0-2.044-1.085-3.834-2.709-4.825l-0.025-0.015-7.953-4.709c-70.742-143.472-116.996-226.458-134.787-257.539-5.098-9.070-8.775-19.653-10.406-30.901l-0.059-0.493-8.79-54.522c-3.691-21.054-11.933-39.712-23.693-55.609l0.252 0.356zM1012.951 193.6l-248.54 346.281c-11.88 16.414-27.048 29.707-44.612 39.11l-0.7 0.343-48.871 25.638c-10.126 5.538-18.719 12.528-25.852 20.81l-0.1 0.119c-5.86 6.593-14.232 16.011-25.012 27.837-0.69 0.748-1.676 1.216-2.771 1.216-1.413 0-2.644-0.778-3.289-1.928l-0.010-0.019c-37.673-72.103-62.789-117.311-74.509-137.194-3.523-6.032-6.091-13.080-7.28-20.585l-0.046-0.344c-1.191-7.062-1.87-15.199-1.87-23.493s0.68-16.431 1.988-24.355l-0.118 0.862v-2.721c3.474-21.129 11.552-39.91 23.179-55.948l-0.262 0.38 248.54-346.281c10.874-15.113 28.412-24.839 48.225-24.839 2.589 0 5.139 0.166 7.641 0.489l-0.296-0.031c70.273 9.822 128.646 53.168 159.142 113.082l0.552 1.193c3.726 7.557 5.906 16.451 5.906 25.853 0 12.95-4.134 24.935-11.155 34.707l0.122-0.178zM354.4 812.281l7.43-1.884c2.496-0.667 4.304-2.906 4.304-5.57 0-0.14-0.004-0.277-0.015-0.414l0.001 0.018v-6.384c-0.012-0.134-0.018-0.291-0.018-0.449 0-2.028 1.089-3.803 2.714-4.77l0.025-0.015 7.953-4.709c13.29-26.58 25.534-50.859 37.045-73.254 0.542-1.166 1.701-1.957 3.046-1.957 0.992 0 1.884 0.431 2.497 1.117l0.003 0.003q27.942 29.93 67.603 71.055c1.024 1.054 1.654 2.494 1.654 4.081s-0.631 3.027-1.656 4.082l0.001-0.001c-13.395 13.71-27.522 28.046-42.8 43.429l-2.302 9c-0.468 2.063-2.037 3.667-4.043 4.178l-0.038 0.009-6.175 1.57c-2.5 0.664-4.312 2.906-4.312 5.572 0 0.175 0.007 0.349 0.024 0.519l-0.001-0.022 0.628 7.639c0.016 0.159 0.025 0.344 0.025 0.531 0 2.962-2.321 5.382-5.243 5.538h-0.013c-16.417-0.805-31.248-6.998-42.909-16.832l0.107 0.088c-13.308-8.203-23.561-20.245-29.338-34.574l-0.172-0.484c-0.174-0.515-0.274-1.107-0.274-1.723 0-2.603 1.794-4.789 4.213-5.385l0.038-0.007z" />
<glyph unicode="&#xe91f;" glyph-name="untappd-a" d="M0.001 778.098c0 99.2 80.427 179.627 179.627 179.627h664.746c99.2 0 179.627-80.427 179.627-179.627v-664.746c0-99.2-80.427-179.627-179.627-179.627h-664.746c-99.2 0-179.627 80.427-179.627 179.627zM488.604 416.782q2.489 4.48 4.551 9.244 1.991 4.764 3.413 9.671 1.493 4.978 2.347 10.027l5.973 37.049q0.427 2.773 1.067 5.547t1.493 5.476q0.924 2.631 2.062 5.262 1.138 2.56 2.489 5.049c12.089 21.12 43.52 77.511 91.591 175.004l5.404 3.2q0.427 0.284 0.782 0.64 0.427 0.427 0.64 0.853 0.213 0.498 0.356 0.996 0.142 0.569 0.071 1.067v4.338q-0.071 0.711 0.142 1.351t0.569 1.209q0.427 0.569 0.996 0.924 0.569 0.427 1.209 0.569l5.049 1.28q0.782 0.142 1.422 0.64t0.996 1.138q0.427 0.711 0.498 1.422 0.071 0.782-0.142 1.564-1.422 3.698-3.484 7.111t-4.622 6.471q-2.56 2.987-5.547 5.618-2.987 2.56-6.4 4.622-3.058 2.56-6.471 4.551-3.413 2.062-7.111 3.484-3.698 1.493-7.609 2.276-3.84 0.853-7.822 1.067-0.782 0-1.493-0.356t-1.209-0.924-0.782-1.351q-0.213-0.711-0.142-1.493l0.64-5.12q0.071-0.711-0.142-1.351-0.142-0.711-0.569-1.28-0.427-0.498-0.996-0.924t-1.209-0.569l-4.196-1.067q-0.498-0.142-0.996-0.356-0.427-0.284-0.782-0.64-0.356-0.427-0.64-0.853-0.213-0.498-0.356-0.996l-1.351-5.902c-76.729-77.298-120.036-125.156-136.178-143.431q-1.849-2.133-3.911-4.124t-4.267-3.769q-2.204-1.849-4.551-3.413-2.418-1.564-4.907-2.916l-33.209-17.422q-4.551-2.418-8.818-5.333t-8.107-6.258q-3.911-3.413-7.396-7.253-3.484-3.769-6.471-7.964l-168.818-235.164q-3.2-4.409-5.049-9.6-1.92-5.12-2.418-10.524-0.427-5.476 0.569-10.809 0.996-5.404 3.342-10.311 7.822-15.573 19.058-28.8 11.307-13.227 25.387-23.324 14.151-10.169 30.293-16.569 16.142-6.471 33.351-8.889 5.404-0.711 10.809 0.071t10.382 2.916q5.049 2.204 9.244 5.618 4.267 3.413 7.467 7.822l168.889 235.307q3.058 4.124 5.618 8.604zM852.409 275.129l-168.889 235.307q-2.987 4.196-6.471 7.964-3.484 3.84-7.396 7.253-3.84 3.342-8.107 6.258t-8.818 5.333l-33.209 17.422q-2.489 1.351-4.907 2.916-2.347 1.564-4.551 3.413-2.204 1.778-4.267 3.769t-3.911 4.124q-5.973 6.827-16.996 18.916-0.427 0.427-0.996 0.64t-1.209 0.142q-0.569-0.071-1.138-0.427-0.498-0.284-0.782-0.853c-25.6-48.996-42.667-79.716-50.631-93.227q-0.924-1.636-1.707-3.342-0.782-1.778-1.422-3.556t-1.067-3.627q-0.498-1.849-0.782-3.698-0.64-3.982-0.924-7.964-0.356-3.982-0.356-7.964 0-4.053 0.356-8.036 0.284-3.982 0.924-7.964v-1.849q0.853-5.12 2.204-10.027 1.422-4.978 3.413-9.742 1.92-4.764 4.409-9.316 2.56-4.48 5.547-8.676l168.889-235.307q3.129-4.409 7.396-7.893 4.196-3.413 9.173-5.618 5.049-2.133 10.382-2.916 5.404-0.782 10.809-0.142 17.28 2.347 33.493 8.818 16.213 6.4 30.364 16.569 14.222 10.169 25.529 23.396 11.307 13.298 19.129 28.871 2.347 4.907 3.342 10.24t0.498 10.738q-0.427 5.404-2.276 10.524-1.92 5.12-5.049 9.529zM404.907 695.538l5.049-1.28q0.64-0.142 1.209-0.569 0.569-0.356 0.996-0.924 0.356-0.569 0.569-1.209t0.142-1.351v-4.338q-0.071-0.498 0.071-1.067 0.071-0.498 0.356-0.996 0.213-0.427 0.569-0.853 0.427-0.356 0.853-0.64l5.404-3.2q13.511-27.022 25.173-49.778 0.213-0.498 0.711-0.853 0.427-0.356 0.996-0.427 0.569-0.142 1.138 0.071t0.924 0.64q18.987 20.338 45.938 48.284 0.569 0.569 0.853 1.28t0.284 1.493-0.284 1.493-0.853 1.28q-13.582 13.938-29.084 29.511l-1.564 6.116q-0.142 0.498-0.356 0.996-0.284 0.427-0.64 0.853-0.356 0.356-0.782 0.64-0.498 0.213-0.996 0.356l-4.196 1.067q-0.64 0.142-1.209 0.569t-0.996 0.924q-0.427 0.569-0.569 1.28-0.213 0.64-0.142 1.351l0.427 5.191q0.071 0.782-0.142 1.493-0.284 0.711-0.782 1.351-0.498 0.569-1.138 0.924-0.711 0.284-1.493 0.356-3.982-0.213-7.893-0.996-3.84-0.853-7.609-2.276-3.698-1.493-7.111-3.484-3.413-2.062-6.471-4.622-3.413-2.062-6.4-4.622-2.987-2.631-5.547-5.618-2.56-3.058-4.622-6.471t-3.484-7.111q-0.213-0.782-0.142-1.564t0.427-1.422q0.427-0.711 0.996-1.209 0.64-0.427 1.422-0.64z" />
<glyph unicode="&#xe920;" glyph-name="envelope" horiz-adv-x="1299" d="M0 655.768v-534.261c0-51.942 22.261-96.464 51.942-133.565 37.101-37.101 81.623-51.942 133.565-51.942h927.536c51.942 0 96.464 22.261 133.565 51.942 37.101 37.101 51.942 81.623 51.942 133.565v534.261l-549.101-341.333c-29.681-14.841-66.783-22.261-96.464-22.261s-74.203 7.42-103.884 22.261l-549.101 341.333zM1298.551 767.072v7.42c0 51.942-22.261 96.464-51.942 133.565-37.101 29.681-81.623 51.942-133.565 51.942h-927.536c-51.942 0-96.464-22.261-133.565-51.942s-51.942-81.623-51.942-133.565v-7.42l601.043-371.014c14.841-7.42 29.681-14.841 51.942-14.841s37.101 7.42 51.942 14.841l593.623 371.014z" />
<glyph unicode="&#xe921;" glyph-name="linkedin" d="M947.2 960h-870.4c-40.96 0-76.8-30.72-76.8-71.68v-875.52c0-46.080 35.84-76.8 76.8-76.8h870.4c40.96 0 76.8 30.72 76.8 71.68v880.64c0 40.96-35.84 71.68-76.8 71.68zM302.080 89.6h-148.48v486.4h153.6v-486.4zM225.28 642.56c-51.2 0-87.040 40.96-87.040 87.040s40.96 87.040 87.040 87.040c46.080 0 87.040-40.96 87.040-87.040 5.12-46.080-35.84-87.040-87.040-87.040zM870.4 89.6h-153.6v235.52c0 56.32 0 128-76.8 128s-92.16-61.44-92.16-128v-235.52h-153.6v486.4h143.36v-66.56c20.48 40.96 71.68 76.8 143.36 76.8 153.6 0 184.32-102.4 184.32-230.4v-266.24z" />
</font>
</defs>
</svg>
