<?xml version="1.0" encoding="utf-8"?>
<svg version="1.1" id="Layer_1" xmlns="http://www.w3.org/2000/svg" xmlns:xlink="http://www.w3.org/1999/xlink" x="0px" y="0px" width="194px" height="90px" viewBox="0 0 194 90" style="enable-background:new 0 0 194 90;" xml:space="preserve">
    <g id="logo-head-name">
        <path fill="#c12333" d="M90.7,72.5c0.3-0.7,0.5-1.4,0.8-2c0.2-0.6,0.4-1.1,0.6-1.7c0.1-0.2,0.2-0.3,0.4-0.3c0.3,0,0.7,0,1.1,0c-0.1,0.3-0.2,0.5-0.3,0.8c-0.7,1.7-1.3,3.4-2,5.1c-0.1,0.3-0.3,0.4-0.6,0.3c-0.3,0-0.6,0.1-0.7-0.4c-0.5-1.3-1-2.6-1.5-4c-0.4,1-0.8,2-1.2,2.9c-0.1,0.4-0.3,0.7-0.4,1.1c-0.1,0.3-0.3,0.4-0.5,0.4c-0.5,0-0.6-0.1-0.8-0.6c-0.6-1.7-1.3-3.4-2-5.1c-0.1-0.2-0.1-0.3-0.2-0.6c0.4,0,0.8,0,1.2,0c0.2,0,0.3,0.2,0.3,0.3c0.4,1.1,0.8,2.2,1.2,3.3c0,0.1,0.1,0.2,0.1,0.4c0.3-0.8,0.6-1.5,0.9-2.2c0.1-0.3,0.2-0.6,0.3-0.9c0.4-1,0.4-0.9,1.4-0.9c0.2,0,0.2,0.1,0.3,0.3c0.4,1.1,0.8,2.2,1.2,3.3C90.6,72.2,90.6,72.3,90.7,72.5z" />
        <path fill="#c12333" d="M117.5,71.2c0.4,0,0.8,0,1.3,0c0.2,0,0.3,0,0.3,0.3c0,0.7,0,1.4,0,2.1c0,0.1,0,0.2-0.1,0.3c-1.4,0.8-2.9,1.3-4.6,0.7c-1.5-0.5-2.2-1.6-2.2-3.1c0-1.4,0.8-2.5,2.3-3c0.7-0.2,1.4-0.2,2-0.1c0.9,0.1,1.6,0.4,2.4,0.9c0.2,0.1,0.2,0.2,0.1,0.3c-0.5,0.8-0.5,0.8-1.3,0.4c-0.7-0.4-1.5-0.6-2.3-0.4c-1.2,0.2-1.9,1-1.8,2.1c0.1,1.1,0.9,1.8,2,1.9c0.8,0.1,1.5-0.1,2.1-0.5c0.4-0.2,0.2-0.6,0.2-0.8c0-0.2-0.2-0.1-0.4-0.1c-0.4,0-0.9,0-1.3,0c-0.2,0-0.3-0.1-0.3-0.3c0-0.8,0-0.8,0.7-0.8C116.9,71.2,117.2,71.2,117.5,71.2z" />
        <path fill="#c12333" d="M103.6,70.6c0,1.3,0,2.6,0,3.8c0,0.3-0.1,0.5-0.4,0.4c-0.8,0-0.8,0-0.8-0.8c0-1.7,0-3.3,0-5c0-0.3,0-0.4,0.4-0.4c0.6-0.1,1.1,0.2,1.5,0.7c1.1,1.2,2.2,2.3,3.3,3.4c0.1-0.1,0.1-0.3,0.1-0.4c0-1.1,0-2.2,0-3.4c0-0.2,0-0.3,0.3-0.3c1,0,1,0,1,0.9c0,1.6,0,3.3,0,4.9c0,0.3-0.1,0.4-0.4,0.4c-0.5,0-0.8-0.1-1.2-0.5C106.1,73.1,104.9,71.9,103.6,70.6z" />
        <path fill="#c12333" d="M74.7,71.7c0-0.9,0-1.9,0-2.8c0-0.3,0.1-0.3,0.3-0.3c1.7,0,3.4,0,5.1,0c0.3,0,0.4,0.1,0.4,0.4c0,0.7,0,0.7-0.7,0.7c-1.1,0-2.2,0-3.3,0c-0.3,0-0.4,0.1-0.4,0.3c0,1.1,0,1.1,1.1,1.1c0.5,0,1,0,1.6,0c0.2,0,0.3,0.1,0.3,0.3c0,0.7,0,0.7-0.7,0.7c-0.6,0-1.3,0-1.9,0c-0.3,0-0.4,0.1-0.4,0.4c0,0.3,0,0.6,0,1c0,0.3,0.1,0.3,0.3,0.3c1.2,0,2.5,0,3.7,0c0.3,0,0.5,0.1,0.4,0.4c0,0.1,0,0.3,0,0.4c0,0.2-0.1,0.3-0.3,0.3c-1.8,0-3.5,0-5.3,0c-0.3,0-0.3-0.2-0.3-0.4C74.7,73.5,74.7,72.6,74.7,71.7z" />
        <path fill="#c12333" d="M131.1,68.5c1.1,0,2.1,0.4,3.1,0.9c0.2,0.1,0.2,0.2,0.1,0.4c-0.5,0.8-0.4,0.8-1.2,0.4c-0.8-0.4-1.5-0.6-2.4-0.4c-1.1,0.2-1.8,1-1.8,2.1c0,1,0.8,1.8,2,1.9c1,0.1,1.8-0.2,2.6-0.7c0.3-0.2,0.4-0.1,0.6,0.2c0.4,0.8,0.5,0.7-0.4,1.1c-1.2,0.6-2.4,0.8-3.7,0.5c-1.7-0.5-2.6-1.8-2.4-3.4c0.1-1.6,1.4-2.7,3-2.9C130.6,68.5,130.8,68.5,131.1,68.5z" />
        <path fill="#c12333" d="M97,71.7c0-0.9,0-1.9,0-2.8c0-0.2,0-0.3,0.3-0.3c1.1,0,1.1,0,1.1,1c0,1.6,0,3.2,0,4.8c0,0.3-0.1,0.4-0.4,0.4c-1,0-1,0-1-1C97,73.1,97,72.4,97,71.7z" />
        <path fill="#c12333" d="M139.8,73.8c0.3,0,0.5,0.2,0.5,0.5s-0.2,0.5-0.5,0.5c-0.3,0-0.5-0.2-0.5-0.5C139.2,74,139.4,73.8,139.8,73.8z" />
        <g>
            <path fill="#c12333" d="M59.7,71.5c0.5-0.3,0.6-0.5,0.7-0.9c0.3-1.1-0.3-2-1.5-2c-1.4,0-2.9,0-4.3,0c-0.1,0-0.2,0-0.2,0.2c0,1.9,0,3.8,0,5.7c0,0.2,0.1,0.3,0.3,0.3c1.3,0,2.7,0.1,4,0c1.4-0.1,2.1-0.8,2-2C60.6,72.2,60.3,71.8,59.7,71.5z M56.8,69.6c0.5,0,0.9,0,1.4,0c0.6,0,0.9,0.2,0.9,0.7S58.8,71,58.3,71c-0.4,0-0.7,0-1.1,0c-0.4,0-0.7,0-1.1,0c-0.2,0-0.3,0-0.3-0.3C55.8,69.6,55.8,69.6,56.8,69.6z M58.3,73.7c-0.3,0-0.7,0-1,0c-0.4,0-0.8,0-1.2,0c-0.2,0-0.3-0.1-0.3-0.3c0-0.4,0-0.7,0-1.1c0-0.2,0.1-0.3,0.3-0.3c0.8,0,1.5,0,2.3,0c0.6,0,0.9,0.3,0.9,0.9C59.3,73.4,59,73.7,58.3,73.7z" />
            <path fill="#c12333" d="M69,72.4c0.2,0,0.3-0.1,0.4-0.1c0.9-0.3,1.3-0.9,1.3-1.8c-0.1-1-0.5-1.5-1.5-1.7c-0.3-0.1-0.6-0.1-0.9-0.1c-1.1,0-2.3,0-3.4,0c-0.3,0-0.4,0.1-0.4,0.4c0,1.6,0,3.2,0,4.8c0,1,0,1,1,1c0.3,0,0.4-0.1,0.4-0.4c0-0.7,0-1.3,0-1.9c0-0.2,0-0.3,0.3-0.3c0.4,0,0.7,0,1.1,0c0.2,0,0.3,0,0.4,0.2c0.4,0.6,0.9,1.3,1.4,2c0,0.2,0.1,0.3,0.3,0.3c0.5,0,0.9,0,1.4,0C70.2,73.9,69.6,73.1,69,72.4z M68.4,71.2c-0.5,0-0.8,0-1.1,0c-0.4,0-0.8,0-1.1,0c-0.2,0-0.3-0.1-0.3-0.3c0-0.4-0.1-1,0.1-1.2c0.2-0.3,0.8-0.1,1.2-0.1s0.9,0,1.3,0c0.6,0,0.9,0.3,0.9,0.8C69.4,70.9,69.1,71.1,68.4,71.2L68.4,71.2L68.4,71.2z" />
        </g>
        <path fill="#c12333" d="M93.6,60.1c0.1,0,0.1-0.1,0.2-0.1c3.2-0.4,3.3-0.5,3.3-3.8c0-9.1,0-18.3,0-27.4c0-2.3-0.4-2.8-2.7-2.9c-0.6,0-0.9-0.2-0.8-0.8c0-0.5,0-1,0-1.7c0.5,0,0.9-0.1,1.2-0.1c2.2,0,4.3,0,6.5,0c0.9,0,1.3,0.2,1.6,1.1c2.4,7,4.9,13.9,7.4,20.9c0.6,1.6,1.1,3.3,1.7,4.9c0.1,0.4,0.3,0.7,0.5,1.1c0.1,0,0.2,0,0.3,0c0.1-0.4,0.2-0.7,0.2-1.1c0-7.3,0-14.7,0-22c0-1.4-0.6-2.1-2-2.3c-1.6-0.2-1.6-0.2-1.6-1.8c0-0.2,0-0.4,0.1-0.7c3,0,6,0,9.2,0c0,0.5,0,1,0,1.5c0.1,0.7-0.2,0.9-0.9,1c-2,0.1-2.3,0.5-2.3,2.5c0,10.9,0,21.8,0,32.7c0,0.4,0,0.9-0.1,1.4c-1.2,0-2.3,0.1-3.3,0c-0.4,0-0.8-0.6-1-1.1c-2.3-6.3-4.6-12.6-6.8-18.9c-1.3-3.6-2.6-7.3-3.9-10.9c-0.1-0.3-0.3-0.7-0.5-1c-0.1,0-0.2,0-0.3,0c0,0.3-0.1,0.6-0.1,0.9c0,8.8,0,17.5,0,26.3c0,1.4,0.4,1.8,1.7,2.1c1.5,0.3,1.5,0.3,1.4,1.8c0,0.2-0.1,0.5-0.1,0.7c-3,0-6,0-9,0C93.6,61.7,93.6,61,93.6,60.1z" />
        <path fill="#c12333" d="M172.9,60.1c0,0.8,0,1.6,0,2.4c-3,0-5.9,0-9,0c0-0.6-0.1-1.1,0-1.7c0.1-0.3,0.4-0.7,0.7-0.8c1.2-0.4,1.5-0.7,1.3-1.9c-0.5-3.3-1.1-6.6-1.6-9.9c-0.1-0.9-0.5-1.3-1.5-1.3c-0.7,0-1.4,0.1-2,0c-1.1-0.1-1.5,0.4-1.7,1.4c-0.6,3-1.2,6-1.8,9c-0.4,1.9-0.1,2.3,1.8,2.6c0.2,0,0.3,0.1,0.5,0.1c0,0.2,0.1,0.3,0.1,0.4c0,0.6,0,1.2,0,1.9c-2.9,0-5.8,0-8.8,0c0-0.2-0.1-0.5-0.1-0.8c0-1.5,0-1.6,1.5-1.8c1-0.1,1.7-0.4,1.9-1.5c0.8-3.7,1.5-7.5,2.3-11.4c-0.7,0-1.3,0-2,0c-0.6,0-0.8-0.2-0.8-0.8c0-2.6-0.3-2.2,2.1-2.2c0.9,0,1.3-0.2,1.5-1.2c0.9-4.9,2-9.7,3-14.6c0.3-1.4,0-1.9-1.4-2.2c-1.1-0.2-0.5-1.1-0.6-1.6c0-0.3,0.3-0.9,0.6-0.9c2.8-0.1,5.6,0,8.6,0c0,0.6,0.1,1.2,0,1.7c-0.1,0.3-0.4,0.7-0.7,0.8c-1.1,0.3-1.5,0.8-1.3,1.9c0.8,5.1,1.7,10.2,2.5,15.3c0.1,0.6,0.3,0.8,0.9,0.8c2,0,1.9-0.4,1.9,2c0,0.8-0.3,1.1-1.1,1c-0.3,0-0.7,0-1.1,0c0.4,2.6,0.8,5,1.2,7.4c0.1,1,0.4,2,0.5,2.9C170.6,58.9,171.2,60,172.9,60.1z M162.3,35.2c-0.1,0-0.3,0-0.4,0c-0.1,0.4-0.3,0.8-0.4,1.3c-0.3,1.7-0.6,3.5-0.9,5.2c-0.5,2.6-1,2.3,2.2,2.4c0.7,0,0.9-0.3,0.8-0.9c-0.3-1.9-0.6-3.8-0.9-5.7C162.6,36.6,162.5,35.9,162.3,35.2z" />
        <path fill="#c12333" d="M30.4,60.1c0,0.8,0,1.6,0,2.4c-2.9,0-5.7,0-8.8,0c0-0.6-0.1-1.3,0-1.9c0-0.2,0.4-0.5,0.7-0.6c2.4-0.4,2.4-0.3,2.9-2.7c0.7-3.3,1.3-6.5,2-9.8c0-0.1,0-0.3,0-0.5c-0.3,0-0.7,0-1-0.1c-0.5-0.1-1.5-0.1-1.5-0.3c-0.2-0.8-0.1-1.6-0.1-2.4c0-0.1,0.2-0.3,0.4-0.3c0.1-0.1,0.3,0,0.5,0c2.4-0.1,2.4-0.1,3-2.4c0.9-4.4,1.9-8.9,2.8-13.3c0.3-1.4,0-2-1.4-2.3c-1.1-0.2-0.5-1.1-0.6-1.7c-0.1-0.5,0.1-0.8,0.7-0.8c2.8,0,5.5,0,8.5,0c0,0.7,0.1,1.3,0,1.8c0,0.3-0.4,0.6-0.7,0.7c-1.2,0.3-1.5,0.8-1.3,2c0.8,5.1,1.6,10.1,2.4,15.2c0.1,0.6,0.3,0.8,0.9,0.9c2,0,1.9,0.1,1.9,2.1c0,0.8-0.3,1.1-1.1,1c-0.3,0-0.7,0-1.1,0c0.6,3.8,1.2,7.4,1.8,11c0.2,1.3,1,2,2.4,2c0,0.8,0,1.6,0,2.4c-2.9,0-5.8,0-8.9,0c0-0.7,0-1.4,0-2.1c0-0.1,0.4-0.3,0.7-0.3c1-0.3,1.4-0.8,1.3-1.8c-0.5-3.3-1.1-6.6-1.6-10c-0.1-1-0.6-1.4-1.6-1.3c-0.6,0-1.1,0-1.7,0c-1.5,0-1.6,0.1-1.9,1.6c-0.6,3-1.2,5.9-1.8,8.9c-0.4,1.8-0.1,2.3,1.8,2.5C30,60,30.2,60.1,30.4,60.1zM33.1,35.1c-0.1,0-0.3,0-0.4,0c-0.1,0.3-0.2,0.6-0.3,0.9c-0.4,1.9-0.7,3.7-1,5.6c-0.5,2.6-0.9,2.3,2.1,2.3c0.8,0,1-0.3,0.9-1c-0.2-1.3-0.4-2.7-0.6-4C33.5,37.7,33.3,36.4,33.1,35.1z" />
        <path fill="#c12333" d="M63.1,23.1c0,3,0,5.6,0,8.3c0,0.2-0.4,0.4-0.6,0.6c-0.1,0.1-0.3,0-0.5,0c-1.7,0-1.7,0-2-1.7c-0.1-0.5-0.2-1-0.4-1.4c-0.6-1.6-1.6-2.9-3.4-3c-1.9-0.1-3.4,0.8-4.1,2.4c-0.7,1.6-1.3,3.3-1.5,5c-0.7,6.8-0.7,13.6,0.4,20.3c0.3,1.6,0.9,3.2,1.7,4.5c1.3,2.3,4.8,2.3,6.4,0.2c1.2-1.6,1.1-3.4,1.2-5.3c0.1-1.2,0-2.5,0-3.7c0-1.6-0.6-2.2-2.2-2.4c-1.2-0.1-1.1-0.2-1.1-2.1c0-1,0.6-0.9,1.2-0.9c2.6,0,5.2,0,7.8,0c0.3,0,0.7,0,1.1,0.1c0,0.4,0,0.8,0,1.2c0.1,1,0,1.6-1.3,1.7c-1,0.1-1.6,1-1.7,2.1c-0.1,1.4-0.1,2.9-0.1,4.3c0,1.5,0,3,0,4.5c0,1,0.3,1.7,1.4,1.7c0.2,0,0.6,0.4,0.6,0.6c0.1,0.6,0,1.3,0,2c-2.2,0.1-4.3,0.2-6.3,0.3c-1.8,0.1-3.6,0.2-5.3,0c-3.2-0.3-5.6-2.1-6.7-5.1c-0.9-2.5-1.6-5.2-2.1-7.9c-1-6.1-0.8-12.2,0.9-18.2c0.4-1.4,1-2.7,1.8-4c2-3.3,5.4-4.7,9.1-3.8c0.6,0.1,1.2,0.3,1.7,0.4c0.3,0.1,0.9,0.1,0.9,0C60.6,22.5,61.9,23.6,63.1,23.1z" />
        <path fill="#c12333" d="M77.3,25.7c-2.1,0.8-2.1,0.8-2.1,3.2c0,8.2,0,16.4-0.1,24.7c0,3.3,2,5.4,5.1,5.4c2.9,0,5.3-2.5,5.3-5.6c0-8.3,0-16.6,0-24.9c0-2-0.5-2.6-2.5-2.6c-1.3,0-1-0.9-1.1-1.6c-0.1-0.9,0.3-1.1,1.1-1.1c2.3,0,4.7,0,7,0c0.3,0,0.7,0.1,1.1,0.1c0,0.4,0,0.7,0,1c0.1,1-0.1,1.5-1.3,1.5c-1.4,0-1.9,0.6-1.9,2c0,8.6,0,17.1,0,25.6c0,4.6-2.8,8-7.2,8.9c-4.6,0.9-9.3-1.9-10.3-6.3c-0.2-0.8-0.2-1.6-0.2-2.4c0-8.4,0-16.7,0-25.1c0-2,0-1.9-1.8-2.8c-0.4-0.2-0.4-1.2-0.4-1.9c0-0.2,0.5-0.6,0.7-0.6c2.6,0,5.2,0,7.8,0c0.2,0,0.6,0.4,0.7,0.7C77.3,24.6,77.3,25.1,77.3,25.7z" />
        <path fill="#c12333" d="M188.5,23.3c0.8,0,1.6,0,2.4,0c0,0.3,0.1,0.6,0.1,0.9c0,2.2,0,4.5,0,6.7c0,1-0.5,1.1-1.3,1c-0.7,0-1.4,0.2-1.4-1c0-3.1-1.2-5-3.6-5.6c-4-1-5.8,1.4-5.7,4.7c0.1,2.2,1,4.1,2.4,5.7c3,3.5,6,7,8.9,10.6c2.1,2.6,3,5.7,2.9,9.1c-0.2,4.5-3.8,7.7-8.3,7.2c-1.5-0.2-2.9-0.7-4.4-1.2c-1.6-0.5-1.7-0.5-2,1c0,0-0.1,0.1-0.1,0.1c-2.4,0.4-2.4,0.3-2.4-2c0-1.8,0-3.6,0-5.3c0-0.4,0-0.8,0.1-1.2c0.9,0,1.6,0,2.5,0c0.1,0.7,0.2,1.3,0.3,2c0.7,3.1,3.6,5,6.5,4.3c2.1-0.5,3.3-2.1,3.3-4.3c0.1-4.3-1.9-7.7-4.8-10.6c-1.8-1.8-3.7-3.6-5.5-5.5c-1.9-2.1-3.3-4.5-3.6-7.5c-0.6-6.4,3.9-10.2,10.1-8.4c0.5,0.1,0.9,0.3,1.4,0.5C187.6,24.7,188,24.5,188.5,23.3z" />
        <path fill="#c12333" d="M150.2,31.1c-0.1-1-0.2-1.7-0.3-2.5c-0.3-1.4-1.6-2.6-2.8-2.7c-0.7,0-1.1,0.3-1.2,1c0,0.3,0,0.7,0,1.1c0,9.9,0,19.8,0,29.7c0,1.9,0,1.9,2,2.5c0,0.3,0,0.7,0,1.1c0,0.4,0,0.8,0,1.2c-2.9,0-5.7,0-8.7,0c0-0.8,0-1.6,0-2.3c1.8-0.6,1.8-0.6,1.8-2.6c0-9.9,0-19.8,0-29.7c0-0.6-0.2-1.6-0.6-1.8c-0.8-0.4-1.6,0-2.3,0.6c-1,0.9-1.4,2.1-1.3,3.5c0.1,1.3-0.8,1-1.5,1c-0.7,0-1.3,0-1.3-1c0.1-2,0.1-3.9,0-5.9c0-0.8,0.3-0.9,1-0.9c5.6,0,11.3,0,16.9,0c0.8,0,1,0.3,1,1c0,1.9-0.1,3.7,0,5.5c0,1-0.3,1.4-1.3,1.3C151.1,31.2,150.6,31.1,150.2,31.1z" />
        <path fill="#c12333" d="M2,23.4c2.9,0,5.6,0,8.3,0c0.2,0,0.6,0.4,0.6,0.6c0,0.9,0.4,2-1.2,2c-0.2,0-0.6,0.5-0.7,0.8c-0.1,0.3,0,0.7,0,1.1c0,9.9,0,19.7,0,29.6c0,2.1,0.3,2.4,2.4,2.4c0.9,0,1.7,0,2.6,0c1.3,0,2.2-0.8,2.4-2.1c0.1-1.4,0.1-2.8,0.1-4.2c0-0.9,0.2-1.2,1.1-1.2c2.2,0.1,1.9-0.1,1.9,1.8c0,2.4,0,4.9,0,7.3c0,0.8-0.1,1.1-1,1.1c-5.1,0-10.3,0-15.4,0c-0.4,0-1-0.4-1-0.5c0-0.8-0.6-1.9,0.5-2.3C3.7,59.3,4,58.4,4,57.2c0-9.9,0-19.7,0-29.6c0-1-0.2-1.7-1.4-1.7c-0.2,0-0.5-0.4-0.6-0.6C2,24.8,2,24.2,2,23.4z" />
        <path fill="#c12333" d="M130.7,25.8c-1.9,0.3-2,0.4-2,2.1c0,10,0,19.9,0,29.9c0,1.8,0,1.8,1.9,2.3c0,0.8,0,1.6,0,2.4c-2.9,0-5.7,0-8.8,0c0-0.7-0.1-1.4,0-2c0-0.2,0.5-0.5,0.7-0.5c0.9-0.1,1.2-0.7,1.2-1.6c0-10.3,0-20.6,0-30.9c0-0.9-0.4-1.4-1.3-1.6c-1.3-0.1-0.5-1.2-0.7-1.8c-0.1-0.6,0.3-0.8,0.8-0.8c2.3,0,4.6,0,6.9,0c0.9,0,1.2,0.3,1.1,1.1C130.7,24.9,130.7,25.4,130.7,25.8z" />
        <g>
            <path fill="#c12333" d="M139.8,68.8c-1,0-1.7,0.4-2,1.1c-0.3,0.7-0.3,1.4,0.1,2.1c0.4,0.7,1.2,0.9,2,0.9c0.8,0,1.5-0.2,1.9-1C142.6,70.4,141.5,68.8,139.8,68.8z M141.1,71.1c-0.1,0.1-0.2,0.1-0.3,0.2c-0.2,0.4-0.6,0.7-1.1,0.7c-0.2,0-0.3,0-0.5-0.1c-0.2-0.1-0.4-0.2-0.5-0.4c-0.1-0.1-0.1-0.3-0.1-0.4c0-0.1,0-0.2,0-0.3c0-0.7,0.5-1.2,1.2-1.1l0,0h0c0.4,0.1,0.7,0.3,0.9,0.6c0.1,0.1,0.2,0.2,0.4,0.3C141.1,70.7,141.1,70.9,141.1,71.1z" />
            <path fill="#c12333" d="M139.2,71.9c0.1,0.1,0.3,0.1,0.5,0.1c0.6,0,1-0.3,1.1-0.7c-0.3,0.3-0.7,0.6-1.1,0.7C139.6,72,139.4,72,139.2,71.9z" />
            <path fill="#c12333" d="M138.8,71.5c-0.1-0.1-0.1-0.3-0.1-0.4C138.6,71.2,138.7,71.3,138.8,71.5z" />
            <path fill="#c12333" d="M139.8,69.7L139.8,69.7c0.3,0.1,0.6,0.3,0.9,0.6C140.6,70,140.2,69.8,139.8,69.7z" />
            <path fill="#c12333" d="M138.6,70.8c0-0.6,0.5-1.1,1.2-1.1l0,0C139.1,69.6,138.6,70.1,138.6,70.8c0,0.1,0,0.2,0,0.3C138.6,71,138.6,70.9,138.6,70.8z" />
            <path fill="#c12333" d="M140.9,70.9c0,0.1,0,0.3-0.1,0.4c0.1-0.1,0.2-0.1,0.3-0.2c0-0.2,0-0.3,0-0.5c-0.1-0.1-0.2-0.2-0.4-0.3C140.9,70.5,140.9,70.7,140.9,70.9z" />
            <path fill="#c12333" d="M138.8,71.5c0.1,0.2,0.3,0.3,0.5,0.4C139,71.8,138.9,71.7,138.8,71.5z" />
        </g>
    </g>
</svg>